<svg width="1000" height="1000" xmlns="http://www.w3.org/2000/svg" xml:space="preserve" version="1.1">

 <g>
  <title>Layer 1</title>
  <line stroke-miterlimit="10" stroke-linejoin="round" stroke-linecap="round" stroke-width="4" stroke="#135677" fill="none" opacity="0.15" y2="339.6" x2="584.1" y1="315.7" x1="562.7" class="st2" id="XMLID_59_"/>
  <g opacity="0.6" class="st3" id="XMLID_187_">
   <g opacity="0.15" class="st4" id="XMLID_72_">
    <g id="XMLID_70_">
     <rect stroke-miterlimit="10" stroke-linejoin="round" stroke-linecap="round" stroke-width="4" stroke="#02283F" fill="none" height="371.6" width="152.5" class="st5" y="329" x="108.8" id="XMLID_67_"/>
    </g>
    <line stroke-miterlimit="10" stroke-linejoin="round" stroke-linecap="round" stroke-width="4" stroke="#02283F" fill="none" y2="329" x2="142" y1="698" x1="142" class="st5" id="XMLID_73_"/>
    <line stroke-miterlimit="10" stroke-linejoin="round" stroke-linecap="round" stroke-width="4" stroke="#02283F" fill="none" y2="329" x2="230" y1="698" x1="230" class="st5" id="XMLID_74_"/>
    <line stroke-miterlimit="10" stroke-linejoin="round" stroke-linecap="round" stroke-width="4" stroke="#02283F" fill="none" y2="329" x2="186" y1="698" x1="186" class="st5" id="XMLID_75_"/>
    <line stroke-miterlimit="10" stroke-linejoin="round" stroke-linecap="round" stroke-width="4" stroke="#02283F" fill="none" y2="368" x2="262" y1="368" x1="109" class="st5" id="XMLID_76_"/>
    <line stroke-miterlimit="10" stroke-linejoin="round" stroke-linecap="round" stroke-width="4" stroke="#02283F" fill="none" y2="387" x2="262" y1="387" x1="109" class="st5" id="XMLID_77_"/>
    <line stroke-miterlimit="10" stroke-linejoin="round" stroke-linecap="round" stroke-width="4" stroke="#02283F" fill="none" y2="434" x2="262" y1="434" x1="109" class="st5" id="XMLID_80_"/>
    <line stroke-miterlimit="10" stroke-linejoin="round" stroke-linecap="round" stroke-width="4" stroke="#02283F" fill="none" y2="455" x2="262" y1="455" x1="109" class="st5" id="XMLID_79_"/>
    <line stroke-miterlimit="10" stroke-linejoin="round" stroke-linecap="round" stroke-width="4" stroke="#02283F" fill="none" y2="504" x2="262" y1="504" x1="109" class="st5" id="XMLID_82_"/>
    <line stroke-miterlimit="10" stroke-linejoin="round" stroke-linecap="round" stroke-width="4" stroke="#02283F" fill="none" y2="525" x2="262" y1="525" x1="109" class="st5" id="XMLID_81_"/>
    <line stroke-miterlimit="10" stroke-linejoin="round" stroke-linecap="round" stroke-width="4" stroke="#02283F" fill="none" y2="576" x2="262" y1="576" x1="109" class="st5" id="XMLID_85_"/>
    <line stroke-miterlimit="10" stroke-linejoin="round" stroke-linecap="round" stroke-width="4" stroke="#02283F" fill="none" y2="596" x2="262" y1="596" x1="109" class="st5" id="XMLID_83_"/>
    <line stroke-miterlimit="10" stroke-linejoin="round" stroke-linecap="round" stroke-width="4" stroke="#02283F" fill="none" y2="639" x2="262" y1="639" x1="109" class="st5" id="XMLID_90_"/>
    <line stroke-miterlimit="10" stroke-linejoin="round" stroke-linecap="round" stroke-width="4" stroke="#02283F" fill="none" y2="658" x2="262" y1="658" x1="109" class="st5" id="XMLID_89_"/>
    <rect stroke-miterlimit="10" stroke-linejoin="round" stroke-linecap="round" stroke-width="4" stroke="#02283F" fill="none" height="33.4" width="87.7" class="st5" y="296.4" x="142.8" id="XMLID_71_"/>
    <rect stroke-miterlimit="10" stroke-linejoin="round" stroke-linecap="round" stroke-width="4" stroke="#02283F" fill="none" height="33.4" width="46.9" class="st5" y="263" x="163.2" id="XMLID_92_"/>
   </g>
   <g opacity="0.15" class="st4" id="XMLID_69_">
    <polyline stroke-miterlimit="10" stroke-linejoin="round" stroke-linecap="round" stroke-width="4" stroke="#02283F" fill="none" points="748.3,699.7 686.5,699.7 686.5,327.6 849.5,327.6 849.5,699.7 801.5,699.7   " class="st5" id="XMLID_20_"/>
    <rect stroke-miterlimit="10" stroke-linejoin="round" stroke-linecap="round" stroke-width="4" stroke="#02283F" fill="none" height="34.6" width="19.7" class="st5" y="361.7" x="707.6" id="XMLID_23_"/>
    <rect stroke-miterlimit="10" stroke-linejoin="round" stroke-linecap="round" stroke-width="4" stroke="#02283F" fill="none" height="34.6" width="19.7" class="st5" y="361.7" x="741.3" id="XMLID_26_"/>
    <rect stroke-miterlimit="10" stroke-linejoin="round" stroke-linecap="round" stroke-width="4" stroke="#02283F" fill="none" height="34.6" width="19.7" class="st5" y="361.7" x="775" id="XMLID_27_"/>
    <rect stroke-miterlimit="10" stroke-linejoin="round" stroke-linecap="round" stroke-width="4" stroke="#02283F" fill="none" height="34.6" width="19.7" class="st5" y="361.7" x="808.8" id="XMLID_28_"/>
    <rect stroke-miterlimit="10" stroke-linejoin="round" stroke-linecap="round" stroke-width="4" stroke="#02283F" fill="none" height="34.6" width="19.7" class="st5" y="413.7" x="707.6" id="XMLID_32_"/>
    <rect stroke-miterlimit="10" stroke-linejoin="round" stroke-linecap="round" stroke-width="4" stroke="#02283F" fill="none" height="34.6" width="19.7" class="st5" y="413.7" x="741.3" id="XMLID_31_"/>
    <rect stroke-miterlimit="10" stroke-linejoin="round" stroke-linecap="round" stroke-width="4" stroke="#02283F" fill="none" height="34.6" width="19.7" class="st5" y="413.7" x="775" id="XMLID_30_"/>
    <rect stroke-miterlimit="10" stroke-linejoin="round" stroke-linecap="round" stroke-width="4" stroke="#02283F" fill="none" height="34.6" width="19.7" class="st5" y="413.7" x="808.8" id="XMLID_29_"/>
    <rect stroke-miterlimit="10" stroke-linejoin="round" stroke-linecap="round" stroke-width="4" stroke="#02283F" fill="none" height="29.6" width="19.7" class="st5" y="512.7" x="707.6" id="XMLID_38_"/>
    <rect stroke-miterlimit="10" stroke-linejoin="round" stroke-linecap="round" stroke-width="4" stroke="#02283F" fill="none" height="29.6" width="19.7" class="st5" y="512.7" x="741.3" id="XMLID_37_"/>
    <rect stroke-miterlimit="10" stroke-linejoin="round" stroke-linecap="round" stroke-width="4" stroke="#02283F" fill="none" height="29.6" width="19.7" class="st5" y="512.7" x="775" id="XMLID_36_"/>
    <rect stroke-miterlimit="10" stroke-linejoin="round" stroke-linecap="round" stroke-width="4" stroke="#02283F" fill="none" height="29.6" width="19.7" class="st5" y="512.7" x="808.8" id="XMLID_35_"/>
    <rect stroke-miterlimit="10" stroke-linejoin="round" stroke-linecap="round" stroke-width="4" stroke="#02283F" fill="none" height="29.6" width="19.7" class="st5" y="618.1" x="707.6" id="XMLID_45_"/>
    <rect stroke-miterlimit="10" stroke-linejoin="round" stroke-linecap="round" stroke-width="4" stroke="#02283F" fill="none" height="29.6" width="19.7" class="st5" y="618.1" x="741.3" id="XMLID_44_"/>
    <rect stroke-miterlimit="10" stroke-linejoin="round" stroke-linecap="round" stroke-width="4" stroke="#02283F" fill="none" height="29.6" width="19.7" class="st5" y="618.1" x="775" id="XMLID_43_"/>
    <rect stroke-miterlimit="10" stroke-linejoin="round" stroke-linecap="round" stroke-width="4" stroke="#02283F" fill="none" height="29.6" width="19.7" class="st5" y="618.1" x="808.8" id="XMLID_42_"/>
    <line stroke-miterlimit="10" stroke-linejoin="round" stroke-linecap="round" stroke-width="4" stroke="#02283F" fill="none" y2="478" x2="828" y1="478" x1="707" class="st5" id="XMLID_33_"/>
    <line stroke-miterlimit="10" stroke-linejoin="round" stroke-linecap="round" stroke-width="4" stroke="#02283F" fill="none" y2="494" x2="828" y1="494" x1="707" class="st5" id="XMLID_34_"/>
    <line stroke-miterlimit="10" stroke-linejoin="round" stroke-linecap="round" stroke-width="4" stroke="#02283F" fill="none" y2="562" x2="828" y1="562" x1="707" class="st5" id="XMLID_39_"/>
    <line stroke-miterlimit="10" stroke-linejoin="round" stroke-linecap="round" stroke-width="4" stroke="#02283F" fill="none" y2="579" x2="828" y1="579" x1="707" class="st5" id="XMLID_40_"/>
    <line stroke-miterlimit="10" stroke-linejoin="round" stroke-linecap="round" stroke-width="4" stroke="#02283F" fill="none" y2="596" x2="828" y1="596" x1="707" class="st5" id="XMLID_41_"/>
    <rect stroke-miterlimit="10" stroke-linejoin="round" stroke-linecap="round" stroke-width="4" stroke="#02283F" fill="none" height="35.6" width="110.6" class="st5" y="292" x="717.4" id="XMLID_24_"/>
    <rect stroke-miterlimit="10" stroke-linejoin="round" stroke-linecap="round" stroke-width="4" stroke="#02283F" fill="none" height="35.6" width="62.8" class="st5" y="256.4" x="741.3" id="XMLID_47_"/>
    <line stroke-miterlimit="10" stroke-linejoin="round" stroke-linecap="round" stroke-width="4" stroke="#02283F" fill="none" y2="200" x2="771" y1="256" x1="771" class="st5" id="XMLID_48_"/>
   </g>
   <g opacity="0.15" class="st4" id="XMLID_53_">
    <polygon stroke-miterlimit="10" stroke-linejoin="round" stroke-linecap="round" stroke-width="4" stroke="#02283F" fill="none" points="604.7,700 520.6,700 520.6,339.1 562.7,293.2 604.7,339.1   " class="st5" id="XMLID_52_"/>
    <path stroke-miterlimit="10" stroke-linejoin="round" stroke-linecap="round" stroke-width="4" stroke="#02283F" fill="none" d="m675.2,700l-70.5,0l0,-290.9c0,-40.6 26.7,-47.2 70.5,-68.3l0,359.2z" class="st5" id="XMLID_46_"/>
    <g id="XMLID_49_">
     <g id="XMLID_315_">
      <g id="XMLID_323_">
       <line stroke-miterlimit="10" stroke-linejoin="round" stroke-width="4" stroke="#02283F" fill="none" y2="638" x2="630" y1="620" x1="630" class="st6" id="XMLID_325_"/>
       <line stroke-miterlimit="10" stroke-linejoin="round" stroke-width="4" stroke="#02283F" fill="none" y2="638" x2="649" y1="620" x1="649" class="st6" id="XMLID_324_"/>
      </g>
     </g>
     <g id="XMLID_300_">
      <g id="XMLID_305_">
       <line stroke-miterlimit="10" stroke-linejoin="round" stroke-width="4" stroke="#02283F" fill="none" y2="600" x2="630" y1="582" x1="630" class="st6" id="XMLID_310_"/>
       <line stroke-miterlimit="10" stroke-linejoin="round" stroke-width="4" stroke="#02283F" fill="none" y2="600" x2="649" y1="582" x1="649" class="st6" id="XMLID_309_"/>
      </g>
     </g>
     <g id="XMLID_283_">
      <g id="XMLID_290_">
       <line stroke-miterlimit="10" stroke-linejoin="round" stroke-width="4" stroke="#02283F" fill="none" y2="562" x2="630" y1="544" x1="630" class="st6" id="XMLID_293_"/>
       <line stroke-miterlimit="10" stroke-linejoin="round" stroke-width="4" stroke="#02283F" fill="none" y2="562" x2="649" y1="544" x1="649" class="st6" id="XMLID_291_"/>
      </g>
     </g>
     <g id="XMLID_269_">
      <g id="XMLID_276_">
       <line stroke-miterlimit="10" stroke-linejoin="round" stroke-width="4" stroke="#02283F" fill="none" y2="524" x2="630" y1="506" x1="630" class="st6" id="XMLID_278_"/>
       <line stroke-miterlimit="10" stroke-linejoin="round" stroke-width="4" stroke="#02283F" fill="none" y2="524" x2="649" y1="506" x1="649" class="st6" id="XMLID_277_"/>
      </g>
     </g>
     <g id="XMLID_255_">
      <g id="XMLID_262_">
       <line stroke-miterlimit="10" stroke-linejoin="round" stroke-width="4" stroke="#02283F" fill="none" y2="486" x2="630" y1="468" x1="630" class="st6" id="XMLID_264_"/>
       <line stroke-miterlimit="10" stroke-linejoin="round" stroke-width="4" stroke="#02283F" fill="none" y2="486" x2="649" y1="468" x1="649" class="st6" id="XMLID_263_"/>
      </g>
     </g>
     <g id="XMLID_244_">
      <g id="XMLID_248_">
       <line stroke-miterlimit="10" stroke-linejoin="round" stroke-width="4" stroke="#02283F" fill="none" y2="448" x2="630" y1="430" x1="630" class="st6" id="XMLID_250_"/>
       <line stroke-miterlimit="10" stroke-linejoin="round" stroke-width="4" stroke="#02283F" fill="none" y2="448" x2="649" y1="430" x1="649" class="st6" id="XMLID_249_"/>
      </g>
     </g>
     <g id="XMLID_234_">
      <g id="XMLID_238_">
       <line stroke-miterlimit="10" stroke-linejoin="round" stroke-width="4" stroke="#02283F" fill="none" y2="410" x2="630" y1="392" x1="630" class="st6" id="XMLID_240_"/>
       <line stroke-miterlimit="10" stroke-linejoin="round" stroke-width="4" stroke="#02283F" fill="none" y2="410" x2="649" y1="392" x1="649" class="st6" id="XMLID_239_"/>
      </g>
     </g>
    </g>
    <path stroke-miterlimit="10" stroke-linejoin="round" stroke-linecap="round" stroke-width="4" stroke="#02283F" fill="none" d="m449.8,700l70.5,0l0,-290.9c0,-40.6 -26.7,-47.2 -70.5,-68.3l0,359.2z" class="st5" id="XMLID_88_"/>
    <g id="XMLID_54_">
     <g id="XMLID_322_">
      <g id="XMLID_326_">
       <line stroke-miterlimit="10" stroke-linejoin="round" stroke-width="4" stroke="#02283F" fill="none" y2="638" x2="492" y1="620" x1="492" class="st6" id="XMLID_328_"/>
       <line stroke-miterlimit="10" stroke-linejoin="round" stroke-width="4" stroke="#02283F" fill="none" y2="638" x2="474" y1="620" x1="474" class="st6" id="XMLID_327_"/>
      </g>
     </g>
     <g id="XMLID_312_">
      <g id="XMLID_316_">
       <line stroke-miterlimit="10" stroke-linejoin="round" stroke-width="4" stroke="#02283F" fill="none" y2="600" x2="492" y1="582" x1="492" class="st6" id="XMLID_318_"/>
       <line stroke-miterlimit="10" stroke-linejoin="round" stroke-width="4" stroke="#02283F" fill="none" y2="600" x2="474" y1="582" x1="474" class="st6" id="XMLID_317_"/>
      </g>
     </g>
     <g id="XMLID_302_">
      <g id="XMLID_306_">
       <line stroke-miterlimit="10" stroke-linejoin="round" stroke-width="4" stroke="#02283F" fill="none" y2="562" x2="492" y1="544" x1="492" class="st6" id="XMLID_308_"/>
       <line stroke-miterlimit="10" stroke-linejoin="round" stroke-width="4" stroke="#02283F" fill="none" y2="562" x2="474" y1="544" x1="474" class="st6" id="XMLID_307_"/>
      </g>
     </g>
     <g id="XMLID_292_">
      <g id="XMLID_296_">
       <line stroke-miterlimit="10" stroke-linejoin="round" stroke-width="4" stroke="#02283F" fill="none" y2="524" x2="492" y1="506" x1="492" class="st6" id="XMLID_298_"/>
       <line stroke-miterlimit="10" stroke-linejoin="round" stroke-width="4" stroke="#02283F" fill="none" y2="524" x2="474" y1="506" x1="474" class="st6" id="XMLID_297_"/>
      </g>
     </g>
     <g id="XMLID_279_">
      <g id="XMLID_286_">
       <line stroke-miterlimit="10" stroke-linejoin="round" stroke-width="4" stroke="#02283F" fill="none" y2="486" x2="492" y1="468" x1="492" class="st6" id="XMLID_288_"/>
       <line stroke-miterlimit="10" stroke-linejoin="round" stroke-width="4" stroke="#02283F" fill="none" y2="486" x2="474" y1="468" x1="474" class="st6" id="XMLID_287_"/>
      </g>
     </g>
     <g id="XMLID_265_">
      <g id="XMLID_272_">
       <line stroke-miterlimit="10" stroke-linejoin="round" stroke-width="4" stroke="#02283F" fill="none" y2="448" x2="492" y1="430" x1="492" class="st6" id="XMLID_274_"/>
       <line stroke-miterlimit="10" stroke-linejoin="round" stroke-width="4" stroke="#02283F" fill="none" y2="448" x2="474" y1="430" x1="474" class="st6" id="XMLID_273_"/>
      </g>
     </g>
     <g id="XMLID_251_">
      <g id="XMLID_258_">
       <line stroke-miterlimit="10" stroke-linejoin="round" stroke-width="4" stroke="#02283F" fill="none" y2="410" x2="492" y1="392" x1="492" class="st6" id="XMLID_260_"/>
       <line stroke-miterlimit="10" stroke-linejoin="round" stroke-width="4" stroke="#02283F" fill="none" y2="410" x2="474" y1="392" x1="474" class="st6" id="XMLID_259_"/>
      </g>
     </g>
    </g>
    <line stroke-miterlimit="10" stroke-linejoin="round" stroke-linecap="round" stroke-width="4" stroke="#02283F" fill="none" y2="611" x2="546" y1="352" x1="546" class="st5" id="XMLID_55_"/>
    <line stroke-miterlimit="10" stroke-linejoin="round" stroke-linecap="round" stroke-width="4" stroke="#02283F" fill="none" y2="611" x2="582" y1="352" x1="582" class="st5" id="XMLID_56_"/>
    <g id="XMLID_58_">
     <g id="XMLID_181_">
      <line stroke-miterlimit="10" stroke-linejoin="round" stroke-linecap="round" stroke-width="4" stroke="#02283F" fill="none" y2="604" x2="590.1" y1="604" x1="534.6" class="st5" id="XMLID_182_"/>
     </g>
     <g id="XMLID_178_">
      <line stroke-miterlimit="10" stroke-linejoin="round" stroke-linecap="round" stroke-width="4" stroke="#02283F" fill="none" y2="566" x2="590.1" y1="566" x1="534.6" class="st5" id="XMLID_179_"/>
     </g>
     <g id="XMLID_175_">
      <line stroke-miterlimit="10" stroke-linejoin="round" stroke-linecap="round" stroke-width="4" stroke="#02283F" fill="none" y2="528" x2="590.1" y1="528" x1="534.6" class="st5" id="XMLID_176_"/>
     </g>
     <g id="XMLID_172_">
      <line stroke-miterlimit="10" stroke-linejoin="round" stroke-linecap="round" stroke-width="4" stroke="#02283F" fill="none" y2="490" x2="590.1" y1="490" x1="534.6" class="st5" id="XMLID_173_"/>
     </g>
     <g id="XMLID_169_">
      <line stroke-miterlimit="10" stroke-linejoin="round" stroke-linecap="round" stroke-width="4" stroke="#02283F" fill="none" y2="452" x2="590.1" y1="452" x1="534.6" class="st5" id="XMLID_170_"/>
     </g>
     <g id="XMLID_166_">
      <line stroke-miterlimit="10" stroke-linejoin="round" stroke-linecap="round" stroke-width="4" stroke="#02283F" fill="none" y2="414" x2="590.1" y1="414" x1="534.6" class="st5" id="XMLID_167_"/>
     </g>
     <g id="XMLID_163_">
      <line stroke-miterlimit="10" stroke-linejoin="round" stroke-linecap="round" stroke-width="4" stroke="#02283F" fill="none" y2="376" x2="590.1" y1="376" x1="534.6" class="st5" id="XMLID_164_"/>
     </g>
    </g>
   </g>
   <g opacity="0.15" class="st4" id="XMLID_61_">
    <rect stroke-miterlimit="10" stroke-linejoin="round" stroke-linecap="round" stroke-width="4" stroke="#02283F" fill="none" height="406.5" width="147.1" class="st5" y="293.2" x="286.8" id="XMLID_57_"/>
    <rect stroke-miterlimit="10" stroke-linejoin="round" stroke-linecap="round" stroke-width="4" stroke="#02283F" fill="none" height="288.6" width="17.3" class="st5" y="323.4" x="306.4" id="XMLID_60_"/>
    <rect stroke-miterlimit="10" stroke-linejoin="round" stroke-linecap="round" stroke-width="4" stroke="#02283F" fill="none" height="288.6" width="17.3" class="st5" y="323.4" x="337" id="XMLID_63_"/>
    <rect stroke-miterlimit="10" stroke-linejoin="round" stroke-linecap="round" stroke-width="4" stroke="#02283F" fill="none" height="288.6" width="17.3" class="st5" y="323.4" x="367.7" id="XMLID_64_"/>
    <rect stroke-miterlimit="10" stroke-linejoin="round" stroke-linecap="round" stroke-width="4" stroke="#02283F" fill="none" height="288.6" width="17.3" class="st5" y="323.4" x="398.3" id="XMLID_65_"/>
    <rect stroke-miterlimit="10" stroke-linejoin="round" stroke-linecap="round" stroke-width="4" stroke="#02283F" fill="none" height="41.2" width="47.9" class="st5" y="252" x="367.7" id="XMLID_62_"/>
    <line stroke-miterlimit="10" stroke-linejoin="round" stroke-linecap="round" stroke-width="4" stroke="#02283F" fill="none" y2="216" x2="390" y1="252" x1="390" class="st5" id="XMLID_68_"/>
    <rect stroke-miterlimit="10" stroke-linejoin="round" stroke-linecap="round" stroke-width="4" stroke="#02283F" fill="none" height="26.9" width="45.4" class="st5" y="266.3" x="304.5" id="XMLID_66_"/>
   </g>
  </g>
  <path fill="#FFBF73" d="m209.8,388.5c-8.7,-7 -21,-7 -29.7,0c-30,24.4 -66.1,72.3 -61.8,127.9c1.1,13.5 4.4,26.4 9.1,38.7c0.3,0.9 0.7,1.7 1.2,2.6c31.6,59.1 101.1,59.1 132.6,0c0.4,-0.8 0.8,-1.7 1.2,-2.6c4.8,-12.2 8.1,-25.2 9.1,-38.7c4.5,-55.7 -31.6,-103.5 -61.7,-127.9z" class="st7" id="XMLID_25_"/>
  <path fill="#FFBF73" opacity="0.43" d="m234.7,566.7c-35,0 -63.3,-44.3 -63.3,-99c0,-35.3 11.8,-66.2 29.6,-83.8c-7.1,-1.9 -14.8,-0.4 -20.8,4.5c-30,24.4 -66.1,72.3 -61.8,127.9c1.1,13.5 4.4,26.4 9.1,38.7c0.3,0.9 0.7,1.7 1.2,2.6c31.6,59.1 101.1,59.1 132.6,0c0,0 0,-0.1 0.1,-0.1c-8.1,5.9 -17.2,9.2 -26.7,9.2z" class="st8" id="XMLID_180_"/>
  <line stroke-miterlimit="10" stroke-linejoin="round" stroke-linecap="round" stroke-width="8" stroke="#135677" fill="none" y2="485" x2="195" y1="698" x1="195" class="st9" id="XMLID_22_"/>
  <path fill="#FFBF73" d="m98,700.9c0,-31.4 25.5,-56.9 56.9,-56.9s56.9,25.5 56.9,56.9" class="st7" id="XMLID_115_"/>
  <path fill="#FFBF73" opacity="0.43" d="m170.5,646.2c-4.9,-1.4 -10.1,-2.2 -15.5,-2.2c-31.4,0 -56.9,25.5 -56.9,56.9l31.1,0c-0.1,-26 17.4,-48 41.3,-54.7z" class="st8" id="XMLID_12_"/>
  <g id="svg_106">
   <path fill="#4DCBAB" d="m285.6,628.2c-1.9,-16.2 0.8,-52.2 8.7,-76.1c5.2,-15.7 10,-37.2 31.4,-49.1c17.6,-9.9 131.6,-18 195.4,-11.5c35.6,3.6 65.1,38.5 83.5,67.5c60.6,11.1 62.1,11.1 76.3,15.5c14.2,4.3 28.1,15.2 28.1,31.5c0,10.5 0,39.7 0,39.7l-421.7,0c-0.6,-10 -1.1,-7.6 -1.7,-17.5z" class="st10" id="XMLID_91_"/>
   <path fill="#4DCBAB" opacity="0.49" d="m681.9,571.4c-14.2,-4.3 -15.7,-4.3 -76.3,-15.5c-18.4,-29 -47.9,-63.9 -83.5,-67.5c-63.8,-6.5 -177.8,1.6 -195.4,11.5c-4.8,2.7 -8.7,5.9 -12.1,9.3c0,0 0.1,0 0.1,-0.1c17.6,-9.9 131.6,-18 195.4,-11.5c33.5,3.4 64,34.6 82.7,62.4c2.2,3.3 5.7,5.5 9.6,6.2c54.3,10 53.7,10.1 67.5,14.3c14.2,4.3 28.1,15.2 28.1,31.5c0,6.7 0,21 0,30.4l12,0c0,0 0,-29.2 0,-39.7c0,-16.1 -13.9,-27 -28.1,-31.3z" class="st11" id="XMLID_189_"/>
   <line stroke-miterlimit="10" stroke-linecap="round" stroke-width="3" stroke="#72757C" fill="none" opacity="0.21" y2="642.8" x2="515" y1="553.7" x1="515" class="st12" id="XMLID_174_"/>
   <line stroke-miterlimit="10" stroke-linecap="round" stroke-width="3" stroke="#72757C" fill="none" opacity="0.21" y2="642.8" x2="372.7" y1="553.7" x1="375" class="st12" id="XMLID_177_"/>
   <path fill="#72757C" opacity="0.2" d="m324.8,552.1c5.2,-15.7 10,-37.2 31.4,-49.1c12.1,-6.8 69.5,-12.7 125,-13.7c-63,-1.2 -141.1,5.6 -155.5,13.7c-21.4,12 -26.2,33.4 -31.4,49.1c-7.9,23.9 -10.5,59.9 -8.7,76.1c0.6,9.9 1.1,7.5 1.7,17.5l30.5,0c-0.6,-10 -1.1,-7.6 -1.7,-17.5c-1.9,-16.2 0.8,-52.2 8.7,-76.1z" class="st13" id="XMLID_183_"/>
   <path stroke-miterlimit="10" stroke-linejoin="round" stroke-linecap="round" stroke-width="8" stroke="#135677" fill="none" d="m285.6,628.2c-1.9,-16.2 0.8,-52.2 8.7,-76.1c5.2,-15.7 10,-37.2 31.4,-49.1c17.6,-9.9 131.6,-18 195.4,-11.5c33.4,3.4 61.4,34.3 79.9,62c2.4,3.5 6.1,6 10.3,6.7c54,9.9 55.9,10.1 69.6,14.2c14.2,4.3 28.1,15.2 28.1,31.5c0,10.5 0,39.7 0,39.7l-421.7,0c-0.6,-9.9 -1.1,-7.5 -1.7,-17.4z" class="st9" id="XMLID_8_"/>
   <path fill="#FFC88D" d="m515.1,559.3c-7.4,-23.9 -20.2,-44.7 -29.5,-57.8c12.9,0.5 24.3,1.4 34.1,2.5c29.6,3.5 54,31.5 70.3,56.5l-74.9,-1.2z" class="st14" id="XMLID_108_"/>
   <path fill="#FFBF73" opacity="0.2" d="m530.2,539.5c-5.5,-10 2.4,-22 13.7,-20.9c2.1,0.2 4.1,0.4 6.1,0.7c1.7,0.2 3.4,0.5 5,0.9c-10.6,-8.5 -22.5,-14.6 -35.3,-16.1c-9.8,-1.2 -21.3,-2 -34.1,-2.5c9.3,13.1 22.1,33.9 29.5,57.8l24.9,0.4c-3,-7.3 -6.4,-14.1 -9.8,-20.3z" class="st15" id="XMLID_186_"/>
   <path stroke-miterlimit="10" stroke-linejoin="round" stroke-linecap="round" stroke-width="8" stroke="#135677" fill="none" d="m515.1,559.3c-7.4,-23.9 -20.2,-44.7 -29.5,-57.8c12.9,0.5 24.3,1.4 34.1,2.5c29.6,3.5 54,31.5 70.3,56.5l-74.9,-1.2z" class="st9" id="XMLID_21_"/>
   <path fill="#FFC88D" d="m385,558.3l4.3,-53.2c23.3,-1.7 49,-2.5 72.6,-2.4c2.5,0 5,0 7.4,0.1c9,11.2 23.8,31.9 32.5,56.2l-116.8,-0.7z" class="st14" id="XMLID_100_"/>
   <path fill="#FFBF73" opacity="0.2" d="m403.1,532c0.7,-9.2 9.1,-16.5 19.6,-17.1c17.3,-0.9 35.2,-1.3 52.1,-1.2c0.9,0 1.8,0 2.8,0c-3,-4.3 -5.8,-8 -8.3,-11c-2.5,0 -4.9,-0.1 -7.4,-0.1c-23.6,-0.1 -49.3,0.7 -72.6,2.4l-4.3,53.2l16,0.1l2.1,-26.3z" class="st15" id="XMLID_185_"/>
   <path stroke-miterlimit="10" stroke-linejoin="round" stroke-linecap="round" stroke-width="8" stroke="#135677" fill="none" d="m385,558.3l4.3,-53.2c23.3,-1.7 49,-2.5 72.6,-2.4c2.5,0 5,0 7.4,0.1c9,11.2 23.8,31.9 32.5,56.2l-116.8,-0.7z" class="st9" id="XMLID_18_"/>
   <path fill="#FFFFFF" d="m356.8,658.8l-73.4,0c-9.9,0 -18,-8.1 -18,-18l0,0c0,-9.9 8.1,-18 18,-18l73.4,0l0,36z" class="st16" id="XMLID_93_"/>
   <path fill="#72757C" opacity="0.2" d="m286.8,645.6c0,-9.9 8.1,-18 18,-18l51.9,0l0,-4.7l-73.4,0c-9.9,0 -18,8.1 -18,18l0,0c0,9.9 8.1,18 18,18l9.4,0c-3.6,-3.3 -5.9,-8.1 -5.9,-13.3z" class="st13" id="XMLID_190_"/>
   <path stroke-miterlimit="10" stroke-linejoin="round" stroke-linecap="round" stroke-width="8" stroke="#135677" fill="none" d="m356.8,658.8l-73.4,0c-9.9,0 -18,-8.1 -18,-18l0,0c0,-9.9 8.1,-18 18,-18l73.4,0l0,36z" class="st9" id="XMLID_7_"/>
   <path fill="#FFFFFF" d="m712,658.8l-60.1,0l0,-30l60.1,0c8.3,0 15,6.7 15,15l0,0c0,8.3 -6.7,15 -15,15z" class="st16" id="XMLID_99_"/>
   <path fill="#72757C" opacity="0.2" d="m655.8,640.4l60.2,0c4.3,0 8.2,1.9 11,4.8c0,-0.5 0.1,-0.9 0.1,-1.4l0,0c0,-8.3 -6.7,-15 -15,-15l-60.1,0l0,30l4,0l0,-18.4l-0.2,0z" class="st13" id="XMLID_192_"/>
   <path stroke-miterlimit="10" stroke-linejoin="round" stroke-linecap="round" stroke-width="8" stroke="#135677" fill="none" d="m712,658.8l-60.1,0l0,-30l60.1,0c8.3,0 15,6.7 15,15l0,0c0,8.3 -6.7,15 -15,15z" class="st9" id="XMLID_9_"/>
   <rect fill="#FFFFFF" height="16" width="185.5" class="st16" y="642.8" x="389.9" id="XMLID_96_"/>
   <rect fill="#72757C" opacity="0.2" height="8" width="185.5" class="st13" y="642.8" x="389.9" id="XMLID_160_"/>
   <rect stroke-miterlimit="10" stroke-linejoin="round" stroke-linecap="round" stroke-width="8" stroke="#135677" fill="none" height="16" width="185.5" class="st9" y="642.8" x="389.9" id="XMLID_10_"/>
   <circle fill="#82818C" r="44.5" cy="655.1" cx="620.3" class="st17" id="XMLID_97_"/>
   <circle stroke-miterlimit="10" stroke-linejoin="round" stroke-linecap="round" stroke-width="8" stroke="#135677" fill="none" r="44.5" cy="655.1" cx="620.3" class="st9" id="XMLID_17_"/>
   <circle fill="#FFFFFF" r="24.1" cy="655.1" cx="620.3" class="st16" id="XMLID_98_"/>
   <circle stroke-miterlimit="10" stroke-linejoin="round" stroke-linecap="round" stroke-width="8" stroke="#135677" fill="none" r="24.1" cy="655.1" cx="620.3" class="st9" id="XMLID_16_"/>
   <circle stroke-miterlimit="10" stroke-linejoin="round" stroke-linecap="round" stroke-width="8" stroke="#135677" fill="none" r="7.4" cy="655.1" cx="620.3" class="st9" id="XMLID_15_"/>
   <path stroke-miterlimit="10" stroke-linejoin="round" stroke-linecap="round" stroke-width="8" stroke="#135677" fill="none" d="m534.5,645.6" class="st9" id="XMLID_19_"/>
   <circle fill="#82818C" r="44.5" cy="655.1" cx="362.4" class="st17" id="XMLID_94_"/>
   <circle stroke-miterlimit="10" stroke-linejoin="round" stroke-linecap="round" stroke-width="8" stroke="#135677" fill="none" r="44.5" cy="655.1" cx="362.4" class="st9" id="XMLID_11_"/>
   <circle fill="#FFFFFF" r="24.1" cy="655.1" cx="362.4" class="st16" id="XMLID_95_"/>
   <circle stroke-miterlimit="10" stroke-linejoin="round" stroke-linecap="round" stroke-width="8" stroke="#135677" fill="none" r="24.1" cy="655.1" cx="362.4" class="st9" id="XMLID_13_"/>
   <circle stroke-miterlimit="10" stroke-linejoin="round" stroke-linecap="round" stroke-width="8" stroke="#135677" fill="none" r="7.4" cy="655.1" cx="362.4" class="st9" id="XMLID_14_"/>
   <path fill="#FFC88D" d="m376.8,504.1c-26.5,2.8 -40.1,6.3 -44.1,8.7c-15.7,9.6 -20.5,25.8 -24.7,40.1c-0.5,1.6 -0.9,3.1 -1.4,4.6c-0.1,0.4 -0.2,0.8 -0.4,1.2l66.9,0l3.7,-54.6z" class="st14" id="XMLID_105_"/>
   <path fill="#FFBF73" opacity="0.2" d="m323.3,558.1c4.2,-14.3 8.9,-30.5 24.7,-40.1c3.1,-1.9 12.1,-4.4 28.4,-6.7l0.5,-7.2c-26.5,2.8 -40.1,6.3 -44.1,8.7c-15.7,9.6 -20.5,25.8 -24.7,40.1c-0.5,1.6 -0.9,3.1 -1.4,4.6c-0.1,0.4 -0.2,0.8 -0.4,1.2l16.7,0c0.2,-0.2 0.2,-0.4 0.3,-0.6z" class="st15" id="XMLID_184_"/>
   <path stroke-miterlimit="10" stroke-linejoin="round" stroke-linecap="round" stroke-width="8" stroke="#135677" fill="none" d="m376.8,504.1c-26.5,2.8 -40.1,6.3 -44.1,8.7c-15.7,9.6 -20.5,25.8 -24.7,40.1c-0.5,1.6 -0.9,3.1 -1.4,4.6c-0.1,0.4 -0.2,0.8 -0.4,1.2l66.9,0l3.7,-54.6z" class="st9" id="XMLID_109_"/>
   <g id="XMLID_111_">
    <path id="svg_107" fill="#FFFFFF" d="m717.1,597.8c1.1,6.8 -5.2,12.4 -15.2,13.3c-9.5,0.9 -20.4,-3.3 -22.2,-10.1c-1.1,-6.8 10.3,-12.9 19.9,-13.8c9.5,-0.9 16.2,3.8 17.5,10.6z" class="st16"/>
   </g>
   <g id="XMLID_110_">
    <path id="svg_108" stroke-miterlimit="10" stroke-linejoin="round" stroke-linecap="round" stroke-width="8" stroke="#135677" fill="none" d="m717.1,597.8c1.1,6.8 -5.2,12.4 -15.2,13.3c-9.5,0.9 -20.4,-3.3 -22.2,-10.1c-1.1,-6.8 10.3,-12.9 19.9,-13.8c9.5,-0.9 16.2,3.8 17.5,10.6z" class="st9"/>
   </g>
   <line stroke-miterlimit="10" stroke-linejoin="round" stroke-linecap="round" stroke-width="8" stroke="#135677" fill="none" y2="576.7" x2="525" y1="576.7" x1="544" class="st9" id="XMLID_113_"/>
   <line stroke-miterlimit="10" stroke-linejoin="round" stroke-linecap="round" stroke-width="8" stroke="#135677" fill="none" y2="576.7" x2="387" y1="576.7" x1="407" class="st9" id="XMLID_114_"/>
  </g>
  <path stroke-miterlimit="10" stroke-linejoin="round" stroke-linecap="round" stroke-width="6" stroke="#135677" fill="none" d="m215.8,455.5c-3.6,4.1 -4.5,9.6 -3.1,14.5c4.6,0.2 9.2,-1.6 12.4,-5.3c3.6,-4.1 4.5,-9.6 3.1,-14.5c-4.5,-0.2 -9.1,1.6 -12.4,5.3z" class="st18" id="XMLID_120_"/>
  <path stroke-miterlimit="10" stroke-linejoin="round" stroke-linecap="round" stroke-width="6" stroke="#135677" fill="none" d="m188,425.1c-0.2,5.3 2.4,10 6.5,12.9c3.6,-2.7 6,-6.8 6.2,-11.6c0.2,-5.3 -2.4,-10 -6.5,-12.9c-3.6,2.6 -6,6.8 -6.2,11.6z" class="st18" id="XMLID_137_"/>
  <path stroke-miterlimit="10" stroke-linejoin="round" stroke-linecap="round" stroke-width="6" stroke="#135677" fill="none" d="m158.1,471.3c1.4,5.3 5.3,9.2 10.2,10.8c2.7,-3.7 3.9,-8.5 2.6,-13.3c-1.4,-5.3 -5.3,-9.2 -10.2,-10.8c-2.8,3.7 -3.9,8.6 -2.6,13.3z" class="st18" id="XMLID_119_"/>
  <path stroke-miterlimit="10" stroke-linejoin="round" stroke-linecap="round" stroke-width="6" stroke="#135677" fill="none" d="m92.2,589.3c-1.2,5.3 0.6,10.6 4.2,14.3c4.1,-2 7.3,-5.8 8.4,-10.6c1.2,-5.3 -0.6,-10.6 -4.2,-14.3c-4.2,2 -7.3,5.8 -8.4,10.6z" class="st18" id="XMLID_146_"/>
  <path stroke-miterlimit="10" stroke-linejoin="round" stroke-linecap="round" stroke-width="6" stroke="#135677" fill="none" d="m225.3,546.7c-3.6,3.2 -5.1,8 -4.4,12.5c4,0.7 8.3,-0.4 11.6,-3.4c3.6,-3.2 5.1,-8 4.4,-12.5c-4.1,-0.6 -8.4,0.5 -11.6,3.4z" class="st18" id="XMLID_116_"/>
  <path stroke-miterlimit="10" stroke-linejoin="round" stroke-linecap="round" stroke-width="8" stroke="#135677" fill="none" d="m164.3,538c0,0 9.2,24.7 30.7,26.3" class="st9" id="XMLID_128_"/>
  <path stroke-miterlimit="10" stroke-linejoin="round" stroke-linecap="round" stroke-width="8" stroke="#135677" fill="none" d="m194.9,538.6c0,0 19.5,-8.4 21.1,-28.9" class="st9" id="XMLID_134_"/>
  <path fill="#FFBF73" d="m143.8,697c-5.1,-14.2 -18.7,-24.3 -34.7,-24.3s-29.5,10.1 -34.7,24.3l69.4,0z" class="st7" id="XMLID_145_"/>
  <path fill="#FFAA58" d="m121.7,674.9c-3.9,-1.4 -8.1,-2.2 -12.6,-2.2c-16,0 -29.5,10.1 -34.7,24.3l25.1,0c3.8,-10.3 11.9,-18.4 22.2,-22.1z" class="st19" id="XMLID_102_"/>
  <line stroke-miterlimit="10" stroke-linejoin="round" stroke-linecap="round" stroke-width="8" stroke="#135677" fill="none" y2="699.7" x2="68.1" y1="699.7" x1="267.5" class="st9" id="XMLID_3_"/>
  <line stroke-miterlimit="10" stroke-linejoin="round" stroke-linecap="round" stroke-width="8" stroke="#135677" fill="none" y2="699.7" x2="283" y1="699.7" x1="748.3" class="st9" id="XMLID_5_"/>
  <line stroke-miterlimit="10" stroke-linejoin="round" stroke-linecap="round" stroke-width="8" stroke="#135677" fill="none" y2="699.7" x2="769" y1="699.7" x1="782.7" class="st9" id="XMLID_2_"/>
  <line stroke-miterlimit="10" stroke-linejoin="round" stroke-linecap="round" stroke-width="8" stroke="#135677" fill="none" y2="699.7" x2="799.8" y1="699.7" x1="931.9" class="st9" id="XMLID_84_"/>
  <line stroke-miterlimit="10" stroke-linejoin="round" stroke-linecap="round" stroke-width="8" stroke="#135677" fill="none" y2="697" x2="155" y1="666" x1="155" class="st9" id="XMLID_143_"/>
  <line stroke-miterlimit="10" stroke-linejoin="round" stroke-linecap="round" stroke-width="8" stroke="#135677" fill="none" y2="697" x2="155" y1="678" x1="174.7" class="st9" id="XMLID_144_"/>
  <line stroke-miterlimit="10" stroke-linejoin="round" stroke-linecap="round" stroke-width="6" stroke="#135677" fill="none" y2="697" x2="887" y1="442" x1="887" class="st18" id="XMLID_147_"/>
  <line stroke-miterlimit="10" stroke-linejoin="round" stroke-linecap="round" stroke-width="6" stroke="#135677" fill="none" y2="442.3" x2="887" y1="397.1" x1="841.7" class="st18" id="XMLID_148_"/>
  <rect fill="#FFBF73" height="19.6" width="49.5" class="st7" transform="matrix(0.7071 0.7071 -0.7071 0.7071 553.0488 -472.6724)" y="421.5" x="822.3" id="XMLID_122_"/>
  <rect stroke-miterlimit="10" stroke-linejoin="round" stroke-linecap="round" stroke-width="6" stroke="#135677" fill="none" height="19.6" width="49.5" class="st18" transform="matrix(0.7071 0.7071 -0.7071 0.7071 553.0488 -472.6724)" y="421.5" x="822.3" id="XMLID_140_"/>
  <line stroke-miterlimit="10" stroke-linejoin="round" stroke-linecap="round" stroke-width="6" stroke="#135677" fill="none" y2="697" x2="899.7" y1="490" x1="899.7" class="st18" id="XMLID_121_"/>
  <line stroke-miterlimit="10" stroke-linejoin="round" stroke-linecap="round" stroke-width="6" stroke="#135677" fill="none" y2="490.3" x2="899.7" y1="445.1" x1="944.9" class="st18" id="XMLID_118_"/>
  <rect fill="#FFBF73" height="19.6" width="49.5" class="st7" transform="matrix(-0.7071 0.7071 -0.7071 -0.7071 1942.8821 153.7374)" y="469.5" x="914.8" id="XMLID_101_"/>
  <rect stroke-miterlimit="10" stroke-linejoin="round" stroke-linecap="round" stroke-width="6" stroke="#135677" fill="none" height="19.6" width="49.5" class="st18" transform="matrix(-0.7071 0.7071 -0.7071 -0.7071 1942.8821 153.7374)" y="469.5" x="914.8" id="XMLID_117_"/>
  <g id="XMLID_124_">
   <line stroke-miterlimit="10" stroke-linejoin="round" stroke-linecap="round" stroke-width="4" stroke="#CCE1EA" fill="none" y2="177.7" x2="500" y1="154.6" x1="500" class="st20" id="XMLID_125_"/>
   <line stroke-miterlimit="10" stroke-linejoin="round" stroke-linecap="round" stroke-width="4" stroke="#CCE1EA" fill="none" y2="180" x2="487.1" y1="158.3" x1="479.2" class="st20" id="XMLID_126_"/>
   <line stroke-miterlimit="10" stroke-linejoin="round" stroke-linecap="round" stroke-width="4" stroke="#CCE1EA" fill="none" y2="186.6" x2="475.7" y1="168.8" x1="460.8" class="st20" id="XMLID_127_"/>
   <line stroke-miterlimit="10" stroke-linejoin="round" stroke-linecap="round" stroke-width="4" stroke="#CCE1EA" fill="none" y2="196.6" x2="467.3" y1="185.1" x1="447.2" class="st20" id="XMLID_129_"/>
   <line stroke-miterlimit="10" stroke-linejoin="round" stroke-linecap="round" stroke-width="4" stroke="#CCE1EA" fill="none" y2="209" x2="462.8" y1="204.9" x1="440" class="st20" id="XMLID_131_"/>
   <line stroke-miterlimit="10" stroke-linejoin="round" stroke-linecap="round" stroke-width="4" stroke="#CCE1EA" fill="none" y2="222.1" x2="462.8" y1="226.1" x1="440" class="st20" id="XMLID_132_"/>
   <line stroke-miterlimit="10" stroke-linejoin="round" stroke-linecap="round" stroke-width="4" stroke="#CCE1EA" fill="none" y2="234.4" x2="467.3" y1="246" x1="447.2" class="st20" id="XMLID_133_"/>
   <line stroke-miterlimit="10" stroke-linejoin="round" stroke-linecap="round" stroke-width="4" stroke="#CCE1EA" fill="none" y2="244.5" x2="475.7" y1="262.2" x1="460.8" class="st20" id="XMLID_135_"/>
   <line stroke-miterlimit="10" stroke-linejoin="round" stroke-linecap="round" stroke-width="4" stroke="#CCE1EA" fill="none" y2="251" x2="487.1" y1="272.8" x1="479.2" class="st20" id="XMLID_136_"/>
   <line stroke-miterlimit="10" stroke-linejoin="round" stroke-linecap="round" stroke-width="4" stroke="#CCE1EA" fill="none" y2="253.3" x2="500" y1="276.4" x1="500" class="st20" id="XMLID_138_"/>
   <line stroke-miterlimit="10" stroke-linejoin="round" stroke-linecap="round" stroke-width="4" stroke="#CCE1EA" fill="none" y2="251" x2="512.9" y1="272.8" x1="520.8" class="st20" id="XMLID_139_"/>
   <line stroke-miterlimit="10" stroke-linejoin="round" stroke-linecap="round" stroke-width="4" stroke="#CCE1EA" fill="none" y2="244.5" x2="524.3" y1="262.2" x1="539.2" class="st20" id="XMLID_141_"/>
   <line stroke-miterlimit="10" stroke-linejoin="round" stroke-linecap="round" stroke-width="4" stroke="#CCE1EA" fill="none" y2="234.4" x2="532.7" y1="246" x1="552.8" class="st20" id="XMLID_142_"/>
   <line stroke-miterlimit="10" stroke-linejoin="round" stroke-linecap="round" stroke-width="4" stroke="#CCE1EA" fill="none" y2="222.1" x2="537.2" y1="226.1" x1="560" class="st20" id="XMLID_149_"/>
   <line stroke-miterlimit="10" stroke-linejoin="round" stroke-linecap="round" stroke-width="4" stroke="#CCE1EA" fill="none" y2="209" x2="537.2" y1="204.9" x1="560" class="st20" id="XMLID_150_"/>
   <line stroke-miterlimit="10" stroke-linejoin="round" stroke-linecap="round" stroke-width="4" stroke="#CCE1EA" fill="none" y2="196.6" x2="532.7" y1="185.1" x1="552.8" class="st20" id="XMLID_151_"/>
   <line stroke-miterlimit="10" stroke-linejoin="round" stroke-linecap="round" stroke-width="4" stroke="#CCE1EA" fill="none" y2="186.6" x2="524.3" y1="168.8" x1="539.2" class="st20" id="XMLID_153_"/>
   <line stroke-miterlimit="10" stroke-linejoin="round" stroke-linecap="round" stroke-width="4" stroke="#CCE1EA" fill="none" y2="180" x2="512.9" y1="158.3" x1="520.8" class="st20" id="XMLID_159_"/>
  </g>
  <circle fill="#FFBF73" r="20.8" cy="215.5" cx="500" class="st7" id="XMLID_123_"/>
  <path stroke-miterlimit="10" stroke-linejoin="round" stroke-linecap="round" stroke-width="4" stroke="#CCE1EA" fill="none" d="m808.7,163.5c0.1,-0.7 0.1,-1.5 0.1,-2.2c0,-14.8 -12,-26.7 -26.7,-26.7c-5.7,0 -11,1.8 -15.3,4.8c-3.2,-11.2 -13.5,-19.3 -25.7,-19.3c-2.1,0 -4.1,0.2 -6.1,0.7c-6.7,-7.5 -16.5,-12.3 -27.4,-12.3c-18.7,0 -34.2,14 -36.5,32.1c-0.4,0 -0.8,-0.1 -1.3,-0.1c-11.5,0 -20.8,9.3 -20.8,20.8c0,0.7 0,1.5 0.1,2.2l159.6,0z" class="st20" id="XMLID_161_"/>
  <path stroke-miterlimit="10" stroke-linejoin="round" stroke-linecap="round" stroke-width="4" stroke="#CCE1EA" fill="none" d="m191.2,174.1c-4.5,-6.4 -12,-10.7 -20.5,-10.7c-2,0 -3.9,0.2 -5.7,0.7c-6.3,-7 -15.5,-11.5 -25.7,-11.5c-17.5,0 -32,13.1 -34.1,30c-0.4,0 -0.8,-0.1 -1.2,-0.1c-10.7,0 -19.5,8.7 -19.5,19.5c0,0.7 0,1.4 0.1,2.1l101.9,0" class="st20" id="XMLID_162_"/>
  <line stroke-miterlimit="10" stroke-linejoin="round" stroke-linecap="round" stroke-width="4" stroke="#CCE1EA" fill="none" y2="212.3" x2="358.1" y1="212.3" x1="272" class="st20" id="XMLID_165_"/>
  <line stroke-miterlimit="10" stroke-linejoin="round" stroke-linecap="round" stroke-width="4" stroke="#CCE1EA" fill="none" y2="234.4" x2="352.1" y1="234.4" x1="331.2" class="st20" id="XMLID_168_"/>
  <line stroke-miterlimit="10" stroke-linejoin="round" stroke-linecap="round" stroke-width="4" stroke="#CCE1EA" fill="none" y2="222.1" x2="345.9" y1="222.1" x1="307.3" class="st20" id="XMLID_171_"/>
  <line stroke-miterlimit="10" stroke-linejoin="round" stroke-linecap="round" stroke-width="4" stroke="#CCE1EA" fill="none" y2="93" x2="592.6" y1="93" x1="527.4" class="st20" id="XMLID_188_"/>
  <line stroke-miterlimit="10" stroke-linejoin="round" stroke-linecap="round" stroke-width="4" stroke="#CCE1EA" fill="none" y2="108.5" x2="640" y1="108.5" x1="562.7" class="st20" id="XMLID_191_"/>
  <path stroke-miterlimit="10" stroke-linejoin="round" stroke-linecap="round" stroke-width="4" stroke="#CCE1EA" fill="none" d="m257.1,204.1c0.9,-2.1 1.4,-4.4 1.4,-6.9c0,-9.3 -7.4,-16.8 -16.6,-16.8c-2.3,0 -4.5,0.5 -6.5,1.3c-3.7,-9.9 -13.2,-17 -24.3,-17c-13.3,0 -24.2,10 -25.7,22.8c-1.1,-0.2 -2.2,-0.4 -3.3,-0.4c-8.4,0 -15.1,6.6 -15.1,14.7c0,0.7 0.1,1.5 0.2,2.2l89.9,0l0,0.1z" class="st20" id="XMLID_194_"/>
 </g>
</svg>