<svg width="1000" height="1000" xmlns="http://www.w3.org/2000/svg" xml:space="preserve" version="1.1">

 <g>
  <title>Layer 1</title>
  <g opacity="0.15" class="st2" id="XMLID_11_">
   <line stroke-miterlimit="10" stroke-linejoin="round" stroke-linecap="round" stroke-width="6" stroke="#474747" fill="none" y2="748.7" x2="831" y1="748.7" x1="169" class="st3" id="XMLID_73_"/>
   <g id="XMLID_10_">
    <line stroke-miterlimit="10" stroke-linejoin="round" stroke-linecap="round" stroke-width="6" stroke="#474747" fill="none" y2="423.4" x2="732.5" y1="748.7" x1="732.5" class="st3" id="XMLID_3_"/>
    <path stroke-miterlimit="10" stroke-linejoin="round" stroke-linecap="round" stroke-width="6" stroke="#474747" fill="none" d="m758.6,335.1c24.3,31.5 87.4,232.9 -26.1,232.9s-50.3,-201.4 -26.1,-232.9c8.5,-11 18.4,-15.8 26.1,-15.8s17.6,4.8 26.1,15.8z" class="st3" id="XMLID_2_"/>
    <line stroke-miterlimit="10" stroke-linejoin="round" stroke-linecap="round" stroke-width="6" stroke="#474747" fill="none" y2="448.3" x2="757.7" y1="473.5" x1="732.5" class="st3" id="XMLID_7_"/>
    <line stroke-miterlimit="10" stroke-linejoin="round" stroke-linecap="round" stroke-width="6" stroke="#474747" fill="none" y2="497.9" x2="698.2" y1="532.2" x1="732.5" class="st3" id="XMLID_8_"/>
    <circle fill="#FFFFFF" r="49.4" cy="557.1" cx="815.7" class="st0" id="XMLID_12_"/>
    <circle stroke-miterlimit="10" stroke-linejoin="round" stroke-linecap="round" stroke-width="6" stroke="#474747" fill="none" r="49.4" cy="557.1" cx="815.7" class="st3" id="XMLID_4_"/>
    <line stroke-miterlimit="10" stroke-linejoin="round" stroke-linecap="round" stroke-width="6" stroke="#474747" fill="none" y2="548.9" x2="823.9" y1="640.3" x1="732.5" class="st3" id="XMLID_9_"/>
    <line stroke-miterlimit="10" stroke-linejoin="round" stroke-linecap="round" stroke-width="6" stroke="#474747" fill="none" y2="586.1" x2="786.7" y1="586.1" x1="825.8" class="st3" id="XMLID_14_"/>
    <line stroke-miterlimit="10" stroke-linejoin="round" stroke-linecap="round" stroke-width="6" stroke="#474747" fill="none" y2="548.9" x2="806.3" y1="566.5" x1="806.3" class="st3" id="XMLID_15_"/>
    <line stroke-miterlimit="10" stroke-linejoin="round" stroke-linecap="round" stroke-width="6" stroke="#474747" fill="none" y2="617.7" x2="650.5" y1="699.8" x1="732.5" class="st3" id="XMLID_16_"/>
    <ellipse stroke-miterlimit="10" stroke-linejoin="round" stroke-linecap="round" stroke-width="6" stroke="#474747" fill="none" ry="57.5" rx="42.3" cy="623.3" cx="661.6" class="st3" transform="matrix(0.7983 -0.6022 0.6022 0.7983 -241.9206 524.1381)" id="XMLID_13_"/>
    <line stroke-miterlimit="10" stroke-linejoin="round" stroke-linecap="round" stroke-width="6" stroke="#474747" fill="none" y2="632.5" x2="691.8" y1="659" x1="691.8" class="st3" id="XMLID_79_"/>
    <line stroke-miterlimit="10" stroke-linejoin="round" stroke-linecap="round" stroke-width="6" stroke="#474747" fill="none" y2="638" x2="670.8" y1="638" x1="650.5" class="st3" id="XMLID_80_"/>
    <rect stroke-miterlimit="10" stroke-linejoin="round" stroke-linecap="round" stroke-width="6" stroke="#474747" fill="none" height="55.2" width="22.3" class="st3" y="689.9" x="238.4" id="XMLID_86_"/>
    <rect stroke-miterlimit="10" stroke-linejoin="round" stroke-linecap="round" stroke-width="6" stroke="#474747" fill="none" height="55.2" width="22.3" class="st3" y="689.9" x="469" id="XMLID_85_"/>
    <rect stroke-miterlimit="10" stroke-linejoin="round" stroke-linecap="round" stroke-width="6" stroke="#474747" fill="none" height="118.3" width="15.6" class="st3" y="546.5" x="252.7" id="XMLID_84_"/>
    <rect stroke-miterlimit="10" stroke-linejoin="round" stroke-linecap="round" stroke-width="6" stroke="#474747" fill="none" height="118.3" width="15.6" class="st3" y="546.5" x="461.3" id="XMLID_83_"/>
    <rect fill="#FFFFFF" height="33.5" width="312.3" class="st0" y="564.5" x="201.8" id="XMLID_89_"/>
    <rect stroke-miterlimit="10" stroke-linejoin="round" stroke-linecap="round" stroke-width="6" stroke="#474747" fill="none" height="33.5" width="312.3" class="st3" y="564.5" x="201.8" id="XMLID_82_"/>
    <rect fill="#FFFFFF" height="33.5" width="312.3" class="st0" y="598" x="201.8" id="XMLID_88_"/>
    <rect stroke-miterlimit="10" stroke-linejoin="round" stroke-linecap="round" stroke-width="6" stroke="#474747" fill="none" height="33.5" width="312.3" class="st3" y="598" x="201.8" id="XMLID_81_"/>
    <circle stroke-miterlimit="10" stroke-linejoin="round" stroke-linecap="round" stroke-width="6" stroke="#474747" fill="none" r="4.5" cy="582.5" cx="469.1" class="st3" id="XMLID_77_"/>
    <circle stroke-miterlimit="10" stroke-linejoin="round" stroke-linecap="round" stroke-width="6" stroke="#474747" fill="none" r="4.5" cy="614.7" cx="469.1" class="st3" id="XMLID_91_"/>
    <circle stroke-miterlimit="10" stroke-linejoin="round" stroke-linecap="round" stroke-width="6" stroke="#474747" fill="none" r="4.5" cy="582.5" cx="260.6" class="st3" id="XMLID_93_"/>
    <circle stroke-miterlimit="10" stroke-linejoin="round" stroke-linecap="round" stroke-width="6" stroke="#474747" fill="none" r="4.5" cy="614.7" cx="260.6" class="st3" id="XMLID_92_"/>
    <rect stroke-miterlimit="10" stroke-linejoin="round" stroke-linecap="round" stroke-width="6" stroke="#474747" fill="none" height="25.2" width="353.5" class="st3" y="664.8" x="185.8" id="XMLID_87_"/>
   </g>
  </g>
  <g id="svg_103">
   <path fill="#D6D6D4" d="m422,712.6l4,28.6c0.6,4.3 4.6,7.5 9.4,7.5l128.2,0c4.8,0 8.8,-3.2 9.4,-7.5l4,-28.6l-155,0z" class="st4" id="XMLID_104_"/>
   <path fill="#BABABA" d="m560.7,748.7l9.3,-2.4l6.8,-33.7l-154.8,0l1.5,11l127.8,0c0.1,0 0.1,0 0.2,0c18.3,0 9.2,25.1 9.2,25.1z" class="st5" id="XMLID_74_"/>
   <path fill="#5EB173" d="m592.3,702.9l35,-279.5l-255.8,0l35,279.5c0.7,5.5 5.5,9.7 11.2,9.7l163.5,0c5.7,0 10.4,-4.1 11.1,-9.7z" class="st6" id="XMLID_103_"/>
   <g id="XMLID_30_">
    <path fill="#60A06C" opacity="0.34" d="m492.3,652.2c-2.5,0 -4.4,-1.3 -5.1,-1.8c-2.2,-1.8 -3.5,-4.8 -3.6,-8.4c-0.2,-4.4 1.4,-8.7 4.2,-11.4c0.8,-0.7 3.1,-3 6.1,-3c0.3,0 0.6,0 0.9,0.1c2,0.3 3.8,1.6 5.2,3.8c2.2,3.3 2.9,7.8 2,11.6c-1.1,4.4 -4.8,9.1 -9.5,9.2l-0.2,-0.1zm1,-13.8c-0.9,2.1 -0.7,3.4 -0.4,3.7c0,0 0.1,0 0.1,0.1c0.1,-0.1 0.3,-0.4 0.5,-0.9c0.3,-1 0.1,-2.1 -0.2,-2.9z" class="st7" id="XMLID_134_"/>
    <path fill="#60A06C" opacity="0.34" d="m503.9,664.6c-1.3,0 -2.6,-0.4 -3.6,-1.1c-2.2,-1.5 -2.1,-3.5 -1.5,-10.8c0.4,-4.6 1,-11.7 1.5,-22.7c0,-0.6 0.1,-1.1 0.1,-1.7c-0.1,0 -0.1,0 -0.2,0c-0.2,0 -0.5,0 -0.7,0c-0.8,0.1 -1.6,0.1 -2.4,0.1c-0.9,0 -1.7,0.1 -2.5,0.2c-0.3,0 -0.6,0.1 -0.9,0.1c-0.6,0.1 -1.1,0.1 -1.5,0.1c-0.9,0 -1.6,-0.3 -2.2,-0.9c-2.1,-2.1 0.2,-6.6 1.9,-8.3c1.4,-1.3 3.3,-2 5.6,-2c1.3,0 2.8,0.2 4.6,0.6c1.1,-3.2 2.7,-5.5 4.7,-6.9c0.8,-0.6 3,-2.1 5.9,-2.1c0.4,0 0.8,0 1.2,0.1c0.6,0.1 2.5,0.4 4.1,1.9c1.5,1.5 1.9,3.5 1.9,4.9c0.8,-0.3 1.6,-0.5 2.6,-0.5c0.4,0 0.7,0 1.1,0.1c0.6,0.1 2.3,0.3 3.7,1.8c2.3,2.3 1.7,5.6 1.6,6.2l-0.4,1.7c0.3,-0.1 0.6,-0.3 0.8,-0.5c0.6,-0.6 1,-1.5 1.1,-2.8l0.3,-4.1l5.1,4.8l0.2,0.3c0.9,1.8 0.3,4.1 -1.8,6.7c-1.5,1.9 -4.4,2.8 -8.8,2.8c-1.3,0 -2.8,-0.1 -4.4,-0.3c-0.6,4.9 -0.5,10.3 -0.5,10.3c0.1,2 0.1,3.9 0.2,5.5c0.3,8.9 0.4,12.5 -2.4,14.6c-1,0.7 -2.3,1.1 -3.6,1.1c0,0 0,0 0,0c-1.2,0 -2.3,-0.3 -3.3,-1c-1,-0.7 -1.5,-1.4 -1.7,-2.8c-0.4,1.2 -1.1,2.1 -2.1,2.9c-0.8,1.2 -2.2,1.7 -3.7,1.7zm6.8,-34.1c-0.4,5 -0.3,9.8 -0.3,9.8c0.1,2.3 0.1,4.4 0.2,6.3c0,0.8 0.1,1.5 0.1,2.2c0.3,-3.7 0.6,-8.5 0.9,-14.9c0,-1.1 0.1,-2.1 0.2,-3.1c-0.4,-0.1 -0.7,-0.2 -1.1,-0.3zm12.9,-4.9c1.2,0.2 2.2,0.4 3,0.4c0.3,0 0.6,0 0.9,-0.1l-1.3,-0.7c-0.4,-0.2 -0.8,-0.3 -1.1,-0.3c-0.1,0 -0.2,0 -0.3,0c-0.1,0 -0.7,0.2 -1.2,0.7zm-9.8,-3.3c0.5,-1.2 1.2,-2.3 1.9,-3.1c-0.1,0 -0.1,0 -0.2,0c-0.1,0 -0.3,0 -0.4,0c0,0 -1,0.2 -2,1.3c-0.2,0.2 -0.5,0.6 -0.8,1.3c0.2,0 1.2,0.4 1.5,0.5z" class="st7" id="XMLID_19_"/>
    <path fill="#60A06C" opacity="0.34" d="m526.5,654.7c-2.3,0 -4.3,-0.7 -5.6,-2c-1.9,-1.9 -2.6,-5.4 -1.7,-9.4c0.9,-4.4 3.8,-10.3 9.1,-12.5c0.5,-0.2 2.3,-0.9 4.4,-0.9c1.9,0 3.5,0.6 4.8,1.6c2.5,2.1 2.9,5.7 2.2,8.2c-0.7,2.6 -2.6,4.3 -4.8,5.4c0.2,0.3 0.5,0.7 0.5,1.4c0.2,1.5 -0.6,3.9 -2.3,5.6c-1.5,1.6 -4,2.6 -6.6,2.6zm5.1,-16.9c-0.3,0.1 -0.6,0.3 -1,0.6c0.4,-0.2 0.7,-0.4 1,-0.6z" class="st7" id="XMLID_26_"/>
    <path fill="#60A06C" opacity="0.34" d="m542.6,655.1c-2.3,0 -4.6,-0.8 -5.9,-2.3c-1.9,-2 -2.5,-5.2 -1.8,-9c1,-4.8 4,-8.9 7.6,-10.4c1.3,-0.5 2.8,-0.8 4.2,-0.8c2.3,0 4.1,0.7 5.3,2.1c2.2,2.5 1.4,6 1.1,7c-0.6,2.1 -2,3.7 -3.7,4.8c0.3,0.3 0.6,0.8 0.6,1.5c0.1,1.4 -0.6,3.7 -2.2,5.1c-1.2,1.3 -3.1,2 -5.2,2z" class="st7" id="XMLID_24_"/>
    <path fill="#60A06C" opacity="0.34" d="m469.4,663c-1.6,0 -3.1,-0.2 -4.6,-0.7c-5,-1.5 -9,-5.6 -11.3,-11.5c-2.5,-6.4 -1.7,-14.5 1.9,-21.8c-1.5,0.3 -2.8,1.1 -4,1.8c-1.3,0.8 -2.4,1.4 -3.6,1.4c-0.7,0 -1.3,-0.2 -1.9,-0.6c-1.1,-0.9 -1.7,-2.5 -1.6,-4.5c0.1,-2.4 1.2,-5.7 3.9,-7.2c1,-0.6 2.2,-0.9 3.5,-0.9c2.6,0 5.6,1.2 8.7,2.6c3,-3.4 6.5,-5.7 10.1,-6.9c2,-0.6 4,-1 5.7,-1c2.6,0 4.7,0.8 6,2.3c3,3.4 1.6,9.5 -1.5,13.1c-1.5,1.7 -4.3,3.8 -9.3,4.1c-0.3,0 -0.5,0 -0.8,0c-1.9,0 -3.5,-0.4 -5.3,-1c-0.5,-0.1 -0.9,-0.3 -1.3,-0.4c-1.9,6.7 -1,13.9 2.2,16.6c1,0.8 2.7,1.7 4.5,1.7c0.4,0 0.8,0 1.1,-0.1c0.1,0 2.8,-0.7 3.3,-2.8c0.3,-1 0.1,-2.3 -0.5,-3c-0.4,-0.5 -1,-0.7 -1.6,-1c-0.6,-0.2 -2.2,-0.9 -2,-2.6c0.2,-1.9 2.6,-2.8 4.7,-2.8c0.6,0 1.2,0.1 1.8,0.2c4.6,1.2 8,7.7 6.9,13.4c-0.9,4.8 -4.5,7.4 -5.7,8.3c-2.6,2.3 -5.9,3.3 -9.3,3.3l0,0zm-1.9,-37.8c1.2,0.6 2,0.9 2.8,0.9c0.2,0 0.4,0 0.6,0c1.7,-0.2 3.7,-1.2 4.2,-2.8c0.3,-0.8 0.2,-1.6 0,-1.7c0,0 -0.3,-0.2 -0.8,-0.2c-1.2,0 -2.7,0.5 -3.7,1.1l-0.1,0.1c-1.1,0.6 -2.1,1.5 -3,2.6z" class="st7" id="XMLID_21_"/>
   </g>
   <path fill="#60A06C" d="m371.5,423.4l2.7,22l212.8,0c8.1,0 14.4,7.1 13.4,15.2l-22.2,230c-0.9,8.8 -7.5,16 -16.2,17.6l-25,4.5l35.6,0l0,0l8.5,0c5.7,0 10.5,-4.1 11.2,-9.7l35,-279.5l-255.8,0l0,-0.1z" class="st8" id="XMLID_72_"/>
   <path stroke-miterlimit="10" stroke-linejoin="round" stroke-linecap="round" stroke-width="6" stroke="#474747" fill="none" d="m422,712.6l4,28.6c0.6,4.3 4.6,7.5 9.4,7.5l128.2,0c4.8,0 8.8,-3.2 9.4,-7.5l4,-28.6l-155,0z" class="st3" id="XMLID_63_"/>
   <path stroke-miterlimit="10" stroke-linejoin="round" stroke-linecap="round" stroke-width="6" stroke="#474747" fill="none" d="m592.3,702.9l35,-279.5l-255.8,0l35,279.5c0.7,5.5 5.5,9.7 11.2,9.7l163.5,0c5.7,0 10.4,-4.1 11.1,-9.7z" class="st3" id="XMLID_59_"/>
   <path fill="#646464" d="m632.8,423.4c-88.9,0 -177.9,0 -266.8,0c-8.7,0.1 -7.5,-4.6 -4.5,-13.5c1.8,-5.3 1.8,-11 0,-16.2c-3,-9 -4.2,-13.6 4.5,-13.5c88.9,0 177.9,0 266.8,0c8.7,-0.1 7.5,4.6 4.5,13.5c-1.8,5.3 -1.8,11 0,16.2c3,8.9 4.2,13.6 -4.5,13.5z" class="st1" id="XMLID_108_"/>
   <g id="svg_104">
    <path id="svg_105" fill="#7C7C7C" d="m637.3,393.6c1.9,-5.8 3.1,-9.8 1.4,-11.9c-0.4,1.3 -0.9,2.8 -1.4,4.4c-1.3,3.8 -1.6,7.9 -1.1,11.9c0.3,-1.5 0.6,-2.9 1.1,-4.4z" class="st9"/>
    <path id="svg_106" fill="#7C7C7C" d="m362.6,398c0.6,-4 0.3,-8 -1.1,-11.9c-0.5,-1.6 -1,-3 -1.4,-4.4c-1.7,2.1 -0.6,6.1 1.4,11.9c0.5,1.5 0.9,2.9 1.1,4.4z" class="st9"/>
    <path id="svg_107" fill="#7C7C7C" d="m638.7,414.2c-1,1.1 -2.8,1.7 -5.9,1.7c-88.9,0 -177.9,0 -266.8,0c-3.1,0 -4.9,-0.5 -5.9,-1.7c-1.7,6.1 -1.3,9.2 5.9,9.2c88.9,0 177.9,0 266.8,0c7.2,0.1 7.6,-3.1 5.9,-9.2z" class="st9"/>
   </g>
   <g id="XMLID_68_">
    <path fill="#646464" d="m637.3,409.9c-0.2,-0.5 -0.3,-1 -0.4,-1.5c-1.3,4.7 -1.2,9.7 0.3,14.4c3.7,-1.5 2.4,-5.9 0.1,-12.9z" class="st1" id="XMLID_69_"/>
    <path fill="#646464" d="m362.9,403.5c1,-0.4 4.9,-10.1 10.9,-10.1c88.9,0 164.6,0 253.5,0c7.2,0 8.5,14.6 9.6,15c0,-0.1 0.4,-14.7 0.4,-14.8c3,-9 4.2,-13.6 -4.5,-13.5c-88.8,0 -177.7,0 -266.5,0c-9,-0.2 -7.8,4.5 -4.8,13.5c0.1,0.2 1.3,9.8 1.4,9.9z" class="st1" id="XMLID_70_"/>
    <path fill="#646464" d="m361.7,422.8c1.5,-4.7 1.6,-9.7 0.3,-14.4c-0.1,0.5 -0.3,1 -0.4,1.5c-2.4,7 -3.7,11.4 0.1,12.9z" class="st1" id="XMLID_71_"/>
   </g>
   <path stroke-miterlimit="10" stroke-linejoin="round" stroke-linecap="round" stroke-width="6" stroke="#474747" fill="none" d="m632.8,423.4c-88.9,0 -177.9,0 -266.8,0c-8.7,0.1 -7.5,-4.6 -4.5,-13.5c1.8,-5.3 1.8,-11 0,-16.2c-3,-9 -4.2,-13.6 4.5,-13.5c88.9,0 177.9,0 266.8,0c8.7,-0.1 7.5,4.6 4.5,13.5c-1.8,5.3 -1.8,11 0,16.2c3,8.9 4.2,13.6 -4.5,13.5z" class="st3" id="XMLID_44_"/>
   <path fill="#D6D6D4" d="m625.1,380.1l-251.3,0l2.5,-8.8c3.9,-14 17.3,-23.7 32.6,-23.7l181.1,0c15.3,0 28.6,9.7 32.6,23.7l2.5,8.8z" class="st4" id="XMLID_106_"/>
   <path fill="#D6D6D4" d="m625.1,380.1l-251.3,0l2.5,-8.8c3.9,-14 17.3,-23.7 32.6,-23.7l181.1,0c15.3,0 28.6,9.7 32.6,23.7l2.5,8.8z" class="st4" id="XMLID_66_"/>
   <path fill="#FFFFFF" d="m426.5,358l171.5,-0.1c12.4,0 20,8.9 23.5,10c-6.1,-9.1 -19.6,-20.3 -31.4,-20.3l-181.3,0c-15.3,0 -28.6,9.7 -32.6,23.7l-2.5,8.8l21.8,0c5.3,-11.6 17.4,-22.1 31,-22.1z" class="st0" id="XMLID_76_"/>
   <path stroke-miterlimit="10" stroke-linejoin="round" stroke-linecap="round" stroke-width="6" stroke="#474747" fill="none" d="m625.1,380.1l-251.3,0l2.5,-8.8c3.9,-14 17.3,-23.7 32.6,-23.7l181.1,0c15.3,0 28.6,9.7 32.6,23.7l2.5,8.8z" class="st3" id="XMLID_43_"/>
   <path fill="#D6D6D4" d="m575.6,347.6l-68.6,0l0,-6.4c0,-7.4 6,-13.5 13.5,-13.5l41.7,0c7.4,0 13.5,6 13.5,13.5l0,6.4l-0.1,0z" class="st4" id="XMLID_107_"/>
   <path fill="#D6D6D4" d="m575.6,347.6l-68.6,0l0,-6.4c0,-7.4 6,-13.5 13.5,-13.5l41.7,0c7.4,0 13.5,6 13.5,13.5l0,6.4l-0.1,0z" class="st4" id="XMLID_67_"/>
   <path fill="#FFFFFF" d="m507.1,347.4c0,-7.1 5.7,-12.8 12.8,-12.8l43,0c6.5,0 11.9,4.9 12.7,11.2l0,-5.2c0,-7.1 -5.7,-12.8 -12.8,-12.8l-43,0c-7.1,0 -12.8,5.7 -12.8,12.8l0,7l0.1,0l0,-0.2z" class="st0" id="XMLID_78_"/>
   <path fill="#60A06C" d="m491.3,582.4c-10.6,0 -29.8,-7.5 -35.9,-27.6c-6,-16.4 -3.4,-35.7 6.7,-50.2c7.4,-10.6 17.5,-16.6 27.7,-16.6c3.1,0 6.2,0.6 9.2,1.7l0.1,0.1l0.1,0.1c2.1,1.2 3.3,2.6 3.7,4.3c0.6,2.9 -1.3,5.6 -3.8,9c-5,6.9 -11.8,16.3 -5.1,33.8c7.8,20.2 7.8,39.4 3,44c-1,0.9 -3,1.4 -5.7,1.4z" class="st8" id="XMLID_32_"/>
   <path stroke-miterlimit="10" stroke-linejoin="round" stroke-linecap="round" stroke-width="6" stroke="#474747" fill="none" d="m575.6,347.6l-68.6,0l0,-6.4c0,-7.4 6,-13.5 13.5,-13.5l41.7,0c7.4,0 13.5,6 13.5,13.5l0,6.4l-0.1,0z" class="st3" id="XMLID_42_"/>
   <path fill="#60A06C" d="m518.8,582.1c-3.9,0 -7.5,-1.5 -10,-4.1c-2.1,-2.3 -3.2,-5.2 -3,-8.3c0.5,-8 -2.2,-15.6 -4.8,-23c-2.4,-6.7 -4.7,-13.1 -4.7,-19.7c-0.1,-24.4 16.3,-32.1 18.3,-32.9c1.3,-0.8 2.8,-1.2 4.4,-1.2c6.5,0 14.5,6.4 20.3,16.3c3.9,6.6 15.4,30.3 0.3,57.5c-5.5,9.8 -13,15.4 -20.8,15.4l0,0z" class="st8" id="XMLID_31_"/>
   <path fill="#F6F9E4" d="m499.3,488.5c11.8,6.7 -18.1,14.9 -6.1,46.1c8.2,21.3 7,38.5 3.5,41.8s-30.9,-0.6 -38.5,-25.2c-12.4,-33.8 14.6,-72.6 41.1,-62.7z" class="st10" id="XMLID_33_"/>
   <path fill="#F6F9E4" d="m516.5,492.9c0,0 -17.3,6.8 -17.2,31.2c0,13.6 10.5,27.3 9.5,42.8c-0.7,10.8 17.8,18 30.1,-4.1c21.5,-39 -10.5,-77.5 -22.4,-69.9z" class="st10" id="XMLID_27_"/>
   <g id="XMLID_102_">
    <path fill="#F6F9E4" d="m488.2,630c-4.6,4.4 -4.8,13.5 -0.7,16.8c0.3,0.2 1.8,1.5 4,1.4c3.8,-0.1 6.7,-4.3 7.6,-7.7c1.4,-5.4 -1.5,-12.2 -5.5,-12.9c-2.5,-0.4 -4.7,1.7 -5.4,2.4zm6.1,9.9c-0.1,0.3 -0.7,2.1 -2.1,2.3c-0.9,0.1 -1.6,-0.5 -1.7,-0.6c-1.2,-1.1 -1.1,-3.6 0.1,-6.3c0.8,-1.2 1.4,-1.5 1.8,-1.4c1.4,0 2.9,3.4 1.9,6z" class="st10" id="XMLID_39_"/>
    <path fill="#F6F9E4" d="m500.4,659.9c-2.1,-1.4 -0.3,-4.6 0.9,-31.8c0.3,-7.5 1.9,-14.3 5.8,-17c0.8,-0.5 3,-2.1 5.7,-1.7c0.6,0.1 1.9,0.3 2.9,1.4c1.9,1.9 1.3,4.8 1.2,5c-0.6,-0.3 -1.7,-0.8 -3.1,-0.6c0,0 -1.6,0.3 -3.1,1.9c-3.8,4.1 -3.4,21.3 -3.4,21.3c0.4,14.3 1.1,19.3 -1.7,21.3c-1.3,1.1 -3.6,1.2 -5.2,0.2z" class="st10" id="XMLID_38_"/>
    <path fill="#F6F9E4" d="m511.8,659.6c-1.8,-1.2 -0.3,-4 0.8,-27.5c0.3,-6.5 1.7,-12.4 5,-14.7c0.7,-0.5 2.6,-1.8 4.9,-1.4c0.5,0.1 1.6,0.3 2.6,1.2c1.6,1.6 1.1,4.1 1,4.4c-0.5,-0.3 -1.5,-0.7 -2.7,-0.5c0,0 -1.4,0.2 -2.7,1.6c-3.3,3.6 -2.9,18.4 -2.9,18.4c0.3,12.4 0.9,16.7 -1.5,18.4c-1.2,0.9 -3.1,1 -4.5,0.1z" class="st10" id="XMLID_37_"/>
    <path fill="#F6F9E4" d="m528.6,646.4c-0.9,0.2 -2.1,0.2 -3,-0.4c-2.1,-1.5 -1.4,-6.8 1.2,-9.9c0.4,-0.4 2.7,-3 4.8,-2.3c0.6,0.2 1.4,0.8 1.4,1.5c0.1,1.7 -3.4,3.6 -6.5,3.8c-1.7,0.1 -3.1,-0.3 -3.9,-0.6c-0.9,1.3 -0.8,2.1 -0.7,2.4c0.6,1.9 4.9,1.8 5.5,1.7c0.4,0 7.9,-0.5 9.3,-5.6c0.5,-1.9 0.2,-4.6 -1.6,-6.2c-2.6,-2.2 -6.6,-0.7 -7.1,-0.4c-7.1,2.8 -10.3,15 -6.7,18.6c2.1,2.1 7,1.8 9.4,-0.5c1.6,-1.6 2,-4.1 1.5,-4.4c-0.3,0 -1.3,1.8 -3.6,2.3z" class="st10" id="XMLID_36_"/>
    <path fill="#F6F9E4" d="m543.7,647.7c-0.8,0.2 -1.9,0.2 -2.6,-0.3c-1.9,-1.4 -1.1,-6.1 1.1,-8.8c0.3,-0.4 2,-2.5 3.4,-2c0.7,0.2 1.2,1 1.2,1.7c-0.1,1.6 -2.8,2.8 -4.8,3c-1.5,0.2 -2.8,-0.2 -3.5,-0.5c-0.8,1.1 -0.7,1.9 -0.6,2.1c0.5,1.5 3.4,1.7 4.9,1.5c2.6,-0.2 6.5,-1.8 7.5,-5.3c0.1,-0.4 0.9,-3.3 -0.7,-5.1c-1.8,-2 -5.2,-1.6 -7.3,-0.8c-5.9,2.4 -8.6,12.7 -5.2,16.2c2,2 6.4,2.2 8.5,0.3c1.5,-1.3 1.8,-3.6 1.4,-3.9c-0.4,-0.2 -1.3,1.4 -3.3,1.9z" class="st10" id="XMLID_35_"/>
    <path fill="#F6F9E4" d="m531.6,620.4c-0.1,1.3 -0.5,2.9 -1.7,4.1c-6.9,6.6 -30.7,-11.9 -37.4,-5.3c-1.5,1.4 -2.7,4.6 -1.9,5.5c0.4,0.4 1.1,0.2 2.9,0c1.6,-0.2 3.3,-0.1 4.9,-0.3c4,-0.4 10.1,2 16.4,3.4c1.6,0.3 14.2,2.9 17.2,-0.9c0.4,-0.5 2.3,-3 1.5,-4.6l0,0c-0.7,-0.7 -1.3,-1.3 -1.9,-1.9z" class="st10" id="XMLID_34_"/>
    <path fill="#F6F9E4" d="m461.6,622.9c4.3,2.1 5.7,3.5 8.5,3.2c2.2,-0.3 5.1,-1.6 5.9,-4.2c0.3,-1 0.5,-2.8 -0.4,-3.7c-1.4,-1.5 -4.9,-0.5 -6.9,0.5c0,0 -0.1,0.1 -0.2,0.1c-8.7,4.7 -11.4,23.5 -4.4,29.4c1.8,1.5 4.6,2.7 7.4,2c0.4,-0.1 3.9,-1 4.8,-4.2c0.4,-1.6 0.1,-3.5 -0.9,-4.8c-1.3,-1.5 -3.2,-1.6 -3.1,-2.1c0,-0.5 2.1,-1.3 4,-0.8c3.6,0.9 6.3,6.4 5.4,11.1c-0.8,4 -3.9,6.3 -4.9,7c-3.6,2.6 -8.3,3.2 -12.3,2c-6.8,-2.1 -9.4,-8.9 -10,-10.3c-4.9,-12.6 4.3,-29.8 15.8,-33.4c0.8,-0.3 7,-2.2 9.6,0.7c2.2,2.5 1,7.6 -1.5,10.4c-2.8,3.2 -6.8,3.4 -7.9,3.5c-2,0.1 -3.5,-0.3 -5.5,-0.9c-5.1,-1.4 -5.4,-3 -8.2,-3.5c-5.4,-0.8 -8.8,4.4 -10.6,3.1c-1.6,-1.2 -0.9,-6.7 2.1,-8.4c2.9,-1.7 7.7,0.6 13.3,3.3z" class="st10" id="XMLID_25_"/>
   </g>
   <path stroke-miterlimit="10" stroke-linejoin="round" stroke-linecap="round" stroke-width="6" stroke="#474747" fill="none" d="m576.7,202.4c-7.8,10.9 -16.4,13.6 -23,26.3c-1.8,3.5 -7.1,13.7 -5.5,26c2.1,16.2 14.3,20.4 15.5,35c0.5,6.6 -1.3,14.6 -8,24" class="st3" id="XMLID_125_"/>
   <path stroke-miterlimit="10" stroke-linejoin="round" stroke-linecap="round" stroke-width="6" stroke="#474747" fill="none" d="m601.7,151.1c6.1,25.3 1.7,40.9 -3.5,50.5c-9.5,17.5 -26.8,24.3 -28,41.9c-0.6,8.3 2.7,15.3 5.4,19.7" class="st3" id="XMLID_62_"/>
   <path stroke-miterlimit="10" stroke-linejoin="round" stroke-linecap="round" stroke-width="6" stroke="#474747" fill="none" d="m544.4,211.1c0,0 -12,14 -12,26.7" class="st3" id="XMLID_6_"/>
  </g>
 </g>
</svg>