<svg width="1000" height="1000" xmlns="http://www.w3.org/2000/svg" xml:space="preserve" version="1.1">

 <g>
  <title>Layer 1</title>
  <path stroke-miterlimit="10" stroke-linejoin="round" stroke-linecap="round" stroke-width="6" stroke="#000000" opacity="0.24" d="m630.6,766.8l-242,0c-5.5,0 -10,-4.5 -10,-10l0,-470.9c0,-5.5 4.5,-10 10,-10l280,0c5.5,0 10,4.5 10,10l0,432.9c0,26.5 -21.5,48 -48,48z" class="st1" id="XMLID_81_"/>
  <g id="XMLID_5_">
   <path fill="#FCA417" d="m602,745.5l-242,0c-5.5,0 -10,-4.5 -10,-10l0,-471c0,-5.5 4.5,-10 10,-10l280,0c5.5,0 10,4.5 10,10l0,432.9c0,26.6 -21.5,48.1 -48,48.1z" class="st2" id="XMLID_125_"/>
   <path fill="#FFFFFF" opacity="0.33" d="m361.8,731.8l0,-463.6c0,-7.5 6.1,-13.6 13.6,-13.6l-11.8,0c-7.5,0 -13.6,6.1 -13.6,13.6l0,463.6c0,7.5 6.1,13.6 13.6,13.6l11.8,0c-7.5,0.1 -13.6,-6.1 -13.6,-13.6z" class="st3" id="XMLID_123_"/>
   <circle fill="#FCA84C" r="51.8" cy="591.4" cx="440" class="st4" id="XMLID_121_"/>
   <path fill="#FCA84C" opacity="0.66" d="m402.1,561c17.5,-21.9 49.2,-25.8 71.5,-9.1c-0.4,-0.3 -0.8,-0.7 -1.2,-1c-22.3,-17.9 -55,-14.3 -72.8,8.1s-14.3,55 8.1,72.8c0.4,0.3 0.9,0.7 1.3,1c-21.3,-18.1 -24.5,-49.9 -6.9,-71.8z" class="st5" id="XMLID_119_"/>
   <g id="XMLID_112_">
    <path fill="#FCA84C" d="m636.4,254.5l-12.5,0c7.5,0 13.9,6.1 13.9,13.6l0,411.9c0,36.1 -29.5,65.5 -65.7,65.5l12.5,0c36.1,0 65.5,-29.3 65.5,-65.5l0,-411.8c-0.1,-7.5 -6.2,-13.7 -13.7,-13.7z" class="st4" id="XMLID_117_"/>
    <path fill="#FCA84C" d="m544.7,745.5l39.8,0c36.1,0 65.5,-29.3 65.5,-65.5l0,-39.8l-105.3,105.3z" class="st4" id="XMLID_115_"/>
    <path fill="#FCA84C" d="m584.5,735.9l-212.5,0c-5.1,0 -9.3,4.2 -9.3,9.3l0,0.2l221.8,0c58.1,0 65.5,-29.3 65.5,-65.5l0,-9.5c0,36.2 -29.3,65.5 -65.5,65.5z" class="st4" id="XMLID_113_"/>
   </g>
   <path stroke-miterlimit="10" stroke-linejoin="round" stroke-linecap="round" stroke-width="6" stroke="#000000" fill="none" d="m602,745.5l-242,0c-5.5,0 -10,-4.5 -10,-10l0,-471c0,-5.5 4.5,-10 10,-10l280,0c5.5,0 10,4.5 10,10l0,432.9c0,26.6 -21.5,48.1 -48,48.1z" class="st6" id="XMLID_111_"/>
   <path fill="#514447" d="m593.1,482.5l-198.2,0c-2.2,0 -4,-1.8 -4,-4l0,-164c0,-2.2 1.8,-4 4,-4l210.2,0c2.2,0 4,1.8 4,4l0,152c0,8.8 -7.2,16 -16,16z" class="st7" id="XMLID_110_"/>
   <path stroke-miterlimit="10" stroke-linejoin="round" stroke-linecap="round" stroke-width="4" stroke="#000000" fill="none" d="m593.1,482.5l-198.2,0c-2.2,0 -4,-1.8 -4,-4l0,-164c0,-2.2 1.8,-4 4,-4l210.2,0c2.2,0 4,1.8 4,4l0,152c0,8.8 -7.2,16 -16,16z" class="st8" id="XMLID_109_"/>
   <path fill="#83906F" d="m567.2,463.4l-134.4,0c-0.6,0 -1,-0.4 -1,-1l0,-123.5c0,-0.6 0.4,-1 1,-1l134.4,0c0.6,0 1,0.4 1,1l0,123.5c0,0.6 -0.5,1 -1,1z" class="st9" id="XMLID_108_"/>
   <path stroke-miterlimit="10" stroke-linejoin="round" stroke-linecap="round" stroke-width="4" stroke="#000000" fill="none" d="m567.2,463.4l-134.4,0c-0.6,0 -1,-0.4 -1,-1l0,-123.5c0,-0.6 0.4,-1 1,-1l134.4,0c0.6,0 1,0.4 1,1l0,123.5c0,0.6 -0.5,1 -1,1z" class="st8" id="XMLID_107_"/>
   <path stroke-miterlimit="10" stroke-linejoin="round" stroke-linecap="round" stroke-width="4" stroke="#000000" fill="none" d="m636.4,254.5l-272.8,0c-7.5,0 -13.6,6.1 -13.6,13.6l0,13.6l300,0l0,-13.6c0,-7.4 -6.1,-13.6 -13.6,-13.6z" class="st8" id="XMLID_106_"/>
   <line stroke-miterlimit="10" stroke-linejoin="round" stroke-linecap="round" stroke-width="4" stroke="#000000" fill="none" y2="508.2" x2="609.1" y1="508.2" x1="528.6" class="st8" id="XMLID_105_"/>
   <line stroke-miterlimit="10" stroke-linejoin="round" stroke-linecap="round" stroke-width="4" stroke="#000000" fill="none" y2="508.2" x2="471.4" y1="508.2" x1="390.9" class="st8" id="XMLID_104_"/>
   <g id="XMLID_94_">
    <g id="svg_2">
     <g id="XMLID_152_">
      <path fill="#664A4A" d="m474.8,602.5l-67.2,0c-2.5,0 -4.6,-2 -4.6,-4.6l0,-13.1c0,-2.5 2,-4.6 4.6,-4.6l67.2,0c2.5,0 4.6,2 4.6,4.6l0,13.1c-0.1,2.6 -2.1,4.6 -4.6,4.6z" class="st10" id="XMLID_153_"/>
     </g>
     <g id="XMLID_150_">
      <path fill="#664A4A" d="m430,625l0,-67.2c0,-2.5 2,-4.6 4.6,-4.6l13.1,0c2.5,0 4.6,2 4.6,4.6l0,67.2c0,2.5 -2,4.6 -4.6,4.6l-13.1,0c-2.6,-0.1 -4.6,-2.1 -4.6,-4.6z" class="st10" id="XMLID_151_"/>
     </g>
    </g>
   </g>
   <path stroke-miterlimit="10" stroke-linejoin="round" stroke-linecap="round" stroke-width="4" stroke="#000000" fill="none" d="m473.6,580.5l-19.1,0c-1.2,0 -2.1,-1 -2.1,-2.1l0,-18.9c0,-3.4 -2.8,-6.2 -6.2,-6.2l-9.8,0c-3.2,0 -5.8,2.6 -5.8,5.8l0,19.4c0,1.2 -1,2.1 -2.1,2.1l-19.1,0c-3.3,0 -6,2.7 -6,6l0,9.8c0,3.3 2.7,6 6,6l19.1,0c1.2,0 2.1,1 2.1,2.1l0,18.9c0,3.4 2.8,6.2 6.2,6.2l9.4,0c3.4,0 6.2,-2.8 6.2,-6.2l0,-18.9c0,-1.2 1,-2.1 2.1,-2.1l18.7,0c3.6,0 6.4,-2.9 6.4,-6.4l0,-9.4c-0.1,-3.5 -2.7,-6.1 -6,-6.1z" class="st8" id="XMLID_93_"/>
   <g id="XMLID_77_">
    <path fill="#FCA84C" d="m557.1,629.2c-5.5,0 -10.6,-2.1 -14.5,-6c-3.9,-3.9 -6,-9 -6,-14.5c0,-5.5 2.1,-10.6 6,-14.5l34.7,-34.7c3.9,-3.9 9,-6 14.5,-6c5.5,0 10.6,2.1 14.5,6c8,8 8,21 0,28.9l-34.7,34.7c-3.9,3.9 -9,6.1 -14.5,6.1z" class="st4" id="XMLID_91_"/>
    <path fill="#FCA84C" opacity="0.66" d="m544.2,623.2c-3.9,-3.9 -6,-9 -6,-14.5c0,-5.5 2.1,-10.6 6,-14.5l34.7,-34.7c3.7,-3.7 8.5,-5.8 13.7,-5.9c-0.3,0 -0.5,0 -0.8,0c-5.5,0 -10.6,2.1 -14.5,6l-34.7,34.7c-3.9,3.9 -6,9 -6,14.5c0,5.5 2.1,10.6 6,14.5c3.9,3.9 9,6 14.5,6c0.3,0 0.5,0 0.8,0c-5.2,-0.4 -10,-2.4 -13.7,-6.1z" class="st5" id="XMLID_88_"/>
    <circle fill="#FF1F1F" r="13.6" cy="574" cx="591.8" class="st11" id="XMLID_86_"/>
    <circle fill="#FF1F1F" r="13.6" cy="608.7" cx="557.1" class="st11" id="XMLID_80_"/>
    <circle stroke-miterlimit="10" stroke-linejoin="round" stroke-linecap="round" stroke-width="4" stroke="#000000" fill="none" r="13.6" cy="574" cx="591.8" class="st8" id="XMLID_79_"/>
    <circle stroke-miterlimit="10" stroke-linejoin="round" stroke-linecap="round" stroke-width="4" stroke="#000000" fill="none" r="13.6" cy="608.7" cx="557.1" class="st8" id="XMLID_78_"/>
   </g>
   <path stroke-miterlimit="10" stroke-linejoin="round" stroke-linecap="round" stroke-width="4" stroke="#000000" fill="none" d="m472,683.2l-2.1,-2.1c-1.2,-1.2 -1.2,-3.1 0,-4.2l21.1,-21.1c1.2,-1.2 3.1,-1.2 4.2,0l2.1,2.1c1.2,1.2 1.2,3.1 0,4.2l-21.1,21.1c-1.2,1.2 -3.1,1.2 -4.2,0z" class="st8" id="XMLID_76_"/>
   <path stroke-miterlimit="10" stroke-linejoin="round" stroke-linecap="round" stroke-width="4" stroke="#000000" fill="none" d="m506.2,683.2l-2.1,-2.1c-1.2,-1.2 -1.2,-3.1 0,-4.2l21.1,-21.1c1.2,-1.2 3.1,-1.2 4.2,0l2.1,2.1c1.2,1.2 1.2,3.1 0,4.2l-21.1,21.1c-1.1,1.2 -3,1.2 -4.2,0z" class="st8" id="XMLID_75_"/>
   <g id="XMLID_61_">
    <line stroke-miterlimit="10" stroke-linejoin="round" stroke-linecap="round" stroke-width="6" stroke="#000000" fill="none" y2="706.8" x2="593.2" y1="690.4" x1="576.9" class="st6" id="XMLID_74_"/>
    <line stroke-miterlimit="10" stroke-linejoin="round" stroke-linecap="round" stroke-width="6" stroke="#000000" fill="none" y2="717.4" x2="582.6" y1="701" x1="566.2" class="st6" id="XMLID_70_"/>
    <line stroke-miterlimit="10" stroke-linejoin="round" stroke-linecap="round" stroke-width="6" stroke="#000000" fill="none" y2="695.2" x2="604.8" y1="678.8" x1="588.4" class="st6" id="XMLID_64_"/>
    <line stroke-miterlimit="10" stroke-linejoin="round" stroke-linecap="round" stroke-width="6" stroke="#000000" fill="none" y2="684.6" x2="615.4" y1="668.2" x1="599" class="st6" id="XMLID_63_"/>
    <line stroke-miterlimit="10" stroke-linejoin="round" stroke-linecap="round" stroke-width="6" stroke="#000000" fill="none" y2="674" x2="626" y1="657.6" x1="609.6" class="st6" id="XMLID_62_"/>
   </g>
   <rect stroke-miterlimit="10" stroke-linejoin="round" stroke-linecap="round" stroke-width="4" stroke="#000000" fill="none" height="27.3" width="238" class="st8" y="254.5" x="381.4" id="XMLID_60_"/>
   <g id="XMLID_57_">
    <line stroke-miterlimit="10" stroke-linejoin="round" stroke-linecap="round" stroke-width="4" stroke="#000000" fill="none" y2="325.5" x2="509.1" y1="325.5" x1="411.4" class="st8" id="XMLID_59_"/>
    <line stroke-miterlimit="10" stroke-linejoin="round" stroke-linecap="round" stroke-width="4" stroke="#000000" fill="none" y2="325.5" x2="592.7" y1="325.5" x1="561.4" class="st8" id="XMLID_58_"/>
   </g>
   <g id="XMLID_37_">
    <line stroke-miterlimit="10" stroke-linejoin="round" stroke-linecap="round" stroke-width="4" stroke="#000000" fill="none" y2="511.8" x2="485.2" y1="504.6" x1="485.2" class="st8" id="XMLID_56_"/>
    <line stroke-miterlimit="10" stroke-linejoin="round" stroke-linecap="round" stroke-width="4" stroke="#000000" fill="none" y2="511.8" x2="495.1" y1="504.6" x1="495.1" class="st8" id="XMLID_46_"/>
    <line stroke-miterlimit="10" stroke-linejoin="round" stroke-linecap="round" stroke-width="4" stroke="#000000" fill="none" y2="511.8" x2="504.9" y1="504.6" x1="504.9" class="st8" id="XMLID_45_"/>
    <line stroke-miterlimit="10" stroke-linejoin="round" stroke-linecap="round" stroke-width="4" stroke="#000000" fill="none" y2="511.8" x2="514.8" y1="504.6" x1="514.8" class="st8" id="XMLID_41_"/>
   </g>
  </g>
 </g>
</svg>