<svg width="1000" height="1000" xmlns="http://www.w3.org/2000/svg" xml:space="preserve" version="1.1">

 <g>
  <title>Layer 1</title>
  <g id="svg_1">
   <g id="svg_2">
    <g id="svg_3">
     <path id="svg_4" fill="#EEF2F4" d="m63.2,959.2c0,2.5 -1.2,3.7 -2.6,3.7c-1.1,0 -1.9,-0.5 -2.1,-1.4c-0.4,0.5 -1,0.8 -1.8,0.8c-1.5,0 -2.6,-1.2 -2.6,-2.8c0,-1.6 1.1,-2.8 2.6,-2.8c0.7,0 1.2,0.3 1.6,0.7l0,-0.5l1.6,0l0,3.9c0,0.8 0.3,1.4 1,1.4c0.9,0 1.7,-0.9 1.7,-3c0,-3 -2.3,-5.3 -5.4,-5.3c-3.1,0 -5.6,2.4 -5.6,5.7c0,3.3 2.5,5.7 5.9,5.7c1.1,0 2.1,-0.2 2.9,-0.4l0,0.6c-0.8,0.3 -1.7,0.4 -2.9,0.4c-3.7,0 -6.5,-2.6 -6.5,-6.2c0,-3.4 2.7,-6.2 6.2,-6.2c3.9,-0.2 6,2.9 6,5.7zm-4.9,0.3c0,-0.8 -0.6,-1.4 -1.3,-1.4c-0.8,0 -1.3,0.5 -1.3,1.4c0,0.8 0.6,1.3 1.3,1.3c0.8,0.1 1.3,-0.5 1.3,-1.3z" class="st1"/>
    </g>
    <g id="svg_5">
     <path id="svg_6" fill="#EEF2F4" d="m69.4,955.1l0,2c-1.2,-0.1 -2.6,0.5 -2.6,2.4l0,4.3l-1.9,0l0,-8.6l1.9,0l0,1.4c0.5,-1.1 1.5,-1.5 2.6,-1.5z" class="st1"/>
    </g>
    <g id="svg_7">
     <path id="svg_8" fill="#EEF2F4" d="m74.6,962.3c1,0 1.8,-0.5 2.2,-1.1l1.5,0.9c-0.8,1.2 -2.1,1.9 -3.8,1.9c-2.8,0 -4.7,-1.9 -4.7,-4.5c0,-2.5 1.8,-4.5 4.5,-4.5c2.6,0 4.3,2.1 4.3,4.5c0,0.3 0,0.5 -0.1,0.8l-6.8,0c0.4,1.3 1.5,2 2.9,2zm2.3,-3.5c-0.3,-1.5 -1.3,-2.1 -2.5,-2.1c-1.4,0 -2.3,0.8 -2.6,2.1l5.1,0z" class="st1"/>
    </g>
    <g id="svg_9">
     <path id="svg_10" fill="#EEF2F4" d="m88.9,955.2l0,8.6l-1.9,0l0,-1.2c-0.7,0.9 -1.7,1.5 -3,1.5c-2.3,0 -4.3,-2 -4.3,-4.5c0,-2.6 1.9,-4.5 4.3,-4.5c1.3,0 2.3,0.5 3,1.4l0,-1.2l1.9,0l0,-0.1zm-1.8,4.3c0,-1.6 -1.2,-2.7 -2.7,-2.7c-1.5,0 -2.7,1.1 -2.7,2.7c0,1.6 1.2,2.7 2.7,2.7c1.5,0.1 2.7,-1.1 2.7,-2.7z" class="st1"/>
    </g>
    <g id="svg_11">
     <path id="svg_12" fill="#EEF2F4" d="m91.1,951.3l1.9,0l0,12.5l-1.9,0l0,-12.5z" class="st1"/>
    </g>
    <g id="svg_13">
     <path id="svg_14" fill="#EEF2F4" d="m102.9,955.2l-3.3,8.6l-2.1,0l-3.3,-8.6l2,0l2.4,6.5l2.4,-6.5l1.9,0z" class="st1"/>
    </g>
    <g id="svg_15">
     <path id="svg_16" fill="#EEF2F4" d="m104.2,955.2l1.9,0l0,8.9c0,2.4 -1.2,3.5 -3.5,3.3l0,-1.8c1.1,0.1 1.7,-0.3 1.7,-1.5l0,-8.9l-0.1,0zm-0.2,-2.4c0,-0.7 0.5,-1.2 1.2,-1.2c0.7,0 1.2,0.5 1.2,1.2c0,0.6 -0.5,1.2 -1.2,1.2c-0.7,0 -1.2,-0.6 -1.2,-1.2z" class="st1"/>
    </g>
    <g id="svg_17">
     <path id="svg_18" fill="#EEF2F4" d="m116,955.2l-3.3,8.8c-0.8,2.2 -2.2,3.3 -4.2,3.2l0,-1.7c1.2,0.1 1.9,-0.5 2.3,-1.7l0.1,-0.2l-3.6,-8.4l2,0l2.6,6.2l2.2,-6.2l1.9,0z" class="st1"/>
    </g>
   </g>
   <g id="svg_19">
    <path id="svg_20" fill="#EEF2F4" d="m211.9,938.7c0,2.1 -1.5,3.8 -3.6,3.8l-3,0l0,-7.6l3,0c2.1,0 3.6,1.7 3.6,3.8zm-1,0c0,-1.6 -1.1,-2.9 -2.6,-2.9l-2,0l0,5.7l2,0c1.5,0.1 2.6,-1.2 2.6,-2.8z" class="st1"/>
    <path id="svg_21" fill="#EEF2F4" d="m219.5,940.8l-3.4,0l-0.6,1.7l-1.1,0l2.8,-7.6l1.1,0l2.8,7.6l-1.1,0l-0.5,-1.7zm-0.3,-0.9l-1.4,-3.8l-1.4,3.8l2.8,0z" class="st1"/>
    <path id="svg_22" fill="#EEF2F4" d="m226.4,939.4l0,3.1l-1,0l0,-3.1l-2.7,-4.5l1.1,0l2.1,3.6l2.1,-3.6l1.1,0l-2.7,4.5z" class="st1"/>
    <path id="svg_23" fill="#EEF2F4" d="m237,938.7c0,-2.4 1.1,-4 2.9,-4c1.9,0 2.9,1.6 2.9,4c0,2.4 -1,4 -2.9,4c-1.8,0 -2.9,-1.7 -2.9,-4zm4.9,0c0,-1.9 -0.7,-3 -1.9,-3c-1.2,0 -1.9,1.1 -1.9,3s0.7,3 1.9,3c1.2,0 1.9,-1.1 1.9,-3z" class="st1"/>
    <path id="svg_24" fill="#EEF2F4" d="m248.5,934.9l0,7.6l-1,0l0,-6.5l-1.6,0.5l-0.3,-0.9l2,-0.7l0.9,0z" class="st1"/>
   </g>
   <g id="svg_25">
    <path id="svg_26" fill="#EEF2F4" d="m58.9,938.7c0,2.1 -1.5,3.8 -3.6,3.8l-3,0l0,-7.6l3,0c2.1,0 3.6,1.7 3.6,3.8zm-1,0c0,-1.6 -1.1,-2.9 -2.6,-2.9l-2,0l0,5.7l2,0c1.5,0.1 2.6,-1.2 2.6,-2.8z" class="st1"/>
    <path id="svg_27" fill="#EEF2F4" d="m67,941.6l0,1l-4.6,0l0,-7.6l4.5,0l0,1l-3.5,0l0,2.3l3.2,0l0,0.9l-3.2,0l0,2.4l3.6,0z" class="st1"/>
    <path id="svg_28" fill="#EEF2F4" d="m70,940.8l0.9,-0.5c0.3,0.8 0.9,1.4 2,1.4c1.1,0 1.6,-0.5 1.6,-1.2c0,-0.8 -0.7,-1 -1.8,-1.4c-1.2,-0.4 -2.4,-0.8 -2.4,-2.2c0,-1.4 1.1,-2.2 2.4,-2.2c1.3,0 2.2,0.7 2.6,1.7l-0.8,0.5c-0.3,-0.7 -0.8,-1.2 -1.7,-1.2c-0.8,0 -1.4,0.4 -1.4,1.1c0,0.7 0.5,1 1.6,1.3c1.3,0.4 2.6,0.8 2.6,2.3c0,1.3 -1.1,2.2 -2.6,2.2c-1.5,0.1 -2.6,-0.7 -3,-1.8z" class="st1"/>
    <path id="svg_29" fill="#EEF2F4" d="m80,934.9l0,7.6l-1,0l0,-7.6l1,0z" class="st1"/>
    <path id="svg_30" fill="#EEF2F4" d="m91.3,939.2c0,1.9 -1.4,3.5 -3.7,3.5c-2.4,0 -4,-1.8 -4,-4c0,-2.2 1.7,-4 4,-4c1.4,0 2.7,0.8 3.3,1.8l-0.9,0.5c-0.4,-0.8 -1.4,-1.4 -2.4,-1.4c-1.8,0 -3,1.3 -3,3c0,1.7 1.2,3 3,3c1.6,0 2.5,-0.9 2.7,-2l-2.8,0l0,-0.9l3.8,0l0,0.5z" class="st1"/>
    <path id="svg_31" fill="#EEF2F4" d="m100.6,934.9l0,7.6l-0.8,0l-3.9,-5.7l0,5.7l-1,0l0,-7.6l0.8,0l3.9,5.7l0,-5.7l1,0z" class="st1"/>
    <path id="svg_32" fill="#EEF2F4" d="m109.1,941.6l0,1l-4.6,0l0,-7.6l4.5,0l0,1l-3.5,0l0,2.3l3.2,0l0,0.9l-3.2,0l0,2.4l3.6,0z" class="st1"/>
    <path id="svg_33" fill="#EEF2F4" d="m119.2,938.7c0,2.1 -1.5,3.8 -3.6,3.8l-3,0l0,-7.6l3,0c2,0 3.6,1.7 3.6,3.8zm-1,0c0,-1.6 -1.1,-2.9 -2.6,-2.9l-2,0l0,5.7l2,0c1.5,0.1 2.6,-1.2 2.6,-2.8z" class="st1"/>
    <path id="svg_34" fill="#EEF2F4" d="m133.2,940.4c0,1.2 -1,2.2 -2.2,2.2l-3.3,0l0,-7.6l3,0c1.2,0 2.1,0.9 2.1,2.1c0,0.7 -0.3,1.2 -0.8,1.6c0.7,0.2 1.2,0.8 1.2,1.7zm-4.5,-4.6l0,2.3l2,0c0.6,0 1.1,-0.5 1.1,-1.2c0,-0.6 -0.5,-1.2 -1.1,-1.2l-2,0l0,0.1zm3.5,4.5c0,-0.7 -0.5,-1.2 -1.2,-1.2l-2.3,0l0,2.5l2.3,0c0.7,0 1.2,-0.6 1.2,-1.3z" class="st1"/>
    <path id="svg_35" fill="#EEF2F4" d="m139.4,939.4l0,3.1l-1,0l0,-3.1l-2.7,-4.5l1.1,0l2.1,3.6l2.1,-3.6l1.1,0l-2.7,4.5z" class="st1"/>
   </g>
   <g id="svg_36">
    <path id="svg_37" fill="#EEF2F4" d="m205.1,952.9c0,-0.7 0.5,-1.2 1.2,-1.2c0.7,0 1.2,0.5 1.2,1.2c0,0.7 -0.5,1.2 -1.2,1.2c-0.7,0 -1.2,-0.5 -1.2,-1.2zm0.2,2.5l1.9,0l0,8.9l-1.9,0l0,-8.9z" class="st1"/>
    <path id="svg_38" fill="#EEF2F4" d="m218.3,956c0,2.3 -1.8,4.1 -4.1,4.1l-2.5,0l0,4.2l-2,0l0,-12.4l4.6,0c2.2,0 4,1.8 4,4.1zm-2.1,0c0,-1.3 -0.9,-2.2 -2.1,-2.2l-2.5,0l0,4.3l2.5,0c1.2,0 2.1,-0.9 2.1,-2.1z" class="st1"/>
    <path id="svg_39" fill="#EEF2F4" d="m218.8,959.9c0,-2.6 2.1,-4.7 4.7,-4.7c2.6,0 4.7,2 4.7,4.7c0,2.6 -2.1,4.7 -4.7,4.7c-2.6,-0.1 -4.7,-2.1 -4.7,-4.7zm7.4,0c0,-1.6 -1.2,-2.8 -2.8,-2.8s-2.8,1.2 -2.8,2.8c0,1.6 1.2,2.8 2.8,2.8s2.8,-1.2 2.8,-2.8z" class="st1"/>
    <path id="svg_40" fill="#EEF2F4" d="m238.8,951.9l0,12.4l-1.9,0l0,-1.3c-0.7,0.9 -1.7,1.5 -3.1,1.5c-2.4,0 -4.4,-2 -4.4,-4.7c0,-2.6 2,-4.7 4.4,-4.7c1.4,0 2.4,0.6 3.1,1.5l0,-4.8l1.9,0l0,0.1zm-1.9,8c0,-1.6 -1.2,-2.8 -2.8,-2.8c-1.6,0 -2.8,1.2 -2.8,2.8c0,1.6 1.2,2.8 2.8,2.8c1.6,0 2.8,-1.2 2.8,-2.8z" class="st1"/>
   </g>
   <g id="svg_41">
    <g id="svg_42">
     <path id="svg_43" fill="#EEF2F4" d="m855.2,951.7c-0.7,0 -1.2,0.5 -1.2,1.2c0,0.7 0.5,1.2 1.2,1.2c0.7,0 1.2,-0.6 1.2,-1.2c0.1,-0.7 -0.5,-1.2 -1.2,-1.2z" class="st1"/>
     <path id="svg_44" fill="#EEF2F4" d="m854.9,934.7c-2.2,0 -3.9,1.8 -3.9,4c0,2.2 1.7,4 3.9,4c2.2,0 4,-1.8 4,-4c-0.1,-2.2 -1.8,-4 -4,-4zm0,7c-1.7,0 -2.9,-1.3 -2.9,-3c0,-1.7 1.3,-3 2.9,-3c1.7,0 2.9,1.3 2.9,3c0,1.7 -1.2,3 -2.9,3z" class="st1"/>
     <polygon id="svg_45" fill="#EEF2F4" points="841.3,936.6 843.8,940.7 843.9,940.7 846.4,936.6 846.4,942.5 847.4,942.5 847.4,934.9 846.3,934.9      843.9,938.9 841.4,934.9 840.3,934.9 840.3,942.5 841.3,942.5    " class="st1"/>
     <polygon id="svg_46" fill="#EEF2F4" points="875.9,941.6 872.3,941.6 872.3,939.1 875.5,939.1 875.5,938.2 872.3,938.2 872.3,935.8 875.8,935.8      875.8,934.9 871.3,934.9 871.3,942.5 875.9,942.5    " class="st1"/>
     <polygon id="svg_47" fill="#EEF2F4" points="844.2,962.2 841.8,955.4 839.7,955.4 843.1,964.3 845.3,964.3 848.8,955.4 846.7,955.4    " class="st1"/>
     <path id="svg_48" fill="#EEF2F4" d="m854.3,964.7c0,1.2 -0.5,1.7 -1.7,1.6l0,1.8c2.4,0.2 3.6,-1 3.6,-3.4l0,-9.2l-1.9,0l0,9.2z" class="st1"/>
     <path id="svg_49" fill="#EEF2F4" d="m851,951.7c-0.7,0 -1.2,0.5 -1.2,1.2c0,0.7 0.5,1.2 1.2,1.2c0.7,0 1.2,-0.6 1.2,-1.2c0,-0.7 -0.6,-1.2 -1.2,-1.2z" class="st1"/>
     <rect id="svg_50" fill="#EEF2F4" height="8.9" width="1.9" class="st1" y="955.4" x="850"/>
     <path id="svg_51" fill="#EEF2F4" d="m873.3,961.9l-2.6,-6.4l-2.1,0l3.8,8.7l-0.1,0.2c-0.4,1.2 -1.1,1.8 -2.4,1.7l0,1.8c2,0.1 3.5,-1 4.3,-3.3l3.4,-9.1l-2,0l-2.3,6.4z" class="st1"/>
     <path id="svg_52" fill="#EEF2F4" d="m865.4,956.7c-0.7,-0.9 -1.7,-1.5 -3.1,-1.5c-2.4,0 -4.4,2 -4.4,4.7c0,2.6 2,4.7 4.4,4.7c1.4,0 2.4,-0.6 3.1,-1.5l0,1.3l1.9,0l0,-8.9l-1.9,0l0,1.2zm-2.8,6c-1.6,0 -2.8,-1.2 -2.8,-2.8c0,-1.6 1.2,-2.8 2.8,-2.8c1.6,0 2.8,1.2 2.8,2.8c0,1.6 -1.2,2.8 -2.8,2.8z" class="st1"/>
     <path id="svg_53" fill="#EEF2F4" d="m927.2,956.7c-0.7,-0.9 -1.7,-1.5 -3.1,-1.5c-2.4,0 -4.4,2 -4.4,4.7c0,2.6 2,4.7 4.4,4.7c1.4,0 2.4,-0.6 3.1,-1.5l0,1.3l1.9,0l0,-8.9l-1.9,0l0,1.2zm-2.8,6c-1.6,0 -2.8,-1.2 -2.8,-2.8c0,-1.6 1.2,-2.8 2.8,-2.8c1.6,0 2.8,1.2 2.8,2.8c0,1.6 -1.2,2.8 -2.8,2.8z" class="st1"/>
     <path id="svg_54" fill="#EEF2F4" d="m914.8,955.2c-1.2,0 -2.1,0.5 -2.7,1.4c-0.5,-0.9 -1.4,-1.4 -2.5,-1.4c-1.1,0 -2,0.4 -2.5,1.3l0,-1.1l-1.9,0l0,8.9l1.9,0l0,-5c0,-1.6 0.9,-2.3 2,-2.3c1,0 1.7,0.7 1.7,1.9l0,5.4l1.9,0l0,-5c0,-1.6 0.8,-2.3 1.9,-2.3c1,0 1.7,0.7 1.7,1.9l0,5.4l1.9,0l0,-5.5c-0.1,-2.2 -1.4,-3.6 -3.4,-3.6z" class="st1"/>
     <path id="svg_55" fill="#EEF2F4" d="m948.7,955.2c-2.6,0 -4.7,2 -4.7,4.7c0,2.6 2.1,4.7 4.7,4.7c2.6,0 4.7,-2 4.7,-4.7c0,-2.7 -2.1,-4.7 -4.7,-4.7zm0,7.5c-1.6,0 -2.8,-1.2 -2.8,-2.8c0,-1.6 1.2,-2.8 2.8,-2.8s2.8,1.2 2.8,2.8c0,1.6 -1.2,2.8 -2.8,2.8z" class="st1"/>
     <path id="svg_56" fill="#EEF2F4" d="m939.3,962.6c-1.6,0 -2.7,-1.2 -2.7,-2.8c0,-1.6 1.2,-2.8 2.7,-2.8c1.1,0 1.9,0.5 2.3,1.4l1.6,-1c-0.7,-1.4 -2.2,-2.3 -3.9,-2.3c-2.7,0 -4.7,2 -4.7,4.7c0,2.6 2,4.7 4.7,4.7c1.7,0 3.2,-0.9 4,-2.3l-1.6,-0.9c-0.5,0.8 -1.4,1.3 -2.4,1.3z" class="st1"/>
     <circle id="svg_57" fill="#EEF2F4" r="1.3" cy="963.2" cx="932.5" class="st1"/>
     <path id="svg_58" fill="#EEF2F4" d="m867.8,937.2c0,-1.3 -1.1,-2.4 -2.4,-2.4l-3,0l0,7.6l1,0l0,-2.9l1.8,0l1.7,2.9l1.1,0l-1.8,-3.1c0.9,-0.2 1.6,-1.1 1.6,-2.1zm-4.4,1.5l0,-2.8l2,0c0.8,0 1.4,0.6 1.4,1.4c0,0.8 -0.6,1.4 -1.4,1.4l-2,0z" class="st1"/>
     <path id="svg_59" fill="#EEF2F4" d="m900.9,956.9l0,-1.5l-1.9,0l0,8.9l1.9,0l0,-4.5c0,-2 1.5,-2.6 2.7,-2.5l0,-2.1c-1,0.1 -2.1,0.5 -2.7,1.7z" class="st1"/>
     <polygon id="svg_60" fill="#EEF2F4" points="882.3,962.2 879.9,955.4 877.8,955.4 881.2,964.3 883.4,964.3 886.9,955.4 884.8,955.4    " class="st1"/>
     <path id="svg_61" fill="#EEF2F4" d="m892.9,955.2c-2.8,0 -4.7,2 -4.7,4.7c0,2.7 1.9,4.7 4.8,4.7c1.7,0 3.1,-0.7 3.9,-1.9l-1.6,-0.9c-0.4,0.6 -1.2,1.1 -2.3,1.1c-1.4,0 -2.5,-0.7 -2.8,-2.1l7,0c0,-0.2 0.1,-0.5 0.1,-0.8c0.1,-2.7 -1.8,-4.8 -4.4,-4.8zm-2.7,3.9c0.3,-1.3 1.2,-2.2 2.7,-2.2c1.2,0 2.3,0.7 2.5,2.2l-5.2,0z" class="st1"/>
    </g>
   </g>
  </g>
  <path opacity="0.23" d="m782.2,496.1c0,-9.3 7.6,-16.9 16.9,-16.9l2.3,0l0,-41.6l-17.2,0c-15.3,0 -27.7,12.4 -27.7,27.7l0,55.5c0,2.3 1.9,4.2 4.2,4.2l17.5,0c2.3,0 4.2,-1.9 4.2,-4.2l0,-24.7l-0.2,0z" class="st2" id="XMLID_106_"/>
  <rect opacity="0.23" height="27.5" width="13.3" class="st2" y="445.5" x="801.4" id="XMLID_105_"/>
  <path opacity="0.23" d="m826.7,486.9l-6.1,0c-3.3,0 -6,-2.7 -6,-6l0,-43.4c0,-3.3 2.7,-6 6,-6l6.1,0c13.1,0 23.7,10.6 23.7,23.7l0,7.9c0,13.2 -10.6,23.8 -23.7,23.8z" class="st2" id="XMLID_104_"/>
  <path opacity="0.21" d="m559.2,863.2c0,9.3 7.6,16.9 16.9,16.9l2.3,0l0,41.6l-17.2,0c-15.3,0 -27.7,-12.4 -27.7,-27.7l0,-55.5c0,-2.3 1.9,-4.2 4.2,-4.2l17.5,0c2.3,0 4.2,1.9 4.2,4.2l0,24.7l-0.2,0z" class="st3" id="XMLID_103_"/>
  <rect opacity="0.21" height="27.5" width="13.3" class="st3" y="886.3" x="578.4" id="XMLID_102_"/>
  <path opacity="0.21" d="m603.7,872.4l-6.1,0c-3.3,0 -6,2.7 -6,6l0,43.4c0,3.3 2.7,6 6,6l6.1,0c13.1,0 23.7,-10.6 23.7,-23.7l0,-7.9c0,-13.2 -10.6,-23.8 -23.7,-23.8z" class="st3" id="XMLID_101_"/>
  <g opacity="0.23" class="st2" id="XMLID_99_">
   <path d="m549,841l-6,0l0,-78.7c0,-31.6 25.7,-57.3 57.3,-57.3c13.7,0 26.6,-5.4 36.3,-15.1c9.7,-9.7 15,-22.6 15,-36.4l-0.1,-36.8l6,0l0.1,36.8c0,15.3 -5.9,29.8 -16.8,40.6c-10.7,10.9 -25.1,16.9 -40.5,16.9c-28.3,0 -51.3,23 -51.3,51.3l0,78.7z" id="XMLID_100_"/>
  </g>
  <g opacity="0.23" class="st2" id="XMLID_97_">
   <path d="m712.5,696.4c-33.4,0 -60.5,-27.1 -60.5,-60.5l0,-18.5c0,-1.7 1.3,-3 3,-3s3,1.3 3,3l0,18.5c0,30.1 24.4,54.5 54.5,54.5s54.5,-24.4 54.5,-54.5l0,-111.5c0,-1.7 1.3,-3 3,-3s3,1.3 3,3l0,111.5c0,33.3 -27.1,60.5 -60.5,60.5z" id="XMLID_98_"/>
  </g>
  <g id="XMLID_94_">
   <path fill="#EEF2F4" d="m549,830l-6,0l0,-78.7c0,-31.6 25.7,-57.3 57.3,-57.3c13.7,0 26.6,-5.4 36.3,-15.1c9.7,-9.7 15,-22.6 15,-36.4l-0.1,-59.8l6,0l0.1,59.8c0,15.3 -5.9,29.8 -16.8,40.6c-10.7,10.9 -25.1,16.9 -40.5,16.9c-28.3,0 -51.3,23 -51.3,51.3l0,78.7z" class="st1" id="XMLID_95_"/>
  </g>
  <g id="XMLID_71_">
   <path stroke-miterlimit="10" stroke-linejoin="round" stroke-linecap="round" stroke-width="3" stroke="#4C005F" fill="none" d="m549,830l-6,0l0,-78.7c0,-31.6 25.7,-57.3 57.3,-57.3c13.7,0 26.6,-5.4 36.3,-15.1c9.7,-9.7 15,-22.6 15,-36.4l-0.1,-59.8l6,0l0.1,59.8c0,15.3 -5.9,29.8 -16.8,40.6c-10.7,10.9 -25.1,16.9 -40.5,16.9c-28.3,0 -51.3,23 -51.3,51.3l0,78.7z" class="st4" id="XMLID_96_"/>
  </g>
  <g id="XMLID_83_">
   <path fill="#EEF2F4" d="m712.5,685c-33.4,0 -60.5,-27.1 -60.5,-60.5l0,-41.5c0,-1.7 1.3,-3 3,-3s3,1.3 3,3l0,41.5c0,30.1 24.4,54.5 54.5,54.5s54.5,-24.4 54.5,-54.5l0,-111.5c0,-1.7 1.3,-3 3,-3s3,1.3 3,3l0,111.5c0,33.4 -27.1,60.5 -60.5,60.5z" class="st1" id="XMLID_93_"/>
  </g>
  <g id="XMLID_75_">
   <path stroke-miterlimit="10" stroke-linejoin="round" stroke-linecap="round" stroke-width="3" stroke="#4C005F" fill="none" d="m712.5,685c-33.4,0 -60.5,-27.1 -60.5,-60.5l0,-41.5c0,-1.7 1.3,-3 3,-3s3,1.3 3,3l0,41.5c0,30.1 24.4,54.5 54.5,54.5s54.5,-24.4 54.5,-54.5l0,-111.5c0,-1.7 1.3,-3 3,-3s3,1.3 3,3l0,111.5c0,33.4 -27.1,60.5 -60.5,60.5z" class="st4" id="XMLID_92_"/>
  </g>
  <path stroke-miterlimit="10" stroke-linejoin="round" stroke-linecap="round" stroke-width="3" stroke="#4C005F" fill="none" d="m562.7,193.6" class="st4" id="XMLID_55_"/>
  <g opacity="0.23" class="st2" id="XMLID_63_">
   <path d="m654.7,548.3c-1.7,0 -3,-1.3 -3,-3l0,-295.3c0,-24.1 -19.6,-43.7 -43.7,-43.7c-24.1,0 -43.7,19.6 -43.7,43.7l0,104.4c0,27 -22,49 -49,49l-1.3,0c-13.1,0 -25.4,-5.1 -34.6,-14.3s-14.4,-21.7 -14.4,-34.8l0,-162.3c0,-24.1 -19.6,-43.7 -43.7,-43.7s-43.7,19.6 -43.7,43.7l0,208.3c0,1.7 -1.3,3 -3,3s-3,-1.3 -3,-3l0,-208.3c0,-27.4 22.3,-49.7 49.7,-49.7c27.4,0 49.7,22.3 49.7,49.7l0,162.4c0,11.5 4.5,22.3 12.6,30.4s18.9,12.6 30.4,12.6l1.4,0c23.7,0 43,-19.3 43,-43l0,-104.4c0,-27.4 22.3,-49.7 49.7,-49.7c27.4,0 49.7,22.3 49.7,49.7l0,295.3c-0.1,1.6 -1.4,3 -3.1,3z" id="XMLID_65_"/>
  </g>
  <g id="XMLID_59_">
   <path fill="#EEF2F4" d="m655,537.6c-1.7,0 -3,-1.3 -3,-3l0,-295.3c0,-24.1 -19.6,-43.7 -43.7,-43.7c-24.1,0 -43.7,19.6 -43.7,43.7l0,104.4c0,27 -22,49 -49,49l-1.4,0c-13.1,0 -25.4,-5.1 -34.6,-14.3s-14.3,-21.5 -14.3,-34.6l0,-162.5c0,-24.1 -19.6,-43.7 -43.7,-43.7s-43.6,19.6 -43.6,43.7l0,208.3c0,1.7 -1.3,3 -3,3s-3,-1.3 -3,-3l0,-208.3c0,-27.4 22.3,-49.7 49.7,-49.7c27.4,0 49.7,22.3 49.7,49.7l0,162.4c0,11.5 4.5,22.3 12.6,30.4s18.9,12.6 30.4,12.6l1.4,0c23.7,0 43,-19.3 43,-43l0,-104.4c0,-27.4 22.3,-49.7 49.7,-49.7c27.4,0 49.7,22.3 49.7,49.7l0,295.3c-0.2,1.7 -1.5,3 -3.2,3z" class="st1" id="XMLID_64_"/>
  </g>
  <g id="XMLID_62_">
   <path stroke-miterlimit="10" stroke-linejoin="round" stroke-linecap="round" stroke-width="3" stroke="#4C005F" fill="none" d="m655,537.6c-1.7,0 -3,-1.3 -3,-3l0,-295.3c0,-24.1 -19.6,-43.7 -43.7,-43.7c-24.1,0 -43.7,19.6 -43.7,43.7l0,104.4c0,27 -22,49 -49,49l-1.4,0c-13.1,0 -25.4,-5.1 -34.6,-14.3s-14.3,-21.5 -14.3,-34.6l0,-162.5c0,-24.1 -19.6,-43.7 -43.7,-43.7s-43.6,19.6 -43.6,43.7l0,208.3c0,1.7 -1.3,3 -3,3s-3,-1.3 -3,-3l0,-208.3c0,-27.4 22.3,-49.7 49.7,-49.7c27.4,0 49.7,22.3 49.7,49.7l0,162.4c0,11.5 4.5,22.3 12.6,30.4s18.9,12.6 30.4,12.6l1.4,0c23.7,0 43,-19.3 43,-43l0,-104.4c0,-27.4 22.3,-49.7 49.7,-49.7c27.4,0 49.7,22.3 49.7,49.7l0,295.3c-0.2,1.7 -1.5,3 -3.2,3z" class="st4" id="XMLID_68_"/>
  </g>
  <rect opacity="0.23" height="32.3" width="24.4" class="st2" y="386.3" x="369.4" id="XMLID_58_"/>
  <rect fill="#FDE1FF" height="32.3" width="24.4" class="st5" y="382.3" x="362.9" id="XMLID_31_"/>
  <rect fill="#FFFFFF" height="13" width="24.4" class="st6" y="382.3" x="362.9" id="XMLID_52_"/>
  <rect stroke-miterlimit="10" stroke-linejoin="round" stroke-linecap="round" stroke-width="3" stroke="#4C005F" fill="none" height="13" width="24.4" class="st4" y="382.3" x="362.9" id="XMLID_53_"/>
  <rect stroke-miterlimit="10" stroke-linejoin="round" stroke-linecap="round" stroke-width="6" stroke="#4C005F" fill="none" height="32.3" width="24.4" class="st7" y="382.3" x="362.9" id="XMLID_29_"/>
  <path opacity="0.23" d="m414.7,760.6l-176.8,0c-11.1,0 -20.1,-9 -20.1,-20.1l0,-285.5c0,-11.1 9,-20.1 20.1,-20.1l176.8,0c11.1,0 20.1,9 20.1,20.1l0,285.4c0,11.2 -9,20.2 -20.1,20.2z" class="st2" id="XMLID_11_"/>
  <path fill="#EEF2F4" d="m409,739.9l-176.7,0c-11.1,0 -20.1,-9 -20.1,-20.1l0,-285.4c0,-11.1 9,-20.1 20.1,-20.1l176.7,0c11.1,0 20.1,9 20.1,20.1l0,285.4c0,11.1 -9,20.1 -20.1,20.1z" class="st1" id="XMLID_33_"/>
  <path fill="#EEF2F4" d="m409,739.9l-176.7,0c-11.1,0 -20.1,-9 -20.1,-20.1l0,-285.4c0,-11.1 9,-20.1 20.1,-20.1l176.7,0c11.1,0 20.1,9 20.1,20.1l0,285.4c0,11.1 -9,20.1 -20.1,20.1z" class="st1" id="XMLID_17_"/>
  <g opacity="0.76" class="st8" id="XMLID_20_">
   <g id="XMLID_56_">
    <path fill="#FFFFFF" d="m221.8,719.8l0,-285.4c0,-11.1 9,-20.1 20.1,-20.1l-9.7,0c-11.1,0 -20.1,9 -20.1,20.1l0,285.4c0,11.1 9,20.1 20.1,20.1l9.7,0c-11.1,0 -20.1,-9 -20.1,-20.1z" class="st6" id="XMLID_57_"/>
   </g>
  </g>
  <g opacity="0.1" class="st9" id="XMLID_18_">
   <g id="XMLID_119_">
    <path d="m419.4,719.8l0,-285.4c0,-11.1 -9,-20.1 -20.1,-20.1l9.7,0c11.1,0 20.1,9 20.1,20.1l0,285.4c0,11.1 -9,20.1 -20.1,20.1l-9.7,0c11.1,0 20.1,-9 20.1,-20.1z" id="XMLID_120_"/>
   </g>
  </g>
  <g opacity="0.04" class="st10" id="XMLID_22_">
   <path d="m409,726.9l-176.7,0c-11.1,0 -20.1,-9 -20.1,-20.1l0,13c0,11.1 9,20.1 20.1,20.1l176.7,0c11.1,0 20.1,-9 20.1,-20.1l0,-13c0,11.1 -9,20.1 -20.1,20.1z" id="XMLID_32_"/>
  </g>
  <g opacity="0.38" class="st11" id="XMLID_19_">
   <path fill="#FFFFFF" d="m409,427.3l-176.7,0c-11.1,0 -20.1,9 -20.1,20.1l0,-13c0,-11.1 9,-20.1 20.1,-20.1l176.7,0c11.1,0 20.1,9 20.1,20.1l0,13c0,-11.1 -9,-20.1 -20.1,-20.1z" class="st6" id="XMLID_21_"/>
  </g>
  <path stroke-miterlimit="10" stroke-width="6" stroke="#4C005F" fill="none" d="m409,739.9l-176.7,0c-11.1,0 -20.1,-9 -20.1,-20.1l0,-285.4c0,-11.1 9,-20.1 20.1,-20.1l176.7,0c11.1,0 20.1,9 20.1,20.1l0,285.4c0,11.1 -9,20.1 -20.1,20.1z" class="st12" id="XMLID_2_"/>
  <path fill="#B296A3" d="m381.9,558.6l-122.5,0c-6.8,0 -12.4,-5.5 -12.4,-12.4l0,-80.7c0,-6.8 5.5,-12.4 12.4,-12.4l122.5,0c6.8,0 12.4,5.5 12.4,12.4l0,80.7c-0.1,6.9 -5.6,12.4 -12.4,12.4z" class="st13" id="XMLID_3_"/>
  <polygon fill="#EEF2F4" opacity="0.2" points="247,501.2 295,453 289,453 247,495.2 " class="st14" id="XMLID_8_"/>
  <polygon fill="#EEF2F4" opacity="0.2" points="247,518.3 312.2,453 301.9,453 247,508.1 " class="st14" id="XMLID_9_"/>
  <path stroke-miterlimit="10" stroke-width="3" stroke="#4C005F" fill="none" d="m381.9,558.6l-122.5,0c-6.8,0 -12.4,-5.5 -12.4,-12.4l0,-80.7c0,-6.8 5.5,-12.4 12.4,-12.4l122.5,0c6.8,0 12.4,5.5 12.4,12.4l0,80.7c-0.1,6.9 -5.6,12.4 -12.4,12.4z" class="st15" id="XMLID_1_"/>
  <path fill="#EEF2F4" d="m559.2,850.2c0,9.3 7.6,16.9 16.9,16.9l2.3,0l0,41.6l-17.2,0c-15.3,0 -27.7,-12.4 -27.7,-27.7l0,-55.5c0,-2.3 1.9,-4.2 4.2,-4.2l17.5,0c2.3,0 4.2,1.9 4.2,4.2l0,24.7l-0.2,0z" class="st1" id="XMLID_77_"/>
  <path opacity="0.1" d="m576.1,866.9c-9.4,0 -17.1,-7.7 -17.1,-17.1l0,-25c0,-2.2 -1.8,-3.9 -3.9,-3.9l-3.1,0l0,8l0,27.6c0,6.6 3.6,12.4 8.9,15.5c6.2,3.6 10.1,10.1 10.1,17.2l0,19.6l7,0l0,-42l-1.9,0l0,0.1z" class="st9" id="XMLID_84_"/>
  <path stroke-miterlimit="10" stroke-linejoin="round" stroke-linecap="round" stroke-width="6" stroke="#4C005F" fill="none" d="m559.2,850.2c0,9.3 7.6,16.9 16.9,16.9l2.3,0l0,41.6l-17.2,0c-15.3,0 -27.7,-12.4 -27.7,-27.7l0,-55.5c0,-2.3 1.9,-4.2 4.2,-4.2l17.5,0c2.3,0 4.2,1.9 4.2,4.2l0,24.7l-0.2,0z" class="st7" id="XMLID_74_"/>
  <rect fill="#D6DADC" height="27.5" width="13.3" class="st16" y="873.3" x="578.4" id="XMLID_81_"/>
  <rect stroke-miterlimit="10" stroke-linejoin="round" stroke-linecap="round" stroke-width="6" stroke="#4C005F" fill="none" height="27.5" width="13.3" class="st7" y="873.3" x="578.4" id="XMLID_73_"/>
  <path stroke-miterlimit="10" stroke-linejoin="round" stroke-linecap="round" stroke-width="6" stroke="#4C005F" fill="none" d="m603.7,859.4l-6.1,0c-3.3,0 -6,2.7 -6,6l0,43.4c0,3.3 2.7,6 6,6l6.1,0c13.1,0 23.7,-10.6 23.7,-23.7l0,-7.9c0,-13.2 -10.6,-23.8 -23.7,-23.8z" class="st7" id="XMLID_72_"/>
  <path fill="#4C005F" d="m603.7,859.4l-6.1,0c-3.3,0 -6,2.7 -6,6l0,43.4c0,3.3 2.7,6 6,6l6.1,0c13.1,0 23.7,-10.6 23.7,-23.7l0,-7.9c0,-13.2 -10.6,-23.8 -23.7,-23.8z" class="st17" id="XMLID_79_"/>
  <path fill="#EEF2F4" d="m559.2,850.2c0,9.3 7.6,16.9 16.9,16.9l2.3,0l0,41.6l-17.2,0c-15.3,0 -27.7,-12.4 -27.7,-27.7l0,-55.5c0,-2.3 1.9,-4.2 4.2,-4.2l17.5,0c2.3,0 4.2,1.9 4.2,4.2l0,24.7l-0.2,0z" class="st1" id="XMLID_82_"/>
  <path opacity="0.1" d="m576.1,866.9c-9.4,0 -17.1,-7.7 -17.1,-17.1l0,-25c0,-2.2 -1.8,-3.9 -3.9,-3.9l-3.1,0l0,8l0,27.6c0,6.6 3.6,12.4 8.9,15.5c6.2,3.6 10.1,10.1 10.1,17.2l0,19.6l7,0l0,-42l-1.9,0l0,0.1z" class="st9" id="XMLID_80_"/>
  <path stroke-miterlimit="10" stroke-linejoin="round" stroke-linecap="round" stroke-width="6" stroke="#4C005F" fill="none" d="m559.2,850.2c0,9.3 7.6,16.9 16.9,16.9l2.3,0l0,41.6l-17.2,0c-15.3,0 -27.7,-12.4 -27.7,-27.7l0,-55.5c0,-2.3 1.9,-4.2 4.2,-4.2l17.5,0c2.3,0 4.2,1.9 4.2,4.2l0,24.7l-0.2,0z" class="st7" id="XMLID_78_"/>
  <rect fill="#D6DADC" height="27.5" width="13.3" class="st16" y="873.3" x="578.4" id="XMLID_76_"/>
  <rect stroke-miterlimit="10" stroke-linejoin="round" stroke-linecap="round" stroke-width="6" stroke="#4C005F" fill="none" height="27.5" width="13.3" class="st7" y="873.3" x="578.4" id="XMLID_26_"/>
  <path stroke-miterlimit="10" stroke-linejoin="round" stroke-linecap="round" stroke-width="6" stroke="#4C005F" fill="none" d="m603.7,859.4l-6.1,0c-3.3,0 -6,2.7 -6,6l0,43.4c0,3.3 2.7,6 6,6l6.1,0c13.1,0 23.7,-10.6 23.7,-23.7l0,-7.9c0,-13.2 -10.6,-23.8 -23.7,-23.8z" class="st7" id="XMLID_25_"/>
  <path fill="#4C005F" d="m603.7,859.4l-6.1,0c-3.3,0 -6,2.7 -6,6l0,43.4c0,3.3 2.7,6 6,6l6.1,0c13.1,0 23.7,-10.6 23.7,-23.7l0,-7.9c0,-13.2 -10.6,-23.8 -23.7,-23.8z" class="st17" id="XMLID_24_"/>
  <path fill="#EEF2F4" d="m782.2,484.1c0,-9.3 7.6,-16.9 16.9,-16.9l2.3,0l0,-41.6l-17.2,0c-15.3,0 -27.7,12.4 -27.7,27.7l0,55.5c0,2.3 1.9,4.2 4.2,4.2l17.5,0c2.3,0 4.2,-1.9 4.2,-4.2l0,-24.7l-0.2,0z" class="st1" id="XMLID_91_"/>
  <g opacity="0.1" class="st9" id="XMLID_108_">
   <path d="m776,487.7l0,23.3l2.1,0c2.3,0 3.9,-1.9 3.9,-4.2l0,-24.7c0,-3.3 0.9,-6.4 2.6,-9c-5.1,2.9 -8.6,8.3 -8.6,14.6z" id="XMLID_109_"/>
   <path d="m784.2,426c-8.9,0 -16.8,3.9 -21.9,10.4c4.5,-3.2 10,-5.4 16,-5.4l0,0c9.2,0 16.7,7.5 16.7,16.7l0,19.9c2,-0.3 2.9,-0.6 4.1,-0.6l1.9,0l0,-41l-16.8,0z" id="XMLID_110_"/>
  </g>
  <path stroke-miterlimit="10" stroke-linejoin="round" stroke-linecap="round" stroke-width="6" stroke="#4C005F" fill="none" d="m782.2,484.1c0,-9.3 7.6,-16.9 16.9,-16.9l2.3,0l0,-41.6l-17.2,0c-15.3,0 -27.7,12.4 -27.7,27.7l0,55.5c0,2.3 1.9,4.2 4.2,4.2l17.5,0c2.3,0 4.2,-1.9 4.2,-4.2l0,-24.7l-0.2,0z" class="st7" id="XMLID_89_"/>
  <rect fill="#D6DADC" height="27.5" width="13.3" class="st16" y="433.5" x="801.4" id="XMLID_88_"/>
  <rect stroke-miterlimit="10" stroke-linejoin="round" stroke-linecap="round" stroke-width="6" stroke="#4C005F" fill="none" height="27.5" width="13.3" class="st7" y="433.5" x="801.4" id="XMLID_87_"/>
  <path stroke-miterlimit="10" stroke-linejoin="round" stroke-linecap="round" stroke-width="6" stroke="#4C005F" fill="none" d="m826.7,474.9l-6.1,0c-3.3,0 -6,-2.7 -6,-6l0,-43.4c0,-3.3 2.7,-6 6,-6l6.1,0c13.1,0 23.7,10.6 23.7,23.7l0,7.9c0,13.2 -10.6,23.8 -23.7,23.8z" class="st7" id="XMLID_86_"/>
  <path fill="#4C005F" d="m826.7,474.9l-6.1,0c-3.3,0 -6,-2.7 -6,-6l0,-43.4c0,-3.3 2.7,-6 6,-6l6.1,0c13.1,0 23.7,10.6 23.7,23.7l0,7.9c0,13.2 -10.6,23.8 -23.7,23.8z" class="st17" id="XMLID_85_"/>
  <circle fill="#D7F0F4" r="55" cy="641.8" cx="320.8" class="st18" id="XMLID_48_"/>
  <path fill="#EEF2F4" opacity="0.63" d="m320.8,596.8c28.7,0 52.2,22 54.8,50c0.1,-1.6 0.2,-3.3 0.2,-5c0,-30.4 -24.6,-55 -55,-55s-55,24.6 -55,55c0,1.7 0.1,3.4 0.2,5c2.6,-28.1 26.2,-50 54.8,-50z" class="st19" id="XMLID_30_"/>
  <circle fill="#EEF2F4" r="17" cy="641.8" cx="320.8" class="st1" id="XMLID_50_"/>
  <circle stroke-miterlimit="10" stroke-width="3" stroke="#4C005F" fill="none" r="55" cy="641.8" cx="320.8" class="st15" id="XMLID_4_"/>
  <path fill="#DBDCDD" d="m320.8,624.8c-9.4,0 -17,7.6 -17,17c0,4.9 2.1,9.3 5.4,12.4c0,-0.1 0,-0.2 0,-0.4c0,-6.4 5.2,-11.7 11.7,-11.7s11.7,5.2 11.7,11.7c0,0.1 0,0.2 0,0.4c3.3,-3.1 5.4,-7.5 5.4,-12.4c-0.2,-9.4 -7.8,-17 -17.2,-17z" class="st20" id="XMLID_12_"/>
  <circle stroke-miterlimit="10" stroke-width="3" stroke="#4C005F" fill="none" r="17" cy="641.8" cx="320.8" class="st15" id="XMLID_5_"/>
  <g id="XMLID_6_">
   <path fill="#4C005F" d="m312.7,610.4l0,-4l-1.5,4l-0.7,0l-1.5,-4l0,4l-1.6,0l0,-6.1l2.2,0l1.3,3.4l1.3,-3.4l2.2,0l0,6.1l-1.7,0z" class="st17" id="XMLID_10_"/>
   <path fill="#4C005F" d="m315.3,610.4l0,-6.1l4.5,0l0,1.4l-2.9,0l0,0.9l2.8,0l0,1.4l-2.8,0l0,1l2.9,0l0,1.4l-4.5,0z" class="st17" id="XMLID_14_"/>
   <path fill="#4C005F" d="m324.8,610.4l-2.6,-3.5l0,3.5l-1.6,0l0,-6.1l1.6,0l2.5,3.3l0,-3.3l1.6,0l0,6.1l-1.5,0z" class="st17" id="XMLID_34_"/>
   <path fill="#4C005F" d="m327.4,607.9l0,-3.6l1.6,0l0,3.6c0,0.7 0.4,1.2 1.3,1.2c0.8,0 1.3,-0.5 1.3,-1.2l0,-3.6l1.6,0l0,3.6c0,1.5 -0.9,2.6 -2.9,2.6c-1.9,0 -2.9,-1.1 -2.9,-2.6z" class="st17" id="XMLID_36_"/>
  </g>
  <g id="XMLID_40_">
   <polygon fill="#4C005F" points="353,637.8 359.1,641.3 353,644.8  " class="st17" id="XMLID_7_"/>
   <polygon fill="#4C005F" points="347,637.8 353.1,641.3 347,644.8  " class="st17" id="XMLID_39_"/>
   <rect fill="#4C005F" height="1.3" width="6.7" class="st17" transform="matrix(4.498250e-11 1 -1 4.498250e-11 1001.5593 281.8217)" y="641.1" x="356.5" id="XMLID_38_"/>
  </g>
  <g id="XMLID_41_">
   <polygon fill="#4C005F" points="316,673.8 322.1,677.3 316,680.8  " class="st17" id="XMLID_47_"/>
   <rect fill="#4C005F" height="1.3" width="6.7" class="st17" transform="matrix(4.498250e-11 1 -1 4.498250e-11 1000.1514 354.8828)" y="676.9" x="319.3" id="XMLID_46_"/>
   <rect fill="#4C005F" height="1.3" width="6.7" class="st17" transform="matrix(4.498250e-11 1 -1 4.498250e-11 1002.392 352.6423)" y="676.9" x="321.5" id="XMLID_49_"/>
  </g>
  <g id="XMLID_42_">
   <polygon fill="#4C005F" points="288,637.8 281.9,641.3 288,644.8  " class="st17" id="XMLID_45_"/>
   <polygon fill="#4C005F" points="294,637.8 287.9,641.3 294,644.8  " class="st17" id="XMLID_44_"/>
   <rect fill="#4C005F" height="1.3" width="6.7" class="st17" transform="matrix(-8.969377e-11 1 -1 -8.969377e-11 923.3157 360.0653)" y="641.1" x="278.3" id="XMLID_43_"/>
  </g>
  <path stroke-miterlimit="10" stroke-linejoin="round" stroke-linecap="round" stroke-width="3" stroke="#4C005F" fill="none" d="m418.5,374" class="st4" id="XMLID_54_"/>
  <rect fill="#EEF2F4" height="50.5" width="14.5" class="st1" y="532" x="647.5" id="XMLID_70_"/>
  <rect stroke-miterlimit="10" stroke-linejoin="round" stroke-linecap="round" stroke-width="3" stroke="#4C005F" fill="none" height="50.5" width="14.5" class="st4" y="532" x="647.5" id="XMLID_69_"/>
  <g id="svg_62"/>
  <g id="svg_63"/>
  <g id="svg_64"/>
  <g id="svg_65"/>
  <g id="svg_66"/>
  <g id="svg_67"/>
  <g id="svg_68"/>
  <g id="svg_69"/>
  <g id="svg_70"/>
  <g id="svg_71"/>
  <g id="svg_72"/>
  <g id="svg_73"/>
  <g id="svg_74"/>
  <g id="svg_75"/>
  <g id="svg_76"/>
 </g>
</svg>