<svg width="1000" height="1000" xmlns="http://www.w3.org/2000/svg" xml:space="preserve" version="1.1">

 <g>
  <title>Layer 1</title>
  <g id="svg_1">
   <g id="svg_2">
    <g id="svg_3">
     <path id="svg_4" fill="#EEF2F4" d="m63.2,959.2c0,2.5 -1.2,3.7 -2.6,3.7c-1.1,0 -1.9,-0.5 -2.1,-1.4c-0.4,0.5 -1,0.8 -1.8,0.8c-1.5,0 -2.6,-1.2 -2.6,-2.8c0,-1.6 1.1,-2.8 2.6,-2.8c0.7,0 1.2,0.3 1.6,0.7l0,-0.5l1.6,0l0,3.9c0,0.8 0.3,1.4 1,1.4c0.9,0 1.7,-0.9 1.7,-3c0,-3 -2.3,-5.3 -5.4,-5.3c-3.1,0 -5.6,2.4 -5.6,5.7c0,3.3 2.5,5.7 5.9,5.7c1.1,0 2.1,-0.2 2.9,-0.4l0,0.6c-0.8,0.3 -1.7,0.4 -2.9,0.4c-3.7,0 -6.5,-2.6 -6.5,-6.2c0,-3.4 2.7,-6.2 6.2,-6.2c3.9,-0.2 6,2.9 6,5.7zm-4.9,0.3c0,-0.8 -0.6,-1.4 -1.3,-1.4c-0.8,0 -1.3,0.5 -1.3,1.4c0,0.8 0.6,1.3 1.3,1.3c0.8,0.1 1.3,-0.5 1.3,-1.3z" class="st1"/>
    </g>
    <g id="svg_5">
     <path id="svg_6" fill="#EEF2F4" d="m69.4,955.1l0,2c-1.2,-0.1 -2.6,0.5 -2.6,2.4l0,4.3l-1.9,0l0,-8.6l1.9,0l0,1.4c0.5,-1.1 1.5,-1.5 2.6,-1.5z" class="st1"/>
    </g>
    <g id="svg_7">
     <path id="svg_8" fill="#EEF2F4" d="m74.6,962.3c1,0 1.8,-0.5 2.2,-1.1l1.5,0.9c-0.8,1.2 -2.1,1.9 -3.8,1.9c-2.8,0 -4.7,-1.9 -4.7,-4.5c0,-2.5 1.8,-4.5 4.5,-4.5c2.6,0 4.3,2.1 4.3,4.5c0,0.3 0,0.5 -0.1,0.8l-6.8,0c0.4,1.3 1.5,2 2.9,2zm2.3,-3.5c-0.3,-1.5 -1.3,-2.1 -2.5,-2.1c-1.4,0 -2.3,0.8 -2.6,2.1l5.1,0z" class="st1"/>
    </g>
    <g id="svg_9">
     <path id="svg_10" fill="#EEF2F4" d="m88.9,955.2l0,8.6l-1.9,0l0,-1.2c-0.7,0.9 -1.7,1.5 -3,1.5c-2.3,0 -4.3,-2 -4.3,-4.5c0,-2.6 1.9,-4.5 4.3,-4.5c1.3,0 2.3,0.5 3,1.4l0,-1.2l1.9,0l0,-0.1zm-1.8,4.3c0,-1.6 -1.2,-2.7 -2.7,-2.7c-1.5,0 -2.7,1.1 -2.7,2.7c0,1.6 1.2,2.7 2.7,2.7c1.5,0.1 2.7,-1.1 2.7,-2.7z" class="st1"/>
    </g>
    <g id="svg_11">
     <path id="svg_12" fill="#EEF2F4" d="m91.1,951.3l1.9,0l0,12.5l-1.9,0l0,-12.5z" class="st1"/>
    </g>
    <g id="svg_13">
     <path id="svg_14" fill="#EEF2F4" d="m102.9,955.2l-3.3,8.6l-2.1,0l-3.3,-8.6l2,0l2.4,6.5l2.4,-6.5l1.9,0z" class="st1"/>
    </g>
    <g id="svg_15">
     <path id="svg_16" fill="#EEF2F4" d="m104.2,955.2l1.9,0l0,8.9c0,2.4 -1.2,3.5 -3.5,3.3l0,-1.8c1.1,0.1 1.7,-0.3 1.7,-1.5l0,-8.9l-0.1,0zm-0.2,-2.4c0,-0.7 0.5,-1.2 1.2,-1.2c0.7,0 1.2,0.5 1.2,1.2c0,0.6 -0.5,1.2 -1.2,1.2c-0.7,0 -1.2,-0.6 -1.2,-1.2z" class="st1"/>
    </g>
    <g id="svg_17">
     <path id="svg_18" fill="#EEF2F4" d="m116,955.2l-3.3,8.8c-0.8,2.2 -2.2,3.3 -4.2,3.2l0,-1.7c1.2,0.1 1.9,-0.5 2.3,-1.7l0.1,-0.2l-3.6,-8.4l2,0l2.6,6.2l2.2,-6.2l1.9,0z" class="st1"/>
    </g>
   </g>
   <g id="svg_19">
    <path id="svg_20" fill="#EEF2F4" d="m211.9,938.7c0,2.1 -1.5,3.8 -3.6,3.8l-3,0l0,-7.6l3,0c2.1,0 3.6,1.7 3.6,3.8zm-1,0c0,-1.6 -1.1,-2.9 -2.6,-2.9l-2,0l0,5.7l2,0c1.5,0.1 2.6,-1.2 2.6,-2.8z" class="st1"/>
    <path id="svg_21" fill="#EEF2F4" d="m219.5,940.8l-3.4,0l-0.6,1.7l-1.1,0l2.8,-7.6l1.1,0l2.8,7.6l-1.1,0l-0.5,-1.7zm-0.3,-0.9l-1.4,-3.8l-1.4,3.8l2.8,0z" class="st1"/>
    <path id="svg_22" fill="#EEF2F4" d="m226.4,939.4l0,3.1l-1,0l0,-3.1l-2.7,-4.5l1.1,0l2.1,3.6l2.1,-3.6l1.1,0l-2.7,4.5z" class="st1"/>
    <path id="svg_23" fill="#EEF2F4" d="m242.6,941.1l-0.9,0l0,1.4l-1,0l0,-1.4l-3.9,0l0,-0.9l2.7,-5.2l1.1,0l-2.7,5.2l2.8,0l0,-2.2l1,0l0,2.2l0.9,0l0,0.9z" class="st1"/>
    <path id="svg_24" fill="#EEF2F4" d="m245.5,941.7l2.7,-2.7c0.6,-0.6 1.1,-1.2 1.1,-1.9c0,-0.9 -0.6,-1.4 -1.4,-1.4c-0.7,0 -1.2,0.3 -1.6,1l-0.8,-0.5c0.5,-1 1.4,-1.5 2.4,-1.5c1.2,0 2.4,0.8 2.4,2.3c0,0.9 -0.6,1.8 -1.4,2.5l-2,1.9l3.5,0l0,1l-4.9,0l0,-0.7z" class="st1"/>
   </g>
   <g id="svg_25">
    <path id="svg_26" fill="#EEF2F4" d="m58.9,938.7c0,2.1 -1.5,3.8 -3.6,3.8l-3,0l0,-7.6l3,0c2.1,0 3.6,1.7 3.6,3.8zm-1,0c0,-1.6 -1.1,-2.9 -2.6,-2.9l-2,0l0,5.7l2,0c1.5,0.1 2.6,-1.2 2.6,-2.8z" class="st1"/>
    <path id="svg_27" fill="#EEF2F4" d="m67,941.6l0,1l-4.6,0l0,-7.6l4.5,0l0,1l-3.5,0l0,2.3l3.2,0l0,0.9l-3.2,0l0,2.4l3.6,0z" class="st1"/>
    <path id="svg_28" fill="#EEF2F4" d="m70,940.8l0.9,-0.5c0.3,0.8 0.9,1.4 2,1.4c1.1,0 1.6,-0.5 1.6,-1.2c0,-0.8 -0.7,-1 -1.8,-1.4c-1.2,-0.4 -2.4,-0.8 -2.4,-2.2c0,-1.4 1.1,-2.2 2.4,-2.2c1.3,0 2.2,0.7 2.6,1.7l-0.8,0.5c-0.3,-0.7 -0.8,-1.2 -1.7,-1.2c-0.8,0 -1.4,0.4 -1.4,1.1c0,0.7 0.5,1 1.6,1.3c1.3,0.4 2.6,0.8 2.6,2.3c0,1.3 -1.1,2.2 -2.6,2.2c-1.5,0.1 -2.6,-0.7 -3,-1.8z" class="st1"/>
    <path id="svg_29" fill="#EEF2F4" d="m80,934.9l0,7.6l-1,0l0,-7.6l1,0z" class="st1"/>
    <path id="svg_30" fill="#EEF2F4" d="m91.3,939.2c0,1.9 -1.4,3.5 -3.7,3.5c-2.4,0 -4,-1.8 -4,-4c0,-2.2 1.7,-4 4,-4c1.4,0 2.7,0.8 3.3,1.8l-0.9,0.5c-0.4,-0.8 -1.4,-1.4 -2.4,-1.4c-1.8,0 -3,1.3 -3,3c0,1.7 1.2,3 3,3c1.6,0 2.5,-0.9 2.7,-2l-2.8,0l0,-0.9l3.8,0l0,0.5z" class="st1"/>
    <path id="svg_31" fill="#EEF2F4" d="m100.6,934.9l0,7.6l-0.8,0l-3.9,-5.7l0,5.7l-1,0l0,-7.6l0.8,0l3.9,5.7l0,-5.7l1,0z" class="st1"/>
    <path id="svg_32" fill="#EEF2F4" d="m109.1,941.6l0,1l-4.6,0l0,-7.6l4.5,0l0,1l-3.5,0l0,2.3l3.2,0l0,0.9l-3.2,0l0,2.4l3.6,0z" class="st1"/>
    <path id="svg_33" fill="#EEF2F4" d="m119.2,938.7c0,2.1 -1.5,3.8 -3.6,3.8l-3,0l0,-7.6l3,0c2,0 3.6,1.7 3.6,3.8zm-1,0c0,-1.6 -1.1,-2.9 -2.6,-2.9l-2,0l0,5.7l2,0c1.5,0.1 2.6,-1.2 2.6,-2.8z" class="st1"/>
    <path id="svg_34" fill="#EEF2F4" d="m133.2,940.4c0,1.2 -1,2.2 -2.2,2.2l-3.3,0l0,-7.6l3,0c1.2,0 2.1,0.9 2.1,2.1c0,0.7 -0.3,1.2 -0.8,1.6c0.7,0.2 1.2,0.8 1.2,1.7zm-4.5,-4.6l0,2.3l2,0c0.6,0 1.1,-0.5 1.1,-1.2c0,-0.6 -0.5,-1.2 -1.1,-1.2l-2,0l0,0.1zm3.5,4.5c0,-0.7 -0.5,-1.2 -1.2,-1.2l-2.3,0l0,2.5l2.3,0c0.7,0 1.2,-0.6 1.2,-1.3z" class="st1"/>
    <path id="svg_35" fill="#EEF2F4" d="m139.4,939.4l0,3.1l-1,0l0,-3.1l-2.7,-4.5l1.1,0l2.1,3.6l2.1,-3.6l1.1,0l-2.7,4.5z" class="st1"/>
   </g>
   <g id="svg_36">
    <path id="svg_37" fill="#EEF2F4" d="m205.1,952.9c0,-0.7 0.5,-1.2 1.2,-1.2c0.7,0 1.2,0.5 1.2,1.2c0,0.7 -0.5,1.2 -1.2,1.2c-0.7,0 -1.2,-0.5 -1.2,-1.2zm0.2,2.5l1.9,0l0,8.9l-1.9,0l0,-8.9z" class="st1"/>
    <path id="svg_38" fill="#EEF2F4" d="m221.4,964.3l-2,0l0,-8.8l-3.8,6.2l-0.2,0l-3.8,-6.2l0,8.9l-2,0l0,-12.4l2.2,0l3.7,6.2l3.8,-6.2l2.2,0l0,12.3l-0.1,0z" class="st1"/>
    <path id="svg_39" fill="#EEF2F4" d="m232.7,955.4l0,8.9l-1.9,0l0,-1.3c-0.7,0.9 -1.7,1.5 -3.1,1.5c-2.4,0 -4.4,-2 -4.4,-4.7c0,-2.6 2,-4.7 4.4,-4.7c1.4,0 2.4,0.6 3.1,1.5l0,-1.3l1.9,0l0,0.1zm-1.9,4.5c0,-1.6 -1.2,-2.8 -2.8,-2.8c-1.6,0 -2.8,1.2 -2.8,2.8c0,1.6 1.2,2.8 2.8,2.8c1.6,0 2.8,-1.2 2.8,-2.8z" class="st1"/>
    <path id="svg_40" fill="#EEF2F4" d="m234.5,959.9c0,-2.6 2,-4.7 4.7,-4.7c1.7,0 3.2,0.9 3.9,2.3l-1.6,1c-0.4,-0.8 -1.3,-1.4 -2.3,-1.4c-1.6,0 -2.7,1.2 -2.7,2.8c0,1.6 1.2,2.8 2.7,2.8c1.1,0 1.9,-0.5 2.4,-1.4l1.6,0.9c-0.7,1.4 -2.2,2.3 -4,2.3c-2.7,0 -4.7,-2 -4.7,-4.6z" class="st1"/>
   </g>
   <g id="svg_41">
    <g id="svg_42">
     <g id="svg_43">
      <path id="svg_44" fill="#EEF2F4" d="m846.1,938.7c0,2.1 -1.5,3.8 -3.6,3.8l-3,0l0,-7.6l3,0c2.1,0 3.6,1.7 3.6,3.8zm-0.9,0c0,-1.6 -1.1,-2.9 -2.6,-2.9l-2,0l0,5.7l2,0c1.5,0.1 2.6,-1.2 2.6,-2.8z" class="st1"/>
     </g>
     <g id="svg_45">
      <path id="svg_46" fill="#EEF2F4" d="m849.3,938.7c0,-2.2 1.7,-4 3.9,-4c2.2,0 4,1.8 4,4c0,2.2 -1.7,4 -4,4c-2.2,0 -3.9,-1.8 -3.9,-4zm6.8,0c0,-1.7 -1.3,-3 -2.9,-3c-1.7,0 -2.9,1.3 -2.9,3c0,1.7 1.3,3 2.9,3c1.7,0 2.9,-1.3 2.9,-3z" class="st1"/>
     </g>
     <g id="svg_47">
      <path id="svg_48" fill="#EEF2F4" d="m859.8,934.9l1.1,0l1.7,6.3l1.9,-6.3l1,0l1.9,6.3l1.7,-6.3l1.1,0l-2.2,7.6l-1.2,0l-1.8,-6.1l-1.8,6.1l-1.2,0l-2.2,-7.6z" class="st1"/>
     </g>
     <g id="svg_49">
      <path id="svg_50" fill="#EEF2F4" d="m879.3,934.9l0,7.6l-0.8,0l-3.9,-5.7l0,5.7l-1,0l0,-7.6l0.8,0l3.9,5.7l0,-5.7l1,0z" class="st1"/>
     </g>
     <g id="svg_51">
      <path id="svg_52" fill="#EEF2F4" d="m887.5,941.6l0,1l-4.3,0l0,-7.6l1,0l0,6.7l3.3,0l0,-0.1z" class="st1"/>
     </g>
     <g id="svg_53">
      <path id="svg_54" fill="#EEF2F4" d="m889.9,938.7c0,-2.2 1.7,-4 3.9,-4c2.2,0 4,1.8 4,4c0,2.2 -1.7,4 -4,4c-2.2,0 -3.9,-1.8 -3.9,-4zm6.9,0c0,-1.7 -1.3,-3 -2.9,-3c-1.7,0 -2.9,1.3 -2.9,3c0,1.7 1.3,3 2.9,3c1.6,0 2.9,-1.3 2.9,-3z" class="st1"/>
     </g>
     <g id="svg_55">
      <path id="svg_56" fill="#EEF2F4" d="m905.4,940.8l-3.4,0l-0.6,1.7l-1.1,0l2.8,-7.6l1.1,0l2.8,7.6l-1,0l-0.6,-1.7zm-0.3,-0.9l-1.4,-3.8l-1.4,3.8l2.8,0z" class="st1"/>
     </g>
     <g id="svg_57">
      <path id="svg_58" fill="#EEF2F4" d="m916.9,938.7c0,2.1 -1.5,3.8 -3.6,3.8l-3,0l0,-7.6l3,0c2.1,0 3.6,1.7 3.6,3.8zm-1,0c0,-1.6 -1.1,-2.9 -2.6,-2.9l-2,0l0,5.7l2,0c1.6,0.1 2.6,-1.2 2.6,-2.8z" class="st1"/>
     </g>
     <g id="svg_59">
      <path id="svg_60" fill="#EEF2F4" d="m926.5,935.8l0,2.5l3.2,0l0,1l-3.2,0l0,3.2l-1,0l0,-7.6l4.4,0l0,1l-3.4,0l0,-0.1z" class="st1"/>
     </g>
     <g id="svg_61">
      <path id="svg_62" fill="#EEF2F4" d="m936.2,939.6l-1.8,0l0,2.9l-1,0l0,-7.6l3,0c1.3,0 2.4,1.1 2.4,2.4c0,1 -0.7,1.9 -1.6,2.2l1.8,3.1l-1.1,0l-1.7,-3zm-1.8,-0.9l2,0c0.8,0 1.4,-0.6 1.4,-1.4c0,-0.8 -0.6,-1.4 -1.4,-1.4l-2,0l0,2.8z" class="st1"/>
     </g>
     <g id="svg_63">
      <path id="svg_64" fill="#EEF2F4" d="m941.9,938.7c0,-2.2 1.7,-4 3.9,-4c2.2,0 4,1.8 4,4c0,2.2 -1.7,4 -4,4c-2.2,0 -3.9,-1.8 -3.9,-4zm6.9,0c0,-1.7 -1.3,-3 -2.9,-3c-1.7,0 -2.9,1.3 -2.9,3c0,1.7 1.3,3 2.9,3c1.6,0 2.9,-1.3 2.9,-3z" class="st1"/>
     </g>
     <g id="svg_65">
      <path id="svg_66" fill="#EEF2F4" d="m960.4,942.5l-1,0l0,-6l-2.5,4.2l-0.1,0l-2.5,-4.1l0,5.9l-1,0l0,-7.6l1.1,0l2.4,4l2.4,-4l1.1,0l0,7.6l0.1,0z" class="st1"/>
     </g>
    </g>
    <g id="svg_67">
     <g id="svg_68">
      <path id="svg_69" fill="#EEF2F4" d="m839.3,952.9c0,-0.7 0.5,-1.2 1.2,-1.2c0.7,0 1.2,0.5 1.2,1.2c0,0.7 -0.5,1.2 -1.2,1.2c-0.6,0 -1.2,-0.5 -1.2,-1.2zm0.3,2.5l1.9,0l0,8.9l-1.9,0l0,-8.9z" class="st1"/>
     </g>
     <g id="svg_70">
      <path id="svg_71" fill="#EEF2F4" d="m843.7,951.4l1.9,0l0,12.9l-1.9,0l0,-12.9z" class="st1"/>
     </g>
     <g id="svg_72">
      <path id="svg_73" fill="#EEF2F4" d="m847.8,951.4l1.9,0l0,12.9l-1.9,0l0,-12.9z" class="st1"/>
     </g>
     <g id="svg_74">
      <path id="svg_75" fill="#EEF2F4" d="m852,951.4l1.9,0l0,12.9l-1.9,0l0,-12.9z" class="st1"/>
     </g>
     <g id="svg_76">
      <path id="svg_77" fill="#EEF2F4" d="m864,955.4l0,8.9l-1.9,0l0,-1.1c-0.6,0.9 -1.5,1.4 -2.7,1.4c-2,0 -3.4,-1.3 -3.4,-3.6l0,-5.4l1.9,0l0,5.2c0,1.3 0.8,2.1 2,2.1c1.3,0 2.2,-0.7 2.2,-2.5l0,-4.7l1.9,0l0,-0.3z" class="st1"/>
     </g>
     <g id="svg_78">
      <path id="svg_79" fill="#EEF2F4" d="m872.6,961.8c0,1.8 -1.5,2.7 -3.5,2.7c-1.8,0 -3,-0.8 -3.6,-2.1l1.6,-1c0.3,0.8 1,1.3 2,1.3c0.8,0 1.5,-0.3 1.5,-1c0,-1.6 -4.8,-0.7 -4.8,-3.9c0,-1.7 1.4,-2.7 3.2,-2.7c1.5,0 2.7,0.7 3.3,1.8l-1.6,0.9c-0.3,-0.7 -0.9,-1 -1.7,-1c-0.7,0 -1.3,0.3 -1.3,0.9c0.2,1.8 4.9,0.8 4.9,4.1z" class="st1"/>
     </g>
     <g id="svg_80">
      <path id="svg_81" fill="#EEF2F4" d="m876.7,957.3l0,4.2c0,1.1 0.7,1.1 2.2,1l0,1.7c-2.9,0.4 -4.1,-0.5 -4.1,-2.8l0,-4.2l-1.6,0l0,-1.8l1.6,0l0,-1.9l1.9,-0.6l0,2.5l2.2,0l0,1.8l-2.2,0l0,0.1z" class="st1"/>
     </g>
     <g id="svg_82">
      <path id="svg_83" fill="#EEF2F4" d="m885.4,955.3l0,2.1c-1.3,-0.1 -2.7,0.5 -2.7,2.5l0,4.5l-1.9,0l0,-8.9l1.9,0l0,1.5c0.5,-1.3 1.5,-1.7 2.7,-1.7z" class="st1"/>
     </g>
     <g id="svg_84">
      <path id="svg_85" fill="#EEF2F4" d="m895.3,955.4l0,8.9l-1.9,0l0,-1.3c-0.7,0.9 -1.7,1.5 -3.1,1.5c-2.4,0 -4.4,-2 -4.4,-4.7c0,-2.6 2,-4.7 4.4,-4.7c1.4,0 2.4,0.6 3.1,1.5l0,-1.3l1.9,0l0,0.1zm-1.9,4.5c0,-1.6 -1.2,-2.8 -2.8,-2.8c-1.6,0 -2.8,1.2 -2.8,2.8c0,1.6 1.2,2.8 2.8,2.8c1.6,0 2.8,-1.2 2.8,-2.8z" class="st1"/>
     </g>
     <g id="svg_86">
      <path id="svg_87" fill="#EEF2F4" d="m900.3,957.3l0,4.2c0,1.1 0.7,1.1 2.2,1l0,1.7c-2.9,0.4 -4.1,-0.5 -4.1,-2.8l0,-4.2l-1.6,0l0,-1.8l1.6,0l0,-1.9l1.9,-0.6l0,2.5l2.2,0l0,1.8l-2.2,0l0,0.1z" class="st1"/>
     </g>
     <g id="svg_88">
      <path id="svg_89" fill="#EEF2F4" d="m903.9,952.9c0,-0.7 0.5,-1.2 1.2,-1.2c0.7,0 1.2,0.5 1.2,1.2c0,0.7 -0.5,1.2 -1.2,1.2c-0.6,0 -1.2,-0.5 -1.2,-1.2zm0.3,2.5l1.9,0l0,8.9l-1.9,0l0,-8.9z" class="st1"/>
     </g>
     <g id="svg_90">
      <path id="svg_91" fill="#EEF2F4" d="m907.8,959.9c0,-2.6 2.1,-4.7 4.7,-4.7c2.6,0 4.7,2 4.7,4.7c0,2.6 -2.1,4.7 -4.7,4.7c-2.6,-0.1 -4.7,-2.1 -4.7,-4.7zm7.5,0c0,-1.6 -1.2,-2.8 -2.8,-2.8c-1.6,0 -2.8,1.2 -2.8,2.8c0,1.6 1.2,2.8 2.8,2.8c1.6,0 2.8,-1.2 2.8,-2.8z" class="st1"/>
     </g>
     <g id="svg_92">
      <path id="svg_93" fill="#EEF2F4" d="m927,958.9l0,5.4l-1.9,0l0,-5.2c0,-1.3 -0.8,-2.1 -2,-2.1c-1.3,0 -2.2,0.7 -2.2,2.5l0,4.7l-1.9,0l0,-8.9l1.9,0l0,1.1c0.6,-0.9 1.5,-1.4 2.7,-1.4c1.9,0.2 3.4,1.6 3.4,3.9z" class="st1"/>
     </g>
     <g id="svg_94">
      <path id="svg_95" fill="#EEF2F4" d="m935.5,961.8c0,1.8 -1.5,2.7 -3.5,2.7c-1.8,0 -3,-0.8 -3.6,-2.1l1.6,-1c0.3,0.8 1,1.3 2,1.3c0.8,0 1.5,-0.3 1.5,-1c0,-1.6 -4.8,-0.7 -4.8,-3.9c0,-1.7 1.4,-2.7 3.2,-2.7c1.5,0 2.7,0.7 3.3,1.8l-1.6,0.9c-0.3,-0.7 -0.9,-1 -1.7,-1c-0.7,0 -1.3,0.3 -1.3,0.9c0.1,1.8 4.9,0.8 4.9,4.1z" class="st1"/>
     </g>
     <g id="svg_96">
      <path id="svg_97" fill="#EEF2F4" d="m936.8,963.2c0,-0.7 0.6,-1.3 1.3,-1.3c0.7,0 1.3,0.6 1.3,1.3c0,0.7 -0.6,1.3 -1.3,1.3c-0.7,0 -1.3,-0.6 -1.3,-1.3z" class="st1"/>
     </g>
     <g id="svg_98">
      <path id="svg_99" fill="#EEF2F4" d="m940.3,959.9c0,-2.6 2,-4.7 4.7,-4.7c1.7,0 3.2,0.9 3.9,2.3l-1.6,1c-0.4,-0.8 -1.3,-1.4 -2.3,-1.4c-1.6,0 -2.7,1.2 -2.7,2.8c0,1.6 1.2,2.8 2.7,2.8c1.1,0 1.9,-0.5 2.4,-1.4l1.6,0.9c-0.7,1.4 -2.2,2.3 -4,2.3c-2.7,0 -4.7,-2 -4.7,-4.6z" class="st1"/>
     </g>
     <g id="svg_100">
      <path id="svg_101" fill="#EEF2F4" d="m949.7,959.9c0,-2.6 2.1,-4.7 4.7,-4.7c2.6,0 4.7,2 4.7,4.7c0,2.6 -2.1,4.7 -4.7,4.7c-2.6,-0.1 -4.7,-2.1 -4.7,-4.7zm7.5,0c0,-1.6 -1.2,-2.8 -2.8,-2.8s-2.8,1.2 -2.8,2.8c0,1.6 1.2,2.8 2.8,2.8s2.8,-1.2 2.8,-2.8z" class="st1"/>
     </g>
    </g>
   </g>
  </g>
  <path fill="#1C1C1C" opacity="0.32" d="m582.2,613.6l-167.9,0c-3,0 -5.5,-2.5 -5.5,-5.5l0,0c0,-3 2.5,-5.5 5.5,-5.5l167.9,0c3,0 5.5,2.5 5.5,5.5l0,0c0,3 -2.5,5.5 -5.5,5.5z" class="st2" id="XMLID_5_"/>
  <path fill="#1C1C1C" opacity="0.32" d="m699.5,655.5l-351.8,0c-3,0 -5.5,-2.5 -5.5,-5.5l0,0c0,-3 2.5,-5.5 5.5,-5.5l351.8,0c3,0 5.5,2.5 5.5,5.5l0,0c0,3.1 -2.5,5.5 -5.5,5.5z" class="st2" id="XMLID_3_"/>
  <path fill="#383939" d="m674.2,505.1l-352,0l0,-188.4c0,-8.7 7,-15.7 15.7,-15.7l320.1,0c8.9,0 16.2,7.3 16.2,16.2l0,187.9z" class="st3" id="XMLID_7_"/>
  <path fill="#3A3A3A" d="m328.2,490.1l0,-174c0,-5 4,-9 9,-9l322,0c5,0 9,4 9,9l0,174c0,5 -4,9 -9,9l-322,0c-4.9,0 -9,-4.1 -9,-9z" class="st4" id="XMLID_30_"/>
  <path stroke-miterlimit="10" stroke-linejoin="round" stroke-linecap="round" stroke-width="6" stroke="#383939" fill="none" d="m674.2,505.1l-352,0l0,-188.4c0,-8.7 7,-15.7 15.7,-15.7l320.1,0c8.9,0 16.2,7.3 16.2,16.2l0,187.9z" class="st5" id="XMLID_18_"/>
  <rect fill="#4F4F4F" height="312" width="164" class="st6" transform="matrix(-1.836970e-16 1 -1 -1.836970e-16 901.2849 -95.1796)" y="247.1" x="416.2" id="XMLID_10_"/>
  <path fill="#D4E8DC" d="m657.9,553.1l-319.9,0c-8.7,0 -15.8,-7.1 -15.8,-15.8l0,-32.2l352,0l0,31.7c0,8.9 -7.3,16.3 -16.3,16.3z" class="st7" id="XMLID_19_"/>
  <path fill="#EBF2EE" d="m338,545.1c-4.3,0 -7.8,-3.5 -7.8,-7.8l0,-28.9l336,0l0,28.4c0,4.6 -3.7,8.3 -8.3,8.3l-319.9,0z" class="st8" id="XMLID_4_"/>
  <path stroke-miterlimit="10" stroke-linejoin="round" stroke-linecap="round" stroke-width="6" stroke="#383939" fill="none" d="m657.9,553.1l-319.9,0c-8.7,0 -15.8,-7.1 -15.8,-15.8l0,-32.2l352,0l0,31.7c0,8.9 -7.3,16.3 -16.3,16.3z" class="st5" id="XMLID_6_"/>
  <polygon fill="#CAD8D0" points="551.2,589.1 445.2,589.1 460.9,553.1 535.5,553.1 " class="st9" id="XMLID_22_"/>
  <polygon fill="#A1ADA6" points="542.5,569.1 535.5,553.1 460.9,553.1 453.9,569.1 " class="st10" id="XMLID_27_"/>
  <polygon stroke-miterlimit="10" stroke-linejoin="round" stroke-linecap="round" stroke-width="6" stroke="#383939" fill="none" points="551.2,589.1 445.2,589.1 460.9,553.1 535.5,553.1 " class="st5" id="XMLID_1_"/>
  <path fill="#DAEDE2" d="m571.2,605.1l-146,0l1.5,-5.3c1.8,-6.3 7.7,-10.7 14.5,-10.7l114,0c6.8,0 12.8,4.4 14.5,10.7l1.5,5.3z" class="st11" id="XMLID_23_"/>
  <path stroke-miterlimit="10" stroke-linejoin="round" stroke-linecap="round" stroke-width="6" stroke="#383939" fill="none" d="m571.2,605.1l-146,0l1.5,-5.3c1.8,-6.3 7.7,-10.7 14.5,-10.7l114,0c6.8,0 12.8,4.4 14.5,10.7l1.5,5.3z" class="st5" id="XMLID_9_"/>
  <path fill="#DAEDE2" d="m368.1,646l253.7,0c3.7,0 6.7,-3 6.7,-6.7l0,0c0,-3.7 -3,-6.7 -6.7,-6.7l-253.7,0c-3.7,0 -6.7,3 -6.7,6.7l0,0c-0.1,3.7 2.9,6.7 6.7,6.7z" class="st11" id="XMLID_24_"/>
  <path stroke-miterlimit="10" stroke-linejoin="round" stroke-linecap="round" stroke-width="6" stroke="#383939" fill="none" d="m368.1,646l253.7,0c3.7,0 6.7,-3 6.7,-6.7l0,0c0,-3.7 -3,-6.7 -6.7,-6.7l-253.7,0c-3.7,0 -6.7,3 -6.7,6.7l0,0c-0.1,3.7 2.9,6.7 6.7,6.7z" class="st5" id="XMLID_8_"/>
  <path fill="#383939" d="m445.9,632.5l122,0l0,-4c0,-3.3 -2.7,-6 -6,-6l-110,0c-3.3,0 -6,2.7 -6,6l0,4z" class="st3" id="XMLID_11_"/>
  <path fill="#383939" d="m421.7,632.5l21.2,0l0,-4c0,-3.3 -2.7,-6 -6,-6l-9.2,0c-3.3,0 -6,2.7 -6,6l0,4z" class="st3" id="XMLID_13_"/>
  <path fill="#383939" d="m397,632.5l21.2,0l0,-4c0,-3.3 -2.7,-6 -6,-6l-9.2,0c-3.3,0 -6,2.7 -6,6l0,4z" class="st3" id="XMLID_14_"/>
  <path fill="#383939" d="m596.2,632.5l21.2,0l0,-4c0,-3.3 -2.7,-6 -6,-6l-9.2,0c-3.3,0 -6,2.7 -6,6l0,4z" class="st3" id="XMLID_17_"/>
  <path fill="#383939" d="m571.6,632.5l21.2,0l0,-4c0,-3.3 -2.7,-6 -6,-6l-9.2,0c-3.3,0 -6,2.7 -6,6l0,4z" class="st3" id="XMLID_16_"/>
  <path fill="#383939" d="m372.4,632.5l21.2,0l0,-4c0,-3.3 -2.7,-6 -6,-6l-9.2,0c-3.3,0 -6,2.7 -6,6l0,4z" class="st3" id="XMLID_15_"/>
  <path fill="#DAEDE2" d="m688.7,646c-0.1,-7.6 -8.4,-15.2 -23.1,-15.2c-14.6,0 -23,7.6 -23.1,15.2l46.2,0z" class="st11" id="XMLID_25_"/>
  <path stroke-miterlimit="10" stroke-linejoin="round" stroke-linecap="round" stroke-width="6" stroke="#383939" fill="none" d="m688.7,646c-0.1,-7.6 -8.4,-15.2 -23.1,-15.2c-14.6,0 -23,7.6 -23.1,15.2l46.2,0z" class="st5" id="XMLID_20_"/>
  <path fill="#383939" d="m512.4,526.6c-4.6,0 -8.4,-3.4 -9,-7.9c-0.1,0 -0.1,0 -0.2,0c-5.7,0 -10.3,4.6 -10.3,10.3s4.6,10.3 10.3,10.3s10.3,-4.6 10.3,-10.3c0,-0.9 -0.1,-1.7 -0.3,-2.5c-0.3,0.1 -0.5,0.1 -0.8,0.1z" class="st3" id="XMLID_21_"/>
  <path fill="#E7F7F7" d="m509.1,401.5c-2.9,0 -5.4,-2.2 -5.7,-5c0,0 -0.1,0 -0.1,0c-3.6,0 -6.6,3 -6.6,6.6s3,6.6 6.6,6.6s6.6,-3 6.6,-6.6c0,-0.6 -0.1,-1.1 -0.2,-1.6c-0.3,0 -0.4,0 -0.6,0z" class="st12" id="XMLID_31_"/>
  <polygon fill="#C2D3C9" opacity="0.16" points="377.6,485.1 415.8,485.1 499.4,321.1 461.2,321.1 " class="st13" id="XMLID_28_"/>
  <polygon fill="#C2D3C9" opacity="0.16" points="446.7,485.1 530.3,321.1 516,321.1 432.4,485.1 " class="st13" id="XMLID_29_"/>
  <g opacity="0.38" class="st14" id="XMLID_32_">
   <path fill="#C2D3C9" d="m521.5,428l-40.2,0c-0.8,0 -1.5,-0.7 -1.5,-1.5s0.7,-1.5 1.5,-1.5l40.2,0c0.8,0 1.5,0.7 1.5,1.5s-0.7,1.5 -1.5,1.5z" class="st15" id="XMLID_34_"/>
  </g>
  <path fill="#C2D3C9" d="m495.2,425l-13.9,0c-0.8,0 -1.5,0.7 -1.5,1.5s0.7,1.5 1.5,1.5l13.9,0l0,-3z" class="st15" id="XMLID_37_"/>
 </g>
</svg>