<svg width="1000" height="1000" xmlns="http://www.w3.org/2000/svg" xmlns:xlink="http://www.w3.org/1999/xlink" xml:space="preserve" version="1.1">
 <g>
  <title>Layer 1</title>
  <g id="svg_1">
   <g id="svg_2">
    <g id="svg_3">
     <path id="svg_4" fill="#EEF2F4" d="m63.2,959.2c0,2.5 -1.2,3.7 -2.6,3.7c-1.1,0 -1.9,-0.5 -2.1,-1.4c-0.4,0.5 -1,0.8 -1.8,0.8c-1.5,0 -2.6,-1.2 -2.6,-2.8s1.1,-2.8 2.6,-2.8c0.7,0 1.2,0.3 1.6,0.7l0,-0.5l1.6,0l0,3.9c0,0.8 0.3,1.4 1,1.4c0.9,0 1.7,-0.9 1.7,-3c0,-3 -2.3,-5.3 -5.4,-5.3c-3.1,0 -5.6,2.4 -5.6,5.7s2.5,5.7 5.9,5.7c1.1,0 2.1,-0.2 2.9,-0.4l0,0.6c-0.8,0.3 -1.7,0.4 -2.9,0.4c-3.7,0 -6.5,-2.6 -6.5,-6.2c0,-3.4 2.7,-6.2 6.2,-6.2c3.9,-0.2 6,2.9 6,5.7zm-4.9,0.3c0,-0.8 -0.6,-1.4 -1.3,-1.4c-0.8,0 -1.3,0.5 -1.3,1.4c0,0.8 0.6,1.3 1.3,1.3c0.8,0.1 1.3,-0.5 1.3,-1.3z" class="st1"/>
    </g>
    <g id="svg_5">
     <path id="svg_6" fill="#EEF2F4" d="m69.4,955.1l0,2c-1.2,-0.1 -2.6,0.5 -2.6,2.4l0,4.3l-1.9,0l0,-8.6l1.9,0l0,1.4c0.5,-1.1 1.5,-1.5 2.6,-1.5z" class="st1"/>
    </g>
    <g id="svg_7">
     <path id="svg_8" fill="#EEF2F4" d="m74.6,962.3c1,0 1.8,-0.5 2.2,-1.1l1.5,0.9c-0.8,1.2 -2.1,1.9 -3.8,1.9c-2.8,0 -4.7,-1.9 -4.7,-4.5c0,-2.5 1.8,-4.5 4.5,-4.5c2.6,0 4.3,2.1 4.3,4.5c0,0.3 0,0.5 -0.1,0.8l-6.8,0c0.4,1.3 1.5,2 2.9,2zm2.3,-3.5c-0.3,-1.5 -1.3,-2.1 -2.5,-2.1c-1.4,0 -2.3,0.8 -2.6,2.1l5.1,0z" class="st1"/>
    </g>
    <g id="svg_9">
     <path id="svg_10" fill="#EEF2F4" d="m88.9,955.2l0,8.6l-1.9,0l0,-1.2c-0.7,0.9 -1.7,1.5 -3,1.5c-2.3,0 -4.3,-2 -4.3,-4.5c0,-2.6 1.9,-4.5 4.3,-4.5c1.3,0 2.3,0.5 3,1.4l0,-1.2l1.9,-0.1l0,0zm-1.8,4.3c0,-1.6 -1.2,-2.7 -2.7,-2.7s-2.7,1.1 -2.7,2.7c0,1.6 1.2,2.7 2.7,2.7c1.5,0.1 2.7,-1.1 2.7,-2.7z" class="st1"/>
    </g>
    <g id="svg_11">
     <path id="svg_12" fill="#EEF2F4" d="m91.1,951.3l1.9,0l0,12.5l-1.9,0l0,-12.5z" class="st1"/>
    </g>
    <g id="svg_13">
     <path id="svg_14" fill="#EEF2F4" d="m102.9,955.2l-3.3,8.6l-2.1,0l-3.3,-8.6l2,0l2.4,6.5l2.4,-6.5l1.9,0z" class="st1"/>
    </g>
    <g id="svg_15">
     <path id="svg_16" fill="#EEF2F4" d="m104.2,955.2l1.9,0l0,8.9c0,2.4 -1.2,3.5 -3.5,3.3l0,-1.8c1.1,0.1 1.7,-0.3 1.7,-1.5l-0.1,-8.9l0,0zm-0.2,-2.4c0,-0.7 0.5,-1.2 1.2,-1.2s1.2,0.5 1.2,1.2c0,0.6 -0.5,1.2 -1.2,1.2s-1.2,-0.6 -1.2,-1.2z" class="st1"/>
    </g>
    <g id="svg_17">
     <path id="svg_18" fill="#EEF2F4" d="m116,955.2l-3.3,8.8c-0.8,2.2 -2.2,3.3 -4.2,3.2l0,-1.7c1.2,0.1 1.9,-0.5 2.3,-1.7l0.1,-0.2l-3.6,-8.4l2,0l2.6,6.2l2.2,-6.2l1.9,0l0,0z" class="st1"/>
    </g>
   </g>
   <g id="svg_19">
    <path id="svg_20" fill="#EEF2F4" d="m211.9,938.7c0,2.1 -1.5,3.8 -3.6,3.8l-3,0l0,-7.6l3,0c2.1,0 3.6,1.7 3.6,3.8zm-1,0c0,-1.6 -1.1,-2.9 -2.6,-2.9l-2,0l0,5.7l2,0c1.5,0.1 2.6,-1.2 2.6,-2.8z" class="st1"/>
    <path id="svg_21" fill="#EEF2F4" d="m219.5,940.8l-3.4,0l-0.6,1.7l-1.1,0l2.8,-7.6l1.1,0l2.8,7.6l-1.1,0l-0.5,-1.7zm-0.3,-0.9l-1.4,-3.8l-1.4,3.8l2.8,0z" class="st1"/>
    <path id="svg_22" fill="#EEF2F4" d="m226.4,939.4l0,3.1l-1,0l0,-3.1l-2.7,-4.5l1.1,0l2.1,3.6l2.1,-3.6l1.1,0l-2.7,4.5z" class="st1"/>
    <path id="svg_23" fill="#EEF2F4" d="m242.1,940.1c0,1.5 -1.1,2.6 -2.6,2.6s-2.6,-1.1 -2.6,-2.6c0,-0.6 0.2,-1.1 0.5,-1.5l2.5,-3.7l1.2,0l-1.8,2.7c0.1,0 0.2,0 0.4,0c1.3,-0.1 2.4,1 2.4,2.5zm-1,0c0,-1 -0.7,-1.6 -1.6,-1.6c-1,0 -1.6,0.6 -1.6,1.6s0.7,1.6 1.6,1.6c0.9,0 1.6,-0.7 1.6,-1.6z" class="st1"/>
    <path id="svg_24" fill="#EEF2F4" d="m249.4,938.8l0,0l-2.5,3.7l-1.1,0l1.8,-2.7c-0.1,0 -0.2,0 -0.4,0c-1.5,0 -2.6,-1 -2.6,-2.6c0,-1.5 1.1,-2.6 2.6,-2.6s2.6,1 2.6,2.6c0.1,0.7 -0.1,1.2 -0.4,1.6zm-2.1,0.1c1,0 1.6,-0.6 1.6,-1.6s-0.7,-1.6 -1.6,-1.6s-1.6,0.6 -1.6,1.6c-0.1,1 0.6,1.6 1.6,1.6z" class="st1"/>
   </g>
   <g id="svg_25">
    <path id="svg_26" fill="#EEF2F4" d="m58.9,938.7c0,2.1 -1.5,3.8 -3.6,3.8l-3,0l0,-7.6l3,0c2.1,0 3.6,1.7 3.6,3.8zm-1,0c0,-1.6 -1.1,-2.9 -2.6,-2.9l-2,0l0,5.7l2,0c1.5,0.1 2.6,-1.2 2.6,-2.8z" class="st1"/>
    <path id="svg_27" fill="#EEF2F4" d="m67,941.6l0,1l-4.6,0l0,-7.6l4.5,0l0,1l-3.5,0l0,2.3l3.2,0l0,0.9l-3.2,0l0,2.4l3.6,0l0,0z" class="st1"/>
    <path id="svg_28" fill="#EEF2F4" d="m70,940.8l0.9,-0.5c0.3,0.8 0.9,1.4 2,1.4s1.6,-0.5 1.6,-1.2c0,-0.8 -0.7,-1 -1.8,-1.4c-1.2,-0.4 -2.4,-0.8 -2.4,-2.2s1.1,-2.2 2.4,-2.2s2.2,0.7 2.6,1.7l-0.8,0.5c-0.3,-0.7 -0.8,-1.2 -1.7,-1.2c-0.8,0 -1.4,0.4 -1.4,1.1c0,0.7 0.5,1 1.6,1.3c1.3,0.4 2.6,0.8 2.6,2.3c0,1.3 -1.1,2.2 -2.6,2.2c-1.5,0.1 -2.6,-0.7 -3,-1.8z" class="st1"/>
    <path id="svg_29" fill="#EEF2F4" d="m80,934.9l0,7.6l-1,0l0,-7.6l1,0z" class="st1"/>
    <path id="svg_30" fill="#EEF2F4" d="m91.3,939.2c0,1.9 -1.4,3.5 -3.7,3.5c-2.4,0 -4,-1.8 -4,-4s1.7,-4 4,-4c1.4,0 2.7,0.8 3.3,1.8l-0.9,0.5c-0.4,-0.8 -1.4,-1.4 -2.4,-1.4c-1.8,0 -3,1.3 -3,3s1.2,3 3,3c1.6,0 2.5,-0.9 2.7,-2l-2.8,0l0,-0.9l3.8,0l0,0.5z" class="st1"/>
    <path id="svg_31" fill="#EEF2F4" d="m100.6,934.9l0,7.6l-0.8,0l-3.9,-5.7l0,5.7l-1,0l0,-7.6l0.8,0l3.9,5.7l0,-5.7l1,0z" class="st1"/>
    <path id="svg_32" fill="#EEF2F4" d="m109.1,941.6l0,1l-4.6,0l0,-7.6l4.5,0l0,1l-3.5,0l0,2.3l3.2,0l0,0.9l-3.2,0l0,2.4l3.6,0l0,0z" class="st1"/>
    <path id="svg_33" fill="#EEF2F4" d="m119.2,938.7c0,2.1 -1.5,3.8 -3.6,3.8l-3,0l0,-7.6l3,0c2,0 3.6,1.7 3.6,3.8zm-1,0c0,-1.6 -1.1,-2.9 -2.6,-2.9l-2,0l0,5.7l2,0c1.5,0.1 2.6,-1.2 2.6,-2.8z" class="st1"/>
    <path id="svg_34" fill="#EEF2F4" d="m133.2,940.4c0,1.2 -1,2.2 -2.2,2.2l-3.3,0l0,-7.6l3,0c1.2,0 2.1,0.9 2.1,2.1c0,0.7 -0.3,1.2 -0.8,1.6c0.7,0.2 1.2,0.8 1.2,1.7zm-4.5,-4.6l0,2.3l2,0c0.6,0 1.1,-0.5 1.1,-1.2c0,-0.6 -0.5,-1.2 -1.1,-1.2l-2,0l0,0.1zm3.5,4.5c0,-0.7 -0.5,-1.2 -1.2,-1.2l-2.3,0l0,2.5l2.3,0c0.7,0 1.2,-0.6 1.2,-1.3z" class="st1"/>
    <path id="svg_35" fill="#EEF2F4" d="m139.4,939.4l0,3.1l-1,0l0,-3.1l-2.7,-4.5l1.1,0l2.1,3.6l2.1,-3.6l1.1,0l-2.7,4.5z" class="st1"/>
   </g>
   <g id="svg_36">
    <path id="svg_37" fill="#EEF2F4" d="m216.2,958.1c0,3.5 -2.5,6.2 -5.9,6.2l-4.9,0l0,-12.4l4.9,0c3.4,0 5.9,2.7 5.9,6.2zm-1.9,0c0,-2.5 -1.6,-4.2 -4,-4.2l-2.8,0l0,8.5l2.8,0c2.4,-0.1 4,-1.9 4,-4.3z" class="st1"/>
    <path id="svg_38" fill="#EEF2F4" d="m217.5,959.9c0,-2.6 2.1,-4.7 4.7,-4.7c2.6,0 4.7,2 4.7,4.7c0,2.6 -2.1,4.7 -4.7,4.7c-2.6,-0.1 -4.7,-2.1 -4.7,-4.7zm7.4,0c0,-1.6 -1.2,-2.8 -2.8,-2.8s-2.8,1.2 -2.8,2.8s1.2,2.8 2.8,2.8s2.8,-1.2 2.8,-2.8z" class="st1"/>
    <path id="svg_39" fill="#EEF2F4" d="m231.1,957.3l0,4.2c0,1.1 0.7,1.1 2.2,1l0,1.7c-2.9,0.4 -4.1,-0.5 -4.1,-2.8l0,-4.2l-1.6,0l0,-1.8l1.6,0l0,-1.9l1.9,-0.6l0,2.5l2.2,0l0,1.8l-2.2,0.1l0,0z" class="st1"/>
    <path id="svg_40" fill="#EEF2F4" d="m237.4,957.3l0,4.2c0,1.1 0.7,1.1 2.2,1l0,1.7c-2.9,0.4 -4.1,-0.5 -4.1,-2.8l0,-4.2l-1.6,0l0,-1.8l1.6,0l0,-1.9l1.9,-0.6l0,2.5l2.2,0l0,1.8l-2.2,0.1l0,0z" class="st1"/>
    <path id="svg_41" fill="#EEF2F4" d="m245.3,962.8c1.1,0 1.9,-0.5 2.3,-1.1l1.6,0.9c-0.8,1.2 -2.1,1.9 -3.9,1.9c-2.9,0 -4.8,-2 -4.8,-4.7c0,-2.6 1.9,-4.7 4.7,-4.7c2.6,0 4.4,2.1 4.4,4.7c0,0.3 0,0.5 -0.1,0.8l-7,0c0.3,1.5 1.4,2.2 2.8,2.2zm2.4,-3.7c-0.3,-1.5 -1.4,-2.2 -2.5,-2.2c-1.4,0 -2.4,0.8 -2.7,2.2l5.2,0z" class="st1"/>
    <path id="svg_42" fill="#EEF2F4" d="m260.2,951.9l0,12.4l-1.9,0l0,-1.3c-0.7,0.9 -1.7,1.5 -3.1,1.5c-2.4,0 -4.4,-2 -4.4,-4.7c0,-2.6 2,-4.7 4.4,-4.7c1.4,0 2.4,0.6 3.1,1.5l0,-4.8l1.9,0l0,0.1zm-1.9,8c0,-1.6 -1.2,-2.8 -2.8,-2.8c-1.6,0 -2.8,1.2 -2.8,2.8s1.2,2.8 2.8,2.8c1.5,0 2.8,-1.2 2.8,-2.8z" class="st1"/>
    <path id="svg_43" fill="#EEF2F4" d="m279,958.7c0,3.4 -2.4,5.8 -6.1,5.8c-3.9,0 -6.6,-2.9 -6.6,-6.4s2.8,-6.4 6.5,-6.4c2.4,0 4.4,1.2 5.4,2.9l-1.8,1c-0.6,-1.2 -2,-2 -3.6,-2c-2.6,0 -4.5,1.9 -4.5,4.5c0,2.5 1.8,4.4 4.6,4.4c2.2,0 3.6,-1.2 4,-2.8l-4.1,0l0,-1.8l6.2,0l0,0.8z" class="st1"/>
    <path id="svg_44" fill="#EEF2F4" d="m285.4,955.3l0,2.1c-1.3,-0.1 -2.7,0.5 -2.7,2.5l0,4.5l-1.9,0l0,-8.9l1.9,0l0,1.5c0.5,-1.3 1.6,-1.7 2.7,-1.7z" class="st1"/>
    <path id="svg_45" fill="#EEF2F4" d="m286.5,952.9c0,-0.7 0.5,-1.2 1.2,-1.2s1.2,0.5 1.2,1.2s-0.5,1.2 -1.2,1.2c-0.6,0 -1.2,-0.5 -1.2,-1.2zm0.3,2.5l1.9,0l0,8.9l-1.9,0l0,-8.9z" class="st1"/>
    <path id="svg_46" fill="#EEF2F4" d="m299.8,951.9l0,12.4l-1.9,0l0,-1.3c-0.7,0.9 -1.7,1.5 -3.1,1.5c-2.4,0 -4.4,-2 -4.4,-4.7c0,-2.6 2,-4.7 4.4,-4.7c1.4,0 2.4,0.6 3.1,1.5l0,-4.8l1.9,0l0,0.1zm-1.9,8c0,-1.6 -1.2,-2.8 -2.8,-2.8c-1.6,0 -2.8,1.2 -2.8,2.8s1.2,2.8 2.8,2.8c1.6,0 2.8,-1.2 2.8,-2.8z" class="st1"/>
    <path id="svg_47" fill="#EEF2F4" d="m315.7,960.8c0,2.1 -1.7,3.5 -3.7,3.5l-5.3,0l0,-12.4l4.9,0c2,0 3.6,1.5 3.6,3.4c0,1.1 -0.5,2 -1.3,2.5c1.1,0.6 1.8,1.6 1.8,3zm-7,-7l0,3.3l2.9,0c0.9,0 1.6,-0.7 1.6,-1.6c0,-0.9 -0.7,-1.6 -1.6,-1.6l-2.9,0l0,-0.1zm4.9,6.8c0,-1 -0.7,-1.7 -1.7,-1.7l-3.3,0l0,3.5l3.3,0c1,0 1.7,-0.8 1.7,-1.8z" class="st1"/>
    <path id="svg_48" fill="#EEF2F4" d="m316.9,959.9c0,-2.6 2.1,-4.7 4.7,-4.7s4.7,2 4.7,4.7c0,2.6 -2.1,4.7 -4.7,4.7c-2.6,-0.1 -4.7,-2.1 -4.7,-4.7zm7.4,0c0,-1.6 -1.2,-2.8 -2.8,-2.8s-2.8,1.2 -2.8,2.8s1.2,2.8 2.8,2.8s2.8,-1.2 2.8,-2.8z" class="st1"/>
    <path id="svg_49" fill="#EEF2F4" d="m327.5,959.9c0,-2.6 2.1,-4.7 4.7,-4.7s4.7,2 4.7,4.7c0,2.6 -2.1,4.7 -4.7,4.7c-2.6,-0.1 -4.7,-2.1 -4.7,-4.7zm7.4,0c0,-1.6 -1.2,-2.8 -2.8,-2.8s-2.8,1.2 -2.8,2.8s1.2,2.8 2.8,2.8s2.8,-1.2 2.8,-2.8z" class="st1"/>
    <path id="svg_50" fill="#EEF2F4" d="m344.1,964.3l-3.6,-4.1l0,4.1l-1.9,0l0,-12.4l1.9,0l0,7.5l3.4,-3.9l2.3,0l-3.9,4.3l4,4.5l-2.2,0l0,0z" class="st1"/>
   </g>
   <g id="svg_51">
    <path id="svg_52" fill="#EEF2F4" d="m841.3,942.5l-1,0l0,-7.6l1.1,0l2.4,4l2.4,-4l1.1,0l0,7.6l-1,0l0,-6l-2.5,4.2l-0.1,0l-2.5,-4.1l0.1,5.9l0,0zm17.5,-3.8c0,2.2 -1.7,4 -4,4c-2.2,0 -3.9,-1.8 -3.9,-4s1.7,-4 3.9,-4c2.3,0 4,1.8 4,4zm-1,0c0,-1.7 -1.3,-3 -2.9,-3c-1.7,0 -2.9,1.3 -2.9,3s1.3,3 2.9,3c1.7,0 2.9,-1.3 2.9,-3zm8.4,0.8l1.8,3.1l-1.1,0l-1.7,-2.9l-1.8,0l0,2.9l-1,0l0,-7.6l3,0c1.3,0 2.4,1.1 2.4,2.4c0,0.8 -0.7,1.7 -1.6,2.1zm-0.8,-0.8c0.8,0 1.4,-0.6 1.4,-1.4c0,-0.8 -0.6,-1.4 -1.4,-1.4l-2,0l0,2.8l2,0l0,0zm10.5,2.9l-3.5,0l0,-2.4l3.2,0l0,-0.9l-3.2,0l0,-2.3l3.5,0l0,-1l-4.5,0l0,7.6l4.6,0l-0.1,-1l0,0zm-31.7,20.6l-2.5,-6.7l-2.1,0l3.5,8.9l2.2,0l3.5,-8.9l-2.1,0l-2.5,6.7zm5.8,2.1l1.9,0l0,-8.9l-1.9,0l0,8.9zm1,-12.6c-0.7,0 -1.2,0.5 -1.2,1.2s0.5,1.2 1.2,1.2s1.2,-0.6 1.2,-1.2c0,-0.7 -0.6,-1.2 -1.2,-1.2zm4.2,0c-0.7,0 -1.2,0.5 -1.2,1.2s0.5,1.2 1.2,1.2s1.2,-0.6 1.2,-1.2c0.1,-0.7 -0.5,-1.2 -1.2,-1.2zm-0.9,13c0,1.2 -0.5,1.7 -1.7,1.6l0,1.8c2.4,0.2 3.6,-1 3.6,-3.4l0,-9.2l-1.9,0l0,9.2l0,0zm11.1,-9.3l1.9,0l0,8.9l-1.9,0l0,-1.3c-0.7,0.9 -1.7,1.5 -3.1,1.5c-2.4,0 -4.4,-2 -4.4,-4.7c0,-2.6 2,-4.7 4.4,-4.7c1.4,0 2.4,0.6 3.1,1.5l0,-1.2zm0,4.5c0,-1.6 -1.2,-2.8 -2.8,-2.8s-2.8,1.2 -2.8,2.8s1.2,2.8 2.8,2.8s2.8,-1.2 2.8,-2.8zm7.9,2l-2.6,-6.4l-2.1,0l3.8,8.7l-0.1,0.2c-0.4,1.2 -1.1,1.8 -2.4,1.7l0,1.8c2,0.1 3.5,-1 4.3,-3.3l3.4,-9.1l-2,0l-2.3,6.4zm9,0.3l-2.5,-6.7l-2.1,0l3.5,8.9l2.2,0l3.5,-8.9l-2.1,0l-2.5,6.7zm14.1,-2.3c0,0.3 0,0.5 -0.1,0.8l-7,0c0.3,1.4 1.4,2.1 2.8,2.1c1.1,0 1.9,-0.5 2.3,-1.1l1.6,0.9c-0.8,1.2 -2.1,1.9 -3.9,1.9c-2.9,0 -4.8,-2 -4.8,-4.7c0,-2.6 1.9,-4.7 4.7,-4.7c2.5,0.1 4.4,2.2 4.4,4.8zm-2,-0.8c-0.3,-1.5 -1.4,-2.2 -2.5,-2.2c-1.4,0 -2.4,0.8 -2.7,2.2l5.2,0zm5.5,-2.2l0,-1.5l-1.9,0l0,8.9l1.9,0l0,-4.5c0,-2 1.5,-2.6 2.7,-2.5l0,-2.1c-1,0.1 -2.1,0.5 -2.7,1.7zm13.9,-1.7c-1.2,0 -2.1,0.5 -2.7,1.4c-0.5,-0.9 -1.4,-1.4 -2.5,-1.4s-2,0.4 -2.5,1.3l0,-1.1l-1.9,0l0,8.9l1.9,0l0,-5c0,-1.6 0.9,-2.3 2,-2.3c1,0 1.7,0.7 1.7,1.9l0,5.4l1.9,0l0,-5c0,-1.6 0.8,-2.3 1.9,-2.3c1,0 1.7,0.7 1.7,1.9l0,5.4l1.9,0l0,-5.5c-0.1,-2.2 -1.4,-3.6 -3.4,-3.6zm12.4,0.2l1.9,0l0,8.9l-1.9,0l0,-1.3c-0.7,0.9 -1.7,1.5 -3.1,1.5c-2.4,0 -4.4,-2 -4.4,-4.7c0,-2.6 2,-4.7 4.4,-4.7c1.4,0 2.4,0.6 3.1,1.5l0,-1.2zm0,4.5c0,-1.6 -1.2,-2.8 -2.8,-2.8s-2.8,1.2 -2.8,2.8s1.2,2.8 2.8,2.8s2.8,-1.2 2.8,-2.8zm5.3,2c-0.7,0 -1.3,0.6 -1.3,1.3s0.6,1.3 1.3,1.3s1.3,-0.6 1.3,-1.3c0,-0.8 -0.6,-1.3 -1.3,-1.3zm6.8,0.7c-1.6,0 -2.7,-1.2 -2.7,-2.8s1.2,-2.8 2.7,-2.8c1.1,0 1.9,0.5 2.3,1.4l1.6,-1c-0.7,-1.4 -2.2,-2.3 -3.9,-2.3c-2.7,0 -4.7,2 -4.7,4.7c0,2.6 2,4.7 4.7,4.7c1.7,0 3.2,-0.9 4,-2.3l-1.6,-0.9c-0.5,0.8 -1.4,1.3 -2.4,1.3zm14.1,-2.7c0,2.6 -2.1,4.7 -4.7,4.7c-2.6,0 -4.7,-2 -4.7,-4.7c0,-2.6 2.1,-4.7 4.7,-4.7c2.6,0 4.7,2 4.7,4.7zm-1.9,0c0,-1.6 -1.2,-2.8 -2.8,-2.8s-2.8,1.2 -2.8,2.8s1.2,2.8 2.8,2.8s2.8,-1.2 2.8,-2.8z" class="st1"/>
   </g>
  </g>
  <g id="svg_53">
   <rect stroke-miterlimit="10" stroke-linejoin="round" stroke-linecap="round" stroke-width="8" stroke="#0A7362" fill="#0A7362" height="151" width="32" class="st2" y="367" x="297" id="XMLID_49_"/>
   <path stroke-miterlimit="10" stroke-linejoin="round" stroke-linecap="round" stroke-width="8" stroke="#0A7362" fill="#0A7362" d="m329.4,620c-10.8,0 -21.7,0 -32.5,0c-2.1,-22 -2.1,-45 0,-68c10.8,0 21.7,0 32.5,0c2.1,23 2.1,46 0,68z" class="st2" id="XMLID_48_"/>
   <path stroke-miterlimit="10" stroke-linejoin="round" stroke-linecap="round" stroke-width="8" stroke="#0A7362" fill="#0A7362" d="m329.4,552c-10.8,0 -21.7,0 -32.5,0c6.7,-10 6.7,-23 0,-34c10.8,0 21.7,0 32.5,0c-6.7,11 -6.7,24 0,34z" class="st2" id="XMLID_47_"/>
   <path stroke-miterlimit="10" stroke-linejoin="round" stroke-linecap="round" stroke-width="8" stroke="#0A7362" fill="#0A7362" d="m317.3,667c5.4,-16 11.9,-31 12.1,-47l-32.5,0c0.2,16 6.7,31 12.1,47l8.3,0z" class="st2" id="XMLID_46_"/>
   <rect stroke-miterlimit="10" stroke-linejoin="round" stroke-linecap="round" stroke-width="8" stroke="#0A7362" fill="#0A7362" height="6" width="8" class="st2" y="667" x="309" id="XMLID_45_"/>
   <line stroke-miterlimit="10" stroke-linejoin="round" stroke-linecap="round" stroke-width="8" stroke="#0A7362" fill="none" y2="687" x2="313" y1="674" x1="313" class="st3" id="XMLID_44_"/>
   <rect stroke-miterlimit="10" stroke-linejoin="round" stroke-linecap="round" stroke-width="8" stroke="#0A7362" fill="#0A7362" height="22" width="24" class="st2" y="345" x="301" id="XMLID_43_"/>
   <path stroke-miterlimit="10" stroke-linejoin="round" stroke-linecap="round" stroke-width="8" stroke="#0A7362" fill="#0A7362" d="m322,345l-18,0l0,-25.7c0,-3.5 3.2,-6.3 6.7,-6.3l5,0c3.5,0 6.3,2.8 6.3,6.3l0,25.7z" class="st2" id="XMLID_42_"/>
   <rect stroke-miterlimit="10" stroke-linejoin="round" stroke-linecap="round" stroke-width="8" stroke="#0A7362" fill="#0A7362" height="18" width="31" class="st2" y="381" x="309" id="XMLID_41_"/>
   <polygon stroke-miterlimit="10" stroke-linejoin="round" stroke-linecap="round" stroke-width="8" stroke="#0A7362" fill="#0A7362" points="340,460.3 329,445.8 329,399 340,399  " class="st2" id="XMLID_40_"/>
   <path fill="#102D3B" d="m322.4,547c-10.8,0 -21.7,0 -32.5,0c6.7,-10 6.7,-23 0,-34c10.8,0 21.7,0 32.5,0c-6.7,11 -6.7,24 0,34z" class="st4" id="XMLID_24_"/>
   <path stroke-miterlimit="10" stroke-linejoin="round" stroke-linecap="round" stroke-width="8" stroke="#0A7362" fill="#0A7362" d="m674,694l-276,0l0,-396l276,0c9.9,0 18,7.8 18,17.7l0,360c0,10 -8.1,18.3 -18,18.3z" class="st2" id="XMLID_38_"/>
   <path stroke-miterlimit="10" stroke-linejoin="round" stroke-linecap="round" stroke-width="8" stroke="#0A7362" fill="#0A7362" d="m635,702l-14,0c-2.8,0 -5,-2.2 -5,-5l0,-402c0,-2.8 2.2,-5 5,-5l14,0c2.8,0 5,2.2 5,5l0,402c0,2.8 -2.2,5 -5,5z" class="st2" id="XMLID_36_"/>
   <polygon stroke-miterlimit="10" stroke-linejoin="round" stroke-linecap="round" stroke-width="8" stroke="#0A7362" fill="#0A7362" points="459,739.7 429,723 429,694 459,694  " class="st2" id="XMLID_34_"/>
   <path fill="#4C5B60" d="m664,679l-276,0l0,-396l276,0c9.9,0 18,7.8 18,17.7l0,360c0,10 -8.1,18.3 -18,18.3z" class="st5" id="XMLID_19_"/>
   <rect fill="#3E4B4F" height="396" width="24" class="st6" y="283" x="617" id="XMLID_54_"/>
   <rect enable-background="new" fill="#CCDDE5" opacity="0.3" height="396" width="17" class="st7" y="283" x="388" id="XMLID_50_"/>
   <g id="svg_54">
    <defs>
     <path d="m664,679l-276,0l0,-396l276,0c9.9,0 18,7.8 18,17.7l0,360c0,10 -8.1,18.3 -18,18.3z" id="XMLID_7_"/>
    </defs>
    <clipPath id="XMLID_58_">
     <use id="svg_55" xlink:href="#XMLID_7_"/>
    </clipPath>
    <g clip-path="url(#XMLID_58_)" opacity="0.11" class="st8" id="XMLID_57_">
     <g id="svg_56">
      <g id="svg_57">
       <path id="svg_58" fill="#102D3B" d="m359.4,983.6c-0.4,0 -0.8,-0.1 -1.1,-0.4c-0.6,-0.6 -0.6,-1.5 0,-2.1l344.4,-344.3c0.6,-0.6 1.5,-0.6 2.1,0s0.6,1.5 0,2.1l-344.3,344.3c-0.3,0.3 -0.7,0.4 -1.1,0.4z" class="st4"/>
      </g>
     </g>
     <g id="svg_59">
      <g id="svg_60">
       <path id="svg_61" fill="#102D3B" d="m359.4,969.6c-0.4,0 -0.8,-0.1 -1.1,-0.4c-0.6,-0.6 -0.6,-1.5 0,-2.1l344.4,-344.3c0.6,-0.6 1.5,-0.6 2.1,0s0.6,1.5 0,2.1l-344.3,344.3c-0.3,0.3 -0.7,0.4 -1.1,0.4z" class="st4"/>
      </g>
     </g>
     <g id="svg_62">
      <g id="svg_63">
       <path id="svg_64" fill="#102D3B" d="m359.4,955.6c-0.4,0 -0.8,-0.1 -1.1,-0.4c-0.6,-0.6 -0.6,-1.5 0,-2.1l344.4,-344.3c0.6,-0.6 1.5,-0.6 2.1,0s0.6,1.5 0,2.1l-344.3,344.3c-0.3,0.3 -0.7,0.4 -1.1,0.4z" class="st4"/>
      </g>
     </g>
     <g id="svg_65">
      <g id="svg_66">
       <path id="svg_67" fill="#102D3B" d="m359.4,941.6c-0.4,0 -0.8,-0.1 -1.1,-0.4c-0.6,-0.6 -0.6,-1.5 0,-2.1l344.4,-344.3c0.6,-0.6 1.5,-0.6 2.1,0s0.6,1.5 0,2.1l-344.3,344.3c-0.3,0.3 -0.7,0.4 -1.1,0.4z" class="st4"/>
      </g>
     </g>
     <g id="svg_68">
      <g id="svg_69">
       <path id="svg_70" fill="#102D3B" d="m359.4,927.6c-0.4,0 -0.8,-0.1 -1.1,-0.4c-0.6,-0.6 -0.6,-1.5 0,-2.1l344.4,-344.3c0.6,-0.6 1.5,-0.6 2.1,0s0.6,1.5 0,2.1l-344.3,344.3c-0.3,0.3 -0.7,0.4 -1.1,0.4z" class="st4"/>
      </g>
     </g>
     <g id="svg_71">
      <g id="svg_72">
       <path id="svg_73" fill="#102D3B" d="m359.4,913.6c-0.4,0 -0.8,-0.1 -1.1,-0.4c-0.6,-0.6 -0.6,-1.5 0,-2.1l344.4,-344.3c0.6,-0.6 1.5,-0.6 2.1,0s0.6,1.5 0,2.1l-344.3,344.3c-0.3,0.3 -0.7,0.4 -1.1,0.4z" class="st4"/>
      </g>
     </g>
     <g id="svg_74">
      <g id="svg_75">
       <path id="svg_76" fill="#102D3B" d="m359.4,899.6c-0.4,0 -0.8,-0.1 -1.1,-0.4c-0.6,-0.6 -0.6,-1.5 0,-2.1l344.4,-344.3c0.6,-0.6 1.5,-0.6 2.1,0s0.6,1.5 0,2.1l-344.3,344.3c-0.3,0.3 -0.7,0.4 -1.1,0.4z" class="st4"/>
      </g>
     </g>
     <g id="svg_77">
      <g id="svg_78">
       <path id="svg_79" fill="#102D3B" d="m359.4,885.6c-0.4,0 -0.8,-0.1 -1.1,-0.4c-0.6,-0.6 -0.6,-1.5 0,-2.1l344.4,-344.3c0.6,-0.6 1.5,-0.6 2.1,0s0.6,1.5 0,2.1l-344.3,344.3c-0.3,0.3 -0.7,0.4 -1.1,0.4z" class="st4"/>
      </g>
     </g>
     <g id="svg_80">
      <g id="svg_81">
       <path id="svg_82" fill="#102D3B" d="m359.4,871.6c-0.4,0 -0.8,-0.1 -1.1,-0.4c-0.6,-0.6 -0.6,-1.5 0,-2.1l344.4,-344.3c0.6,-0.6 1.5,-0.6 2.1,0s0.6,1.5 0,2.1l-344.3,344.3c-0.3,0.3 -0.7,0.4 -1.1,0.4z" class="st4"/>
      </g>
     </g>
     <g id="svg_83">
      <g id="svg_84">
       <path id="svg_85" fill="#102D3B" d="m359.4,857.6c-0.4,0 -0.8,-0.1 -1.1,-0.4c-0.6,-0.6 -0.6,-1.5 0,-2.1l344.4,-344.3c0.6,-0.6 1.5,-0.6 2.1,0s0.6,1.5 0,2.1l-344.3,344.3c-0.3,0.3 -0.7,0.4 -1.1,0.4z" class="st4"/>
      </g>
     </g>
     <g id="svg_86">
      <g id="svg_87">
       <path id="svg_88" fill="#102D3B" d="m359.4,843.6c-0.4,0 -0.8,-0.1 -1.1,-0.4c-0.6,-0.6 -0.6,-1.5 0,-2.1l344.4,-344.3c0.6,-0.6 1.5,-0.6 2.1,0s0.6,1.5 0,2.1l-344.3,344.3c-0.3,0.3 -0.7,0.4 -1.1,0.4z" class="st4"/>
      </g>
     </g>
     <g id="svg_89">
      <g id="svg_90">
       <path id="svg_91" fill="#102D3B" d="m359.4,829.6c-0.4,0 -0.8,-0.1 -1.1,-0.4c-0.6,-0.6 -0.6,-1.5 0,-2.1l344.4,-344.3c0.6,-0.6 1.5,-0.6 2.1,0s0.6,1.5 0,2.1l-344.3,344.3c-0.3,0.3 -0.7,0.4 -1.1,0.4z" class="st4"/>
      </g>
     </g>
     <g id="svg_92">
      <g id="svg_93">
       <path id="svg_94" fill="#102D3B" d="m359.4,815.6c-0.4,0 -0.8,-0.1 -1.1,-0.4c-0.6,-0.6 -0.6,-1.5 0,-2.1l344.4,-344.3c0.6,-0.6 1.5,-0.6 2.1,0s0.6,1.5 0,2.1l-344.3,344.3c-0.3,0.3 -0.7,0.4 -1.1,0.4z" class="st4"/>
      </g>
     </g>
     <g id="svg_95">
      <g id="svg_96">
       <path id="svg_97" fill="#102D3B" d="m359.4,801.6c-0.4,0 -0.8,-0.1 -1.1,-0.4c-0.6,-0.6 -0.6,-1.5 0,-2.1l344.4,-344.3c0.6,-0.6 1.5,-0.6 2.1,0s0.6,1.5 0,2.1l-344.3,344.3c-0.3,0.3 -0.7,0.4 -1.1,0.4z" class="st4"/>
      </g>
     </g>
     <g id="svg_98">
      <g id="svg_99">
       <path id="svg_100" fill="#102D3B" d="m359.4,787.6c-0.4,0 -0.8,-0.1 -1.1,-0.4c-0.6,-0.6 -0.6,-1.5 0,-2.1l344.4,-344.3c0.6,-0.6 1.5,-0.6 2.1,0s0.6,1.5 0,2.1l-344.3,344.3c-0.3,0.3 -0.7,0.4 -1.1,0.4z" class="st4"/>
      </g>
     </g>
     <g id="svg_101">
      <g id="svg_102">
       <path id="svg_103" fill="#102D3B" d="m359.4,773.6c-0.4,0 -0.8,-0.1 -1.1,-0.4c-0.6,-0.6 -0.6,-1.5 0,-2.1l344.4,-344.3c0.6,-0.6 1.5,-0.6 2.1,0s0.6,1.5 0,2.1l-344.3,344.3c-0.3,0.3 -0.7,0.4 -1.1,0.4z" class="st4"/>
      </g>
     </g>
     <g id="svg_104">
      <g id="svg_105">
       <path id="svg_106" fill="#102D3B" d="m359.4,759.6c-0.4,0 -0.8,-0.1 -1.1,-0.4c-0.6,-0.6 -0.6,-1.5 0,-2.1l344.4,-344.3c0.6,-0.6 1.5,-0.6 2.1,0s0.6,1.5 0,2.1l-344.3,344.3c-0.3,0.3 -0.7,0.4 -1.1,0.4z" class="st4"/>
      </g>
     </g>
     <g id="svg_107">
      <g id="svg_108">
       <path id="svg_109" fill="#102D3B" d="m359.4,745.6c-0.4,0 -0.8,-0.1 -1.1,-0.4c-0.6,-0.6 -0.6,-1.5 0,-2.1l344.4,-344.3c0.6,-0.6 1.5,-0.6 2.1,0s0.6,1.5 0,2.1l-344.3,344.3c-0.3,0.3 -0.7,0.4 -1.1,0.4z" class="st4"/>
      </g>
     </g>
     <g id="svg_110">
      <g id="svg_111">
       <path id="svg_112" fill="#102D3B" d="m359.4,731.6c-0.4,0 -0.8,-0.1 -1.1,-0.4c-0.6,-0.6 -0.6,-1.5 0,-2.1l344.4,-344.3c0.6,-0.6 1.5,-0.6 2.1,0s0.6,1.5 0,2.1l-344.3,344.3c-0.3,0.3 -0.7,0.4 -1.1,0.4z" class="st4"/>
      </g>
     </g>
     <g id="svg_113">
      <g id="svg_114">
       <path id="svg_115" fill="#102D3B" d="m359.4,717.6c-0.4,0 -0.8,-0.1 -1.1,-0.4c-0.6,-0.6 -0.6,-1.5 0,-2.1l344.4,-344.3c0.6,-0.6 1.5,-0.6 2.1,0s0.6,1.5 0,2.1l-344.3,344.3c-0.3,0.3 -0.7,0.4 -1.1,0.4z" class="st4"/>
      </g>
     </g>
     <g id="svg_116">
      <g id="svg_117">
       <path id="svg_118" fill="#102D3B" d="m359.4,703.6c-0.4,0 -0.8,-0.1 -1.1,-0.4c-0.6,-0.6 -0.6,-1.5 0,-2.1l344.4,-344.3c0.6,-0.6 1.5,-0.6 2.1,0s0.6,1.5 0,2.1l-344.3,344.3c-0.3,0.3 -0.7,0.4 -1.1,0.4z" class="st4"/>
      </g>
     </g>
     <g id="svg_119">
      <g id="svg_120">
       <path id="svg_121" fill="#102D3B" d="m359.4,689.6c-0.4,0 -0.8,-0.1 -1.1,-0.4c-0.6,-0.6 -0.6,-1.5 0,-2.1l344.4,-344.3c0.6,-0.6 1.5,-0.6 2.1,0s0.6,1.5 0,2.1l-344.3,344.3c-0.3,0.3 -0.7,0.4 -1.1,0.4z" class="st4"/>
      </g>
     </g>
     <g id="svg_122">
      <g id="svg_123">
       <path id="svg_124" fill="#102D3B" d="m359.4,675.6c-0.4,0 -0.8,-0.1 -1.1,-0.4c-0.6,-0.6 -0.6,-1.5 0,-2.1l344.4,-344.3c0.6,-0.6 1.5,-0.6 2.1,0s0.6,1.5 0,2.1l-344.3,344.3c-0.3,0.3 -0.7,0.4 -1.1,0.4z" class="st4"/>
      </g>
     </g>
     <g id="svg_125">
      <g id="svg_126">
       <path id="svg_127" fill="#102D3B" d="m359.4,661.6c-0.4,0 -0.8,-0.1 -1.1,-0.4c-0.6,-0.6 -0.6,-1.5 0,-2.1l344.4,-344.3c0.6,-0.6 1.5,-0.6 2.1,0s0.6,1.5 0,2.1l-344.3,344.3c-0.3,0.3 -0.7,0.4 -1.1,0.4z" class="st4"/>
      </g>
     </g>
     <g id="svg_128">
      <g id="svg_129">
       <path id="svg_130" fill="#102D3B" d="m359.4,647.6c-0.4,0 -0.8,-0.1 -1.1,-0.4c-0.6,-0.6 -0.6,-1.5 0,-2.1l344.4,-344.3c0.6,-0.6 1.5,-0.6 2.1,0s0.6,1.5 0,2.1l-344.3,344.3c-0.3,0.3 -0.7,0.4 -1.1,0.4z" class="st4"/>
      </g>
     </g>
     <g id="svg_131">
      <g id="svg_132">
       <path id="svg_133" fill="#102D3B" d="m359.4,633.6c-0.4,0 -0.8,-0.1 -1.1,-0.4c-0.6,-0.6 -0.6,-1.5 0,-2.1l344.4,-344.3c0.6,-0.6 1.5,-0.6 2.1,0s0.6,1.5 0,2.1l-344.3,344.3c-0.3,0.3 -0.7,0.4 -1.1,0.4z" class="st4"/>
      </g>
     </g>
     <g id="svg_134">
      <g id="svg_135">
       <path id="svg_136" fill="#102D3B" d="m359.4,619.6c-0.4,0 -0.8,-0.1 -1.1,-0.4c-0.6,-0.6 -0.6,-1.5 0,-2.1l344.4,-344.3c0.6,-0.6 1.5,-0.6 2.1,0s0.6,1.5 0,2.1l-344.3,344.3c-0.3,0.3 -0.7,0.4 -1.1,0.4z" class="st4"/>
      </g>
     </g>
     <g id="svg_137">
      <g id="svg_138">
       <path id="svg_139" fill="#102D3B" d="m359.4,605.6c-0.4,0 -0.8,-0.1 -1.1,-0.4c-0.6,-0.6 -0.6,-1.5 0,-2.1l344.4,-344.3c0.6,-0.6 1.5,-0.6 2.1,0s0.6,1.5 0,2.1l-344.3,344.3c-0.3,0.3 -0.7,0.4 -1.1,0.4z" class="st4"/>
      </g>
     </g>
     <g id="svg_140">
      <g id="svg_141">
       <path id="svg_142" fill="#102D3B" d="m359.4,591.6c-0.4,0 -0.8,-0.1 -1.1,-0.4c-0.6,-0.6 -0.6,-1.5 0,-2.1l344.4,-344.3c0.6,-0.6 1.5,-0.6 2.1,0s0.6,1.5 0,2.1l-344.3,344.3c-0.3,0.3 -0.7,0.4 -1.1,0.4z" class="st4"/>
      </g>
     </g>
     <g id="svg_143">
      <g id="svg_144">
       <path id="svg_145" fill="#102D3B" d="m359.4,577.6c-0.4,0 -0.8,-0.1 -1.1,-0.4c-0.6,-0.6 -0.6,-1.5 0,-2.1l344.4,-344.3c0.6,-0.6 1.5,-0.6 2.1,0s0.6,1.5 0,2.1l-344.3,344.3c-0.3,0.3 -0.7,0.4 -1.1,0.4z" class="st4"/>
      </g>
     </g>
     <g id="svg_146">
      <g id="svg_147">
       <path id="svg_148" fill="#102D3B" d="m359.4,563.6c-0.4,0 -0.8,-0.1 -1.1,-0.4c-0.6,-0.6 -0.6,-1.5 0,-2.1l344.4,-344.3c0.6,-0.6 1.5,-0.6 2.1,0s0.6,1.5 0,2.1l-344.3,344.3c-0.3,0.3 -0.7,0.4 -1.1,0.4z" class="st4"/>
      </g>
     </g>
     <g id="svg_149">
      <g id="svg_150">
       <path id="svg_151" fill="#102D3B" d="m359.4,549.6c-0.4,0 -0.8,-0.1 -1.1,-0.4c-0.6,-0.6 -0.6,-1.5 0,-2.1l344.4,-344.3c0.6,-0.6 1.5,-0.6 2.1,0s0.6,1.5 0,2.1l-344.3,344.3c-0.3,0.3 -0.7,0.4 -1.1,0.4z" class="st4"/>
      </g>
     </g>
     <g id="svg_152">
      <g id="svg_153">
       <path id="svg_154" fill="#102D3B" d="m359.4,535.6c-0.4,0 -0.8,-0.1 -1.1,-0.4c-0.6,-0.6 -0.6,-1.5 0,-2.1l344.4,-344.3c0.6,-0.6 1.5,-0.6 2.1,0s0.6,1.5 0,2.1l-344.3,344.3c-0.3,0.3 -0.7,0.4 -1.1,0.4z" class="st4"/>
      </g>
     </g>
     <g id="svg_155">
      <g id="svg_156">
       <path id="svg_157" fill="#102D3B" d="m359.4,521.6c-0.4,0 -0.8,-0.1 -1.1,-0.4c-0.6,-0.6 -0.6,-1.5 0,-2.1l344.4,-344.3c0.6,-0.6 1.5,-0.6 2.1,0s0.6,1.5 0,2.1l-344.3,344.3c-0.3,0.3 -0.7,0.4 -1.1,0.4z" class="st4"/>
      </g>
     </g>
     <g id="svg_158">
      <g id="svg_159">
       <path id="svg_160" fill="#102D3B" d="m359.4,507.6c-0.4,0 -0.8,-0.1 -1.1,-0.4c-0.6,-0.6 -0.6,-1.5 0,-2.1l344.4,-344.3c0.6,-0.6 1.5,-0.6 2.1,0s0.6,1.5 0,2.1l-344.3,344.3c-0.3,0.3 -0.7,0.4 -1.1,0.4z" class="st4"/>
      </g>
     </g>
     <g id="svg_161">
      <g id="svg_162">
       <path id="svg_163" fill="#102D3B" d="m359.4,493.6c-0.4,0 -0.8,-0.1 -1.1,-0.4c-0.6,-0.6 -0.6,-1.5 0,-2.1l344.4,-344.3c0.6,-0.6 1.5,-0.6 2.1,0s0.6,1.5 0,2.1l-344.3,344.3c-0.3,0.3 -0.7,0.4 -1.1,0.4z" class="st4"/>
      </g>
     </g>
     <g id="svg_164">
      <g id="svg_165">
       <path id="svg_166" fill="#102D3B" d="m359.4,479.6c-0.4,0 -0.8,-0.1 -1.1,-0.4c-0.6,-0.6 -0.6,-1.5 0,-2.1l344.4,-344.3c0.6,-0.6 1.5,-0.6 2.1,0s0.6,1.5 0,2.1l-344.3,344.3c-0.3,0.3 -0.7,0.4 -1.1,0.4z" class="st4"/>
      </g>
     </g>
     <g id="svg_167">
      <g id="svg_168">
       <path id="svg_169" fill="#102D3B" d="m359.4,465.6c-0.4,0 -0.8,-0.1 -1.1,-0.4c-0.6,-0.6 -0.6,-1.5 0,-2.1l344.4,-344.4c0.6,-0.6 1.5,-0.6 2.1,0c0.6,0.6 0.6,1.5 0,2.1l-344.3,344.4c-0.3,0.3 -0.7,0.4 -1.1,0.4z" class="st4"/>
      </g>
     </g>
     <g id="svg_170">
      <g id="svg_171">
       <path id="svg_172" fill="#102D3B" d="m359.4,451.6c-0.4,0 -0.8,-0.1 -1.1,-0.4c-0.6,-0.6 -0.6,-1.5 0,-2.1l344.4,-344.4c0.6,-0.6 1.5,-0.6 2.1,0c0.6,0.6 0.6,1.5 0,2.1l-344.3,344.4c-0.3,0.3 -0.7,0.4 -1.1,0.4z" class="st4"/>
      </g>
     </g>
     <g id="svg_173">
      <g id="svg_174">
       <path id="svg_175" fill="#102D3B" d="m359.4,437.6c-0.4,0 -0.8,-0.1 -1.1,-0.4c-0.6,-0.6 -0.6,-1.5 0,-2.1l344.4,-344.5c0.6,-0.6 1.5,-0.6 2.1,0c0.6,0.6 0.6,1.5 0,2.1l-344.3,344.5c-0.3,0.3 -0.7,0.4 -1.1,0.4z" class="st4"/>
      </g>
     </g>
     <g id="svg_176">
      <g id="svg_177">
       <path id="svg_178" fill="#102D3B" d="m359.4,423.6c-0.4,0 -0.8,-0.1 -1.1,-0.4c-0.6,-0.6 -0.6,-1.5 0,-2.1l344.4,-344.5c0.6,-0.6 1.5,-0.6 2.1,0c0.6,0.6 0.6,1.5 0,2.1l-344.3,344.5c-0.3,0.3 -0.7,0.4 -1.1,0.4z" class="st4"/>
      </g>
     </g>
     <g id="svg_179">
      <g id="svg_180">
       <path id="svg_181" fill="#102D3B" d="m359.4,409.6c-0.4,0 -0.8,-0.1 -1.1,-0.4c-0.6,-0.6 -0.6,-1.5 0,-2.1l344.4,-344.5c0.6,-0.6 1.5,-0.6 2.1,0c0.6,0.6 0.6,1.5 0,2.1l-344.3,344.5c-0.3,0.3 -0.7,0.4 -1.1,0.4z" class="st4"/>
      </g>
     </g>
     <g id="svg_182">
      <g id="svg_183">
       <path id="svg_184" fill="#102D3B" d="m359.4,395.6c-0.4,0 -0.8,-0.1 -1.1,-0.4c-0.6,-0.6 -0.6,-1.5 0,-2.1l344.4,-344.5c0.6,-0.6 1.5,-0.6 2.1,0c0.6,0.6 0.6,1.5 0,2.1l-344.3,344.5c-0.3,0.3 -0.7,0.4 -1.1,0.4z" class="st4"/>
      </g>
     </g>
     <g id="svg_185">
      <g id="svg_186">
       <path id="svg_187" fill="#102D3B" d="m359.4,381.6c-0.4,0 -0.8,-0.1 -1.1,-0.4c-0.6,-0.6 -0.6,-1.5 0,-2.1l344.4,-344.5c0.6,-0.6 1.5,-0.6 2.1,0c0.6,0.6 0.6,1.5 0,2.1l-344.3,344.5c-0.3,0.3 -0.7,0.4 -1.1,0.4z" class="st4"/>
      </g>
     </g>
     <g id="svg_188">
      <g id="svg_189">
       <path id="svg_190" fill="#102D3B" d="m359.4,367.6c-0.4,0 -0.8,-0.1 -1.1,-0.4c-0.6,-0.6 -0.6,-1.5 0,-2.1l344.4,-344.5c0.6,-0.6 1.5,-0.6 2.1,0c0.6,0.6 0.6,1.5 0,2.1l-344.3,344.5c-0.3,0.3 -0.7,0.4 -1.1,0.4z" class="st4"/>
      </g>
     </g>
     <g id="svg_191">
      <g id="svg_192">
       <path id="svg_193" fill="#102D3B" d="m359.4,353.6c-0.4,0 -0.8,-0.1 -1.1,-0.4c-0.6,-0.6 -0.6,-1.5 0,-2.1l344.4,-344.5c0.6,-0.6 1.5,-0.6 2.1,0c0.6,0.6 0.6,1.5 0,2.1l-344.3,344.5c-0.3,0.3 -0.7,0.4 -1.1,0.4z" class="st4"/>
      </g>
     </g>
     <g id="svg_194">
      <g id="svg_195">
       <path id="svg_196" fill="#102D3B" d="m359.4,339.6c-0.4,0 -0.8,-0.1 -1.1,-0.4c-0.6,-0.6 -0.6,-1.5 0,-2.1l312.8,-313c0.6,-0.6 1.5,-0.6 2.1,0c0.6,0.6 0.6,1.5 0,2.1l-312.7,313c-0.3,0.3 -0.7,0.4 -1.1,0.4z" class="st4"/>
      </g>
     </g>
     <g id="svg_197">
      <g id="svg_198">
       <path id="svg_199" fill="#102D3B" d="m359.4,325.6c-0.4,0 -0.8,-0.1 -1.1,-0.4c-0.6,-0.6 -0.6,-1.5 0,-2.1l293.4,-293.5c0.6,-0.6 1.5,-0.6 2.1,0c0.6,0.6 0.6,1.5 0,2.1l-293.3,293.5c-0.3,0.3 -0.7,0.4 -1.1,0.4z" class="st4"/>
      </g>
     </g>
    </g>
   </g>
   <path stroke-miterlimit="10" stroke-linejoin="round" stroke-linecap="round" stroke-width="8" stroke="#102D3B" fill="none" d="m664,679l-276,0l0,-396l276,0c9.9,0 18,7.8 18,17.7l0,360c0,10 -8.1,18.3 -18,18.3z" class="st9" id="XMLID_1_"/>
   <rect stroke-miterlimit="10" stroke-linejoin="round" stroke-linecap="round" stroke-width="8" stroke="#102D3B" fill="none" height="396" width="34" class="st9" y="283" x="388" id="XMLID_21_"/>
   <rect fill="#FF9852" height="112" width="294" class="st10" y="397" x="388" id="XMLID_31_"/>
   <g id="svg_200">
    <path id="svg_201" fill="#D85639" d="m519.2,431.4c0,2.1 -0.4,3.8 -1.2,5.1s-1.7,2.3 -2.7,3.1c-1.5,1.2 -3.5,1.7 -6.2,1.7l-11.1,0l0,-20.6l8.6,0c1.3,0 2.4,0.1 3.3,0.2s1.7,0.3 2.5,0.6s1.4,0.5 1.9,0.8s1,0.6 1.4,1c0.7,0.6 1.3,1.3 1.8,2s1,1.7 1.3,2.7c0.3,1.1 0.4,2.2 0.4,3.4zm-6.3,-0.2c0,-1.7 -0.3,-3 -1,-3.9c-0.6,-0.9 -1.4,-1.6 -2.3,-1.9s-1.8,-0.5 -2.7,-0.5l-2.6,0l0,12.2l2.6,0c1.6,0 3,-0.4 4.2,-1.2s1.8,-2.3 1.8,-4.7z" class="st11"/>
    <path id="svg_202" fill="#D85639" d="m545.1,431c0,1.9 -0.4,3.7 -1.3,5.3c-0.9,1.6 -2.2,2.9 -4,3.8s-3.9,1.4 -6.4,1.4s-4.7,-0.5 -6.5,-1.5s-3.1,-2.3 -3.9,-3.9c-0.9,-1.6 -1.3,-3.3 -1.3,-5.2c0,-1.9 0.4,-3.6 1.3,-5.2c0.9,-1.6 2.2,-2.9 3.9,-3.9c1.8,-1 3.9,-1.5 6.5,-1.5c1.9,0 3.6,0.3 5.1,0.8s2.7,1.3 3.7,2.3s1.7,2.1 2.2,3.4s0.7,2.8 0.7,4.2zm-6.3,0c0,-0.8 -0.1,-1.5 -0.3,-2.1s-0.6,-1.2 -1,-1.7c-0.5,-0.5 -1,-0.8 -1.7,-1.1s-1.4,-0.4 -2.3,-0.4c-1.7,0 -3,0.5 -3.9,1.5s-1.4,2.2 -1.4,3.8s0.5,2.8 1.4,3.8c1,1 2.3,1.5 3.9,1.5c1.1,0 2.1,-0.2 2.9,-0.7s1.4,-1.1 1.8,-1.9c0.3,-0.7 0.6,-1.6 0.6,-2.7z" class="st11"/>
    <path id="svg_203" fill="#D85639" d="m566.9,425.8l-7.5,0l0,15.6l-6.2,0l0,-15.6l-7.5,0l0,-5l21.3,0l-0.1,5l0,0z" class="st11"/>
    <path id="svg_204" fill="#D85639" d="m517.5,464.4c-0.4,0.2 -0.8,0.3 -1.1,0.4s-0.6,0.2 -0.9,0.3c-0.3,0.1 -0.7,0.2 -1.3,0.3c-0.9,0.2 -1.9,0.4 -2.8,0.5c-0.9,0.1 -1.9,0.2 -3,0.2c-2.1,0 -4,-0.4 -5.8,-1.1c-1.8,-0.8 -3.2,-1.9 -4.3,-3.5c-1.1,-1.6 -1.6,-3.6 -1.6,-5.9c0,-1.5 0.3,-3 0.8,-4.4s1.4,-2.6 2.5,-3.5c0.9,-0.7 1.9,-1.3 2.8,-1.7c1,-0.4 1.9,-0.6 2.8,-0.8c0.9,-0.1 1.9,-0.2 3,-0.2c1.8,0 3.3,0.1 4.5,0.4c1.2,0.3 2.5,0.6 3.9,1.1l0,4.9c-0.9,-0.5 -1.9,-1 -3,-1.4c-1,-0.4 -2.3,-0.5 -3.9,-0.5c-1.8,0 -3.2,0.3 -4.3,1c-1.1,0.7 -1.8,1.5 -2.2,2.4c-0.4,0.9 -0.6,1.9 -0.6,2.7c0,1 0.2,2 0.7,2.9s1.2,1.6 2.2,2.1s2.2,0.8 3.5,0.8c0.8,0 1.6,-0.1 2.5,-0.3l0,-2.4l-2.8,0l0,-4.1l8.2,0l0,9.8l0.2,0z" class="st11"/>
    <path id="svg_205" fill="#D85639" d="m542.3,465.9l-6.7,0l-1.6,-3.7c-0.6,-1.3 -1.1,-2.3 -1.6,-2.9s-0.9,-1 -1.4,-1.2s-1,-0.3 -1.7,-0.3l-0.7,0l0,8l-6.2,0l0,-20.6l10.6,0c1.7,0 3.1,0.3 4.2,1c1.1,0.7 1.9,1.5 2.4,2.5s0.7,1.9 0.7,2.8c0,1 -0.2,1.9 -0.6,2.6c-0.4,0.7 -0.8,1.2 -1.3,1.6c-0.4,0.3 -0.9,0.6 -1.5,0.9c0.7,0.4 1.2,0.8 1.6,1.4s1,1.6 1.8,3.2l2,4.7zm-8.4,-14.1c0,-1 -0.3,-1.6 -0.9,-2c-0.6,-0.4 -1.6,-0.6 -3,-0.6l-1.3,0l0,5l1.3,0c1.5,0 2.6,-0.2 3.1,-0.5s0.8,-1 0.8,-1.9z" class="st11"/>
    <path id="svg_206" fill="#D85639" d="m551.3,465.9l-6.2,0l0,-20.6l6.2,0l0,20.6z" class="st11"/>
    <path id="svg_207" fill="#D85639" d="m577.7,455.9c0,2.1 -0.4,3.8 -1.2,5.1s-1.7,2.3 -2.7,3.1c-1.5,1.2 -3.5,1.7 -6.2,1.7l-11.1,0l0,-20.6l8.6,0c1.3,0 2.4,0.1 3.3,0.2c0.9,0.1 1.7,0.3 2.5,0.6s1.4,0.5 1.9,0.8s1,0.6 1.4,1c0.7,0.6 1.3,1.3 1.8,2s1,1.7 1.3,2.7c0.2,1.1 0.4,2.2 0.4,3.4zm-6.3,-0.2c0,-1.7 -0.3,-3 -1,-3.9c-0.6,-0.9 -1.4,-1.6 -2.3,-1.9c-0.9,-0.3 -1.8,-0.5 -2.7,-0.5l-2.6,0l0,12.2l2.6,0c1.6,0 3,-0.4 4.2,-1.2s1.8,-2.3 1.8,-4.7z" class="st11"/>
    <path id="svg_208" fill="#D85639" d="m516.9,484.5c0,1.8 -0.6,3.2 -1.8,4.2c-1.2,1.1 -2.9,1.6 -5.1,1.6l-11.9,0l0,-20.6l9.9,0c1.3,0 2.4,0.1 3.4,0.4c1,0.2 1.7,0.6 2.3,1s1,0.9 1.3,1.5s0.4,1.2 0.4,1.9c0,0.8 -0.1,1.4 -0.4,2.1s-0.7,1.2 -1.1,1.6s-0.9,0.7 -1.3,0.9c1.4,0.6 2.5,1.3 3.2,2.1s1.1,2 1.1,3.3zm-7.3,-8.8c0,-1 -0.3,-1.6 -1,-2s-1.7,-0.5 -3.1,-0.5l-1.3,0l0,4.9l1.3,0c1.4,0 2.4,-0.2 3.1,-0.5c0.7,-0.2 1,-0.9 1,-1.9zm1,8.6c0,-1.8 -1.3,-2.6 -3.8,-2.6l-2.5,0l0,5.3l2.5,0c2.6,-0.1 3.8,-1 3.8,-2.7z" class="st11"/>
    <path id="svg_209" fill="#D85639" d="m542.9,480.1c0,1.9 -0.4,3.7 -1.3,5.3c-0.9,1.6 -2.2,2.9 -4,3.8s-3.9,1.4 -6.4,1.4s-4.7,-0.5 -6.5,-1.5s-3.1,-2.3 -3.9,-3.9c-0.9,-1.6 -1.3,-3.3 -1.3,-5.2c0,-1.9 0.4,-3.6 1.3,-5.2c0.9,-1.6 2.2,-2.9 3.9,-3.9c1.8,-1 3.9,-1.5 6.5,-1.5c1.9,0 3.6,0.3 5.1,0.8s2.7,1.3 3.7,2.3s1.7,2.1 2.2,3.4s0.7,2.7 0.7,4.2zm-6.4,0c0,-0.8 -0.1,-1.5 -0.3,-2.1s-0.6,-1.2 -1,-1.7c-0.5,-0.5 -1,-0.8 -1.7,-1.1s-1.4,-0.4 -2.3,-0.4c-1.7,0 -3,0.5 -3.9,1.5s-1.4,2.2 -1.4,3.8s0.5,2.8 1.4,3.8c1,1 2.3,1.5 3.9,1.5c1.1,0 2.1,-0.2 2.9,-0.7s1.4,-1.1 1.8,-1.9c0.4,-0.8 0.6,-1.7 0.6,-2.7z" class="st11"/>
    <path id="svg_210" fill="#D85639" d="m568.7,480.1c0,1.9 -0.4,3.7 -1.3,5.3c-0.9,1.6 -2.2,2.9 -4,3.8s-3.9,1.4 -6.4,1.4s-4.7,-0.5 -6.5,-1.5s-3.1,-2.3 -3.9,-3.9c-0.9,-1.6 -1.3,-3.3 -1.3,-5.2c0,-1.9 0.4,-3.6 1.3,-5.2c0.9,-1.6 2.2,-2.9 3.9,-3.9c1.8,-1 3.9,-1.5 6.5,-1.5c1.9,0 3.6,0.3 5.1,0.8s2.7,1.3 3.7,2.3s1.7,2.1 2.2,3.4s0.7,2.7 0.7,4.2zm-6.3,0c0,-0.8 -0.1,-1.5 -0.3,-2.1s-0.6,-1.2 -1,-1.7c-0.5,-0.5 -1,-0.8 -1.7,-1.1s-1.4,-0.4 -2.3,-0.4c-1.7,0 -3,0.5 -3.9,1.5s-1.4,2.2 -1.4,3.8s0.5,2.8 1.4,3.8c1,1 2.3,1.5 3.9,1.5c1.1,0 2.1,-0.2 2.9,-0.7s1.4,-1.1 1.8,-1.9c0.4,-0.8 0.6,-1.7 0.6,-2.7z" class="st11"/>
    <path id="svg_211" fill="#D85639" d="m594.2,490.4l-7.6,0l-7.9,-9.6l0,9.6l-6.2,0l0,-20.6l6.2,0l0,9.2l7.5,-9.2l6.7,0l-7.7,9.6l9,11z" class="st11"/>
   </g>
   <line stroke-miterlimit="10" stroke-width="8" stroke="#D85639" fill="none" opacity="0.6" y2="509" x2="422" y1="397" x1="422" class="st12" id="XMLID_53_"/>
   <rect fill="#FDBA5D" height="112" width="17" class="st13" y="397" x="388" id="XMLID_51_"/>
   <rect enable-background="new" fill="#D85639" opacity="0.61" height="112" width="17" class="st14" y="397" x="624" id="XMLID_56_"/>
   <rect stroke-miterlimit="10" stroke-linejoin="round" stroke-linecap="round" stroke-width="8" stroke="#102D3B" fill="none" height="112" width="294" class="st9" y="397" x="388" id="XMLID_3_"/>
   <path fill="#B7C8CE" d="m624.2,687l-12.3,0c-3.2,0 -5.8,-2.6 -5.8,-5.8l0,-400.4c0,-3.2 2.6,-5.8 5.8,-5.8l12.3,0c3.2,0 5.8,2.6 5.8,5.8l0,400.3c0,3.3 -2.6,5.9 -5.8,5.9z" class="st15" id="XMLID_4_"/>
   <path stroke-miterlimit="10" stroke-linejoin="round" stroke-linecap="round" stroke-width="8" stroke="#102D3B" fill="none" d="m624.2,687l-12.3,0c-3.2,0 -5.8,-2.6 -5.8,-5.8l0,-400.4c0,-3.2 2.6,-5.8 5.8,-5.8l12.3,0c3.2,0 5.8,2.6 5.8,5.8l0,400.3c0,3.3 -2.6,5.9 -5.8,5.9z" class="st9" id="XMLID_2_"/>
   <polygon fill="#EA3939" points="449,724.7 419,708 419,679 449,679  " class="st16" id="XMLID_20_"/>
   <rect enable-background="new" fill="#EA3939" opacity="0.62" height="11.3" width="30" class="st17" y="679" x="419" id="XMLID_60_"/>
   <polygon stroke-miterlimit="10" stroke-linejoin="round" stroke-linecap="round" stroke-width="8" stroke="#102D3B" fill="none" points="449,724.7 419,708 419,679 449,679  " class="st9" id="XMLID_5_"/>
   <rect fill="#526066" height="151" width="32" class="st18" y="362" x="290" id="XMLID_22_"/>
   <rect fill="#526066" height="151" width="32" class="st18" y="362" x="290" id="XMLID_32_"/>
   <rect enable-background="new" fill="#526066" opacity="0.64" height="151" width="10" class="st19" y="362" x="290" id="XMLID_33_"/>
   <rect enable-background="new" fill="#526066" opacity="0.3" height="151" width="9" class="st20" y="362" x="313" id="XMLID_35_"/>
   <rect stroke-miterlimit="10" stroke-linejoin="round" stroke-linecap="round" stroke-width="8" stroke="#102D3B" fill="none" height="151" width="32" class="st9" y="362" x="290" id="XMLID_6_"/>
   <path fill="#42708A" d="m322.4,615c-10.8,0 -21.7,0 -32.5,0c-2.1,-22 -2.1,-45 0,-68c10.8,0 21.7,0 32.5,0c2.1,23 2.1,46 0,68z" class="st21" id="XMLID_23_"/>
   <path fill="#526066" d="m322.4,615c-10.8,0 -21.7,0 -32.5,0c-2.1,-22 -2.1,-45 0,-68c10.8,0 21.7,0 32.5,0c2.1,23 2.1,46 0,68z" class="st18" id="XMLID_25_"/>
   <path enable-background="new" fill="#526066" opacity="0.3" d="m322.4,547c-2.6,0 -5.2,0 -7.8,0c2.1,23 2.1,46 0,68c2.6,0 5.2,0 7.8,0c2.1,-22 2.1,-45 0,-68z" class="st20" id="XMLID_59_"/>
   <path enable-background="new" fill="#CCDDE5" opacity="0.73" d="m301.4,614c-1.6,0 -3.1,0 -4.7,0c-2.1,-21.7 -2.1,-44.3 -0.1,-67c1.6,0 3.2,0 4.8,0c-2,22.7 -2,45.3 0,67z" class="st22" id="XMLID_37_"/>
   <path stroke-miterlimit="10" stroke-linejoin="round" stroke-linecap="round" stroke-width="8" stroke="#102D3B" fill="none" d="m322.4,615c-10.8,0 -21.7,0 -32.5,0c-2.1,-22 -2.1,-45 0,-68c10.8,0 21.7,0 32.5,0c2.1,23 2.1,46 0,68z" class="st9" id="XMLID_10_"/>
   <rect stroke-miterlimit="10" stroke-linejoin="round" stroke-linecap="round" stroke-width="8" stroke="#102D3B" fill="none" height="21" width="36" class="st9" y="571" x="288" id="XMLID_8_"/>
   <path stroke-miterlimit="10" stroke-linejoin="round" stroke-linecap="round" stroke-width="8" stroke="#102D3B" fill="none" d="m322.4,547c-10.8,0 -21.7,0 -32.5,0c6.7,-10 6.7,-23 0,-34c10.8,0 21.7,0 32.5,0c-6.7,11 -6.7,24 0,34z" class="st9" id="XMLID_9_"/>
   <path fill="#CCDDE5" d="m310.3,662c5.4,-16 11.9,-31 12.1,-47l-32.5,0c0.2,16 6.7,31 12.1,47l8.3,0z" class="st23" id="XMLID_26_"/>
   <path fill="#FFFFFF" d="m322.4,615c0,0.3 0,0.7 0,1l-21.4,0c0.1,15.7 2.9,30.7 6.2,46l-5.2,0c-5.4,-16 -11.9,-31 -12.1,-47l32.5,0z" class="st24" id="XMLID_39_"/>
   <path stroke-miterlimit="10" stroke-linejoin="round" stroke-linecap="round" stroke-width="8" stroke="#102D3B" fill="none" d="m310.3,662c5.4,-16 11.9,-31 12.1,-47l-32.5,0c0.2,16 6.7,31 12.1,47l8.3,0z" class="st9" id="XMLID_14_"/>
   <rect stroke-miterlimit="10" stroke-linejoin="round" stroke-linecap="round" stroke-width="8" stroke="#102D3B" fill="none" height="6" width="8" class="st9" y="662" x="302" id="XMLID_11_"/>
   <line stroke-miterlimit="10" stroke-linejoin="round" stroke-linecap="round" stroke-width="8" stroke="#102D3B" fill="none" y2="682" x2="306" y1="669" x1="306" class="st9" id="XMLID_13_"/>
   <rect stroke-miterlimit="10" stroke-linejoin="round" stroke-linecap="round" stroke-width="8" stroke="#102D3B" fill="none" height="22" width="24" class="st9" y="340" x="294" id="XMLID_12_"/>
   <rect fill="#102D3B" height="22" width="24" class="st4" y="340" x="294" id="XMLID_29_"/>
   <path fill="#CCDDE5" d="m315,340l-18,0l0,-25.7c0,-3.5 3.2,-6.3 6.7,-6.3l5,0c3.5,0 6.3,2.8 6.3,6.3l0,25.7z" class="st23" id="XMLID_30_"/>
   <path stroke-miterlimit="10" stroke-linejoin="round" stroke-linecap="round" stroke-width="8" stroke="#102D3B" fill="none" d="m315,340l-18,0l0,-25.7c0,-3.5 3.2,-6.3 6.7,-6.3l5,0c3.5,0 6.3,2.8 6.3,6.3l0,25.7z" class="st9" id="XMLID_16_"/>
   <rect fill="#CCDDE5" height="18" width="31" class="st23" y="376" x="302" id="XMLID_27_"/>
   <rect stroke-miterlimit="10" stroke-linejoin="round" stroke-linecap="round" stroke-width="8" stroke="#102D3B" fill="none" height="18" width="31" class="st9" y="376" x="302" id="XMLID_15_"/>
   <polygon fill="#CCDDE5" points="333,455.3 322,440.8 322,394 333,394  " class="st23" id="XMLID_28_"/>
   <polygon stroke-miterlimit="10" stroke-linejoin="round" stroke-linecap="round" stroke-width="8" stroke="#102D3B" fill="none" points="333,455.3 322,440.8 322,394 333,394  " class="st9" id="XMLID_17_"/>
   <path enable-background="new" stroke-miterlimit="10" stroke-linejoin="round" stroke-linecap="round" stroke-width="8" stroke="#102D3B" fill="none" opacity="0.38" d="m422,397" class="st25" id="XMLID_52_"/>
  </g>
 </g>
</svg>