<svg width="1000" height="1000" xmlns="http://www.w3.org/2000/svg" version="1.1" xml:space="preserve">
 <g>
  <title>Layer 1</title>
  <ellipse id="XMLID_3_" class="st2" cx="497.4" cy="719.9" rx="133.9" ry="18.6" opacity="0.86" fill="#2D2C3A"/>
  <path id="XMLID_14_" class="st3" d="m628.7,411.1l-3.2,0c-1.8,0 -3.5,0.8 -4.5,2.2c-5,7.2 -5.7,15.7 -5.7,24.8c0,9.1 0.7,17.6 5.7,24.8c1,1.4 2.7,2.2 4.5,2.2l3.2,0c1.9,0 3.7,-1.4 4.1,-3.1c3,-15.8 2.2,-32.1 0,-47.8c-0.3,-1.7 -2.2,-3.1 -4.1,-3.1z" fill="#8E9091"/>
  <path id="XMLID_15_" class="st4" d="m628.7,411.1l-3.2,0c-1.8,0 -3.5,0.8 -4.5,2.2c-5,7.2 -5.7,15.7 -5.7,24.8c0,9.1 0.7,17.6 5.7,24.8c1,1.4 2.7,2.2 4.5,2.2l3.2,0c1.9,0 3.7,-1.4 4.1,-3.1c3,-15.8 2.2,-32.1 0,-47.8c-0.3,-1.7 -2.2,-3.1 -4.1,-3.1z" opacity="0.91" fill="#95A0C6"/>
  <path id="XMLID_11_" class="st5" d="m628.7,411.1l-3.2,0c-1.8,0 -3.5,0.8 -4.5,2.2c-5,7.2 -5.7,15.7 -5.7,24.8c0,9.1 0.7,17.6 5.7,24.8c1,1.4 2.7,2.2 4.5,2.2l3.2,0c1.9,0 3.7,-1.4 4.1,-3.1c3,-15.8 2.2,-32.1 0,-47.8c-0.3,-1.7 -2.2,-3.1 -4.1,-3.1z" fill="none" stroke="#192244" stroke-width="6" stroke-linecap="round" stroke-linejoin="round" stroke-miterlimit="10"/>
  <path id="XMLID_13_" class="st6" d="m579.3,331.5c-3.4,-11.3 -3.8,-21.8 -4.2,-28.8c-0.3,-6 -0.1,-24 -5.1,-29.2c-4.4,-4.6 -8.5,-7.8 -28.5,-10.8c-10.8,-1.6 -27.8,-3.7 -43.8,-4c-16,0.3 -33,2.3 -43.8,4c-20,3 -24,6.2 -28.5,10.8c-5,5.1 -4.8,23.1 -5.1,29.2c-0.4,7 -0.8,17.5 -4.2,28.8c-1.6,5.3 -3.6,10.4 -6,15.3l87.7,0l87.7,0c-2.6,-4.8 -4.6,-10 -6.2,-15.3z" fill="#55C9FF"/>
  <path id="XMLID_10_" class="st7" d="m579.3,331.5c-3.4,-11.3 -3.8,-21.8 -4.2,-28.8c-0.3,-6 -0.1,-24 -5.1,-29.2c-4.4,-4.6 -8.5,-7.8 -28.5,-10.8c-10.8,-1.6 -27.8,-3.7 -43.8,-4c-16,0.3 -33,2.3 -43.8,4c-20,3 -24,6.2 -28.5,10.8c-5,5.1 -4.8,23.1 -5.1,29.2c-0.4,7 -0.8,17.5 -4.2,28.8c-1.6,5.3 -3.6,10.4 -6,15.3l87.7,0l87.7,0c-2.6,-4.8 -4.6,-10 -6.2,-15.3z" fill="none" stroke="#26A7BC" stroke-width="4" stroke-linecap="round" stroke-linejoin="round" stroke-miterlimit="10"/>
  <path id="XMLID_48_" class="st8" d="m579.3,651.6c-3.4,11.3 -3.8,21.8 -4.2,28.8c-0.3,6 -0.1,24 -5.1,29.2c-4.4,4.6 -8.5,7.8 -28.5,10.8c-10.8,1.6 -27.8,3.7 -43.8,4c-16,-0.3 -33,-2.3 -43.8,-4c-20,-3 -24,-6.2 -28.5,-10.8c-5,-5.1 -4.8,-23.1 -5.1,-29.2c-0.4,-7 -0.8,-17.5 -4.2,-28.8c-1.6,-5.3 -3.6,-10.4 -6,-15.3l87.7,0l87.7,0c-2.6,4.9 -4.6,10 -6.2,15.3z" fill="#49C6F2"/>
  <path id="XMLID_62_" class="st9" d="m410,636.3c2.3,4.6 4.2,9.5 5.8,14.5l163.8,0c1.6,-5 3.5,-9.9 5.8,-14.5l-87.7,0l-87.7,0z" fill="#26A7BC"/>
  <path id="XMLID_31_" class="st7" d="m579.3,651.6c-3.4,11.3 -3.8,21.8 -4.2,28.8c-0.3,6 -0.1,24 -5.1,29.2c-4.4,4.6 -8.5,7.8 -28.5,10.8c-10.8,1.6 -27.8,3.7 -43.8,4c-16,-0.3 -33,-2.3 -43.8,-4c-20,-3 -24,-6.2 -28.5,-10.8c-5,-5.1 -4.8,-23.1 -5.1,-29.2c-0.4,-7 -0.8,-17.5 -4.2,-28.8c-1.6,-5.3 -3.6,-10.4 -6,-15.3l87.7,0l87.7,0c-2.6,4.9 -4.6,10 -6.2,15.3z" fill="none" stroke="#26A7BC" stroke-width="4" stroke-linecap="round" stroke-linejoin="round" stroke-miterlimit="10"/>
  <path id="XMLID_9_" class="st10" d="m577.1,636.3l-159.4,0c-24.3,0 -44,-19.7 -44,-44l0,-202c0,-24.3 19.7,-44 44,-44l159.4,0c24.3,0 44,19.7 44,44l0,202c0,24.3 -19.7,44 -44,44z" fill="#404A6E"/>
  <path id="XMLID_43_" class="st11" d="m577.1,618.3l-159.4,0c-24.3,0 -44,-19.7 -44,-44l0,18c0,24.3 19.7,44 44,44l159.4,0c24.3,0 44,-19.7 44,-44l0,-18c0,24.3 -19.7,44 -44,44z" fill="#273052"/>
  <path id="XMLID_12_" class="st10" d="m389.3,592.3l0,-202c0,-15.5 12.5,-28 28,-28l160.2,0c15.5,0 28,12.5 28,28l0,202c0,15.5 -12.5,28 -28,28l-160.2,0c-15.5,0 -28,-12.5 -28,-28z" fill="#404A6E"/>
  <path id="XMLID_6_" class="st12" d="m389.3,592.3l0,-202c0,-15.5 12.5,-28 28,-28l160.2,0c15.5,0 28,12.5 28,28l0,202c0,15.5 -12.5,28 -28,28l-160.2,0c-15.5,0 -28,-12.5 -28,-28z" fill="none" stroke="#192244" stroke-width="4" stroke-linecap="round" stroke-linejoin="round" stroke-miterlimit="10"/>
  <path id="XMLID_27_" class="st13" d="m601.6,353c-7,-4.2 -15.4,-6.7 -24.5,-6.7l-159.4,0c-9.6,0 -18.5,2.8 -25.7,7.5c6,9.9 17.7,16.5 31.1,16.5l146.9,0c13.8,0 25.7,-7 31.6,-17.3z" opacity="0.91" fill="#6D7493"/>
  <path id="XMLID_5_" class="st13" d="m629.9,499.2c0,-1.7 -1.6,-3 -3.4,-3c-1.8,0 -3.5,0 -5.3,0l0,83.3c1.8,0 3.5,0 5.3,0c1.9,0 3.4,-1.3 3.4,-3c0.5,-25.7 0.5,-51.5 0,-77.3z" opacity="0.91" fill="#6D7493"/>
  <path id="XMLID_17_" class="st5" d="m629.9,499.2c0,-1.7 -1.6,-3 -3.4,-3c-1.8,0 -3.5,0 -5.3,0l0,83.3c1.8,0 3.5,0 5.3,0c1.9,0 3.4,-1.3 3.4,-3c0.5,-25.7 0.5,-51.5 0,-77.3z" fill="none" stroke="#192244" stroke-width="6" stroke-linecap="round" stroke-linejoin="round" stroke-miterlimit="10"/>
  <path id="XMLID_2_" class="st14" d="m577.1,636.3l-159.4,0c-24.3,0 -44,-19.7 -44,-44l0,-202c0,-24.3 19.7,-44 44,-44l159.4,0c24.3,0 44,19.7 44,44l0,202c0,24.3 -19.7,44 -44,44z" fill="none" stroke="#192244" stroke-width="7" stroke-linecap="round" stroke-linejoin="round" stroke-miterlimit="10"/>
  <path id="XMLID_20_" class="st15" d="m438.4,426.9l0,7.2c0,2.2 -1.8,4 -4,4l-15.3,0c-2.2,0 -4,-1.8 -4,-4l0,-15.3c0,-2.2 1.8,-4 4,-4l10.8,0" fill="none" stroke="#F6537F" stroke-width="4" stroke-linecap="round" stroke-linejoin="round" stroke-miterlimit="10"/>
  <polyline id="XMLID_16_" class="st16" points="421.8,423.5 427.7,429.3 438.4,416 " fill="none" stroke="#F6537F" stroke-width="5" stroke-linecap="round" stroke-linejoin="round" stroke-miterlimit="10"/>
  <line id="XMLID_19_" class="st17" x1="413" y1="458" x2="478.6" y2="458" fill="none" stroke="#F6537F" stroke-width="2" stroke-linejoin="round" stroke-miterlimit="10"/>
  <g id="svg_107">
   <g id="svg_108">
    <path class="st18" d="m442.7,465.5l0,33.9c0,1.4 -0.1,2.7 -0.2,3.9c-0.2,1.2 -0.4,2.2 -0.7,3.1c-0.6,1.4 -1.3,2.6 -2.3,3.8s-2.1,2.1 -3.4,2.9c-1.3,0.8 -2.7,1.4 -4.3,1.9c-1.6,0.5 -3.2,0.7 -5,0.7c-5.2,0 -9.5,-2.4 -12.8,-7.2l8.3,-8.5c0.2,1.5 0.7,2.6 1.4,3.5c0.7,0.9 1.6,1.3 2.7,1.3c2.4,0 3.6,-1.9 3.6,-5.6l0,-33.7l12.7,0z" fill="#2EC2F1" id="svg_109"/>
    <path class="st18" d="m462,481.1l0,18.7c0,4.1 2,6.1 6,6.1c4,0 6,-2 6,-6.1l0,-18.7l11.7,0l0,21c0,4.5 -1.5,7.9 -4.4,10.1c-3,2.2 -7.4,3.4 -13.2,3.4c-5.9,0 -10.3,-1.1 -13.2,-3.4c-3,-2.2 -4.4,-5.6 -4.4,-10.1l0,-21l11.5,0z" fill="#2EC2F1" id="svg_110"/>
    <path class="st18" d="m514.1,489.7c-2.2,-1.1 -4.3,-1.7 -6.3,-1.7c-1.1,0 -2,0.2 -2.6,0.6c-0.7,0.4 -1,1 -1,1.7c0,0.4 0.1,0.7 0.2,0.9c0.1,0.2 0.3,0.5 0.7,0.7c0.4,0.2 0.9,0.4 1.6,0.6c0.7,0.2 1.7,0.4 2.8,0.6c3.2,0.6 5.7,1.8 7.2,3.5c1.6,1.7 2.4,3.8 2.4,6.4c0,1.9 -0.4,3.7 -1.2,5.2s-1.9,2.9 -3.2,3.9c-1.4,1.1 -3,1.9 -5,2.5c-1.9,0.6 -4.1,0.9 -6.4,0.9c-4.5,0 -8.9,-1.3 -13.3,-3.8l4.3,-8.3c3.3,2.2 6.4,3.4 9.3,3.4c1.1,0 2,-0.2 2.7,-0.7c0.7,-0.5 1,-1.1 1,-1.8c0,-0.4 -0.1,-0.8 -0.2,-1.1c-0.1,-0.3 -0.3,-0.5 -0.7,-0.8c-0.3,-0.2 -0.9,-0.5 -1.5,-0.6c-0.7,-0.2 -1.5,-0.4 -2.6,-0.6c-3.6,-0.7 -6.2,-1.8 -7.6,-3.3c-1.4,-1.4 -2.2,-3.4 -2.2,-6c0,-1.9 0.3,-3.5 1,-5c0.7,-1.5 1.7,-2.8 3,-3.8c1.3,-1 2.9,-1.8 4.7,-2.4c1.8,-0.6 3.9,-0.8 6.1,-0.8c3.7,0 7.2,0.7 10.7,2.1l-3.9,7.7z" fill="#2EC2F1" id="svg_111"/>
    <path class="st18" d="m537.4,490.9l0,23.4l-11.7,0l0,-23.4l-3.9,0l0,-9.8l3.9,0l0,-10l11.7,0l0,10l6.7,0l0,9.8l-6.7,0z" fill="#2EC2F1" id="svg_112"/>
   </g>
  </g>
  <g id="svg_113">
   <path class="st19" d="m417.6,530.8l18.8,0c3.3,0 6.4,0.7 9.4,2c2.9,1.3 5.5,3.1 7.6,5.3c2.2,2.2 3.9,4.8 5.1,7.8c1.3,3 1.9,6.1 1.9,9.3c0,3.2 -0.6,6.3 -1.8,9.2s-2.9,5.6 -5.1,7.8c-2.2,2.2 -4.7,4 -7.6,5.4c-2.9,1.3 -6.1,2 -9.4,2l-18.8,0l0,-48.8l-0.1,0zm12.7,38l2.9,0c2.2,0 4.2,-0.3 5.9,-1c1.7,-0.7 3.2,-1.6 4.4,-2.8c1.2,-1.2 2.1,-2.6 2.7,-4.3c0.6,-1.7 0.9,-3.5 0.9,-5.5c0,-1.9 -0.3,-3.8 -1,-5.4c-0.6,-1.7 -1.6,-3.1 -2.8,-4.3c-1.2,-1.2 -2.6,-2.2 -4.4,-2.8c-1.7,-0.7 -3.7,-1 -5.8,-1l-2.9,0l0,27.1l0.1,0z" fill="#FFFFFF" id="svg_114"/>
   <path class="st19" d="m464.5,562.7c0,-2.5 0.5,-4.8 1.5,-6.9c1,-2.1 2.4,-4 4.1,-5.6c1.8,-1.6 3.9,-2.8 6.3,-3.7c2.4,-0.9 5.1,-1.4 8,-1.4c2.8,0 5.5,0.4 7.9,1.3c2.4,0.9 4.6,2.1 6.3,3.7c1.8,1.6 3.2,3.5 4.2,5.6c1,2.2 1.5,4.6 1.5,7.2c0,2.6 -0.5,5 -1.5,7.2c-1,2.2 -2.4,4.1 -4.2,5.6c-1.8,1.6 -3.9,2.8 -6.4,3.7c-2.5,0.9 -5.2,1.3 -8.1,1.3c-2.8,0 -5.5,-0.4 -7.9,-1.3c-2.4,-0.9 -4.5,-2.1 -6.2,-3.7c-1.7,-1.6 -3.1,-3.5 -4.1,-5.7c-0.9,-2.1 -1.4,-4.6 -1.4,-7.3zm12.4,0.1c0,1.1 0.2,2.1 0.6,3.1c0.4,0.9 0.9,1.7 1.6,2.4c0.7,0.7 1.5,1.2 2.4,1.6c0.9,0.4 1.9,0.6 2.9,0.6c1,0 2,-0.2 2.9,-0.6c0.9,-0.4 1.7,-0.9 2.4,-1.6c0.7,-0.7 1.2,-1.5 1.6,-2.4c0.4,-0.9 0.6,-1.9 0.6,-3c0,-1 -0.2,-2 -0.6,-2.9c-0.4,-0.9 -0.9,-1.7 -1.6,-2.4c-0.7,-0.7 -1.5,-1.2 -2.4,-1.6c-0.9,-0.4 -1.9,-0.6 -2.9,-0.6c-1,0 -2,0.2 -2.9,0.6c-0.9,0.4 -1.7,0.9 -2.4,1.6c-0.7,0.7 -1.2,1.5 -1.6,2.4c-0.4,0.8 -0.6,1.8 -0.6,2.8z" fill="#FFFFFF" id="svg_115"/>
   <path class="st19" d="m543.8,530.8l0,48.8l-12.7,0l0,-48.8l12.7,0z" fill="#FFFFFF" id="svg_116"/>
   <path class="st19" d="m564.5,556.1l0,23.4l-11.7,0l0,-23.4l-3.9,0l0,-9.8l3.9,0l0,-10l11.7,0l0,10l6.7,0l0,9.8l-6.7,0z" fill="#FFFFFF" id="svg_117"/>
   <path class="st19" d="m573.4,573.3c0,-1 0.2,-2 0.6,-2.9c0.4,-0.9 0.9,-1.7 1.6,-2.4c0.7,-0.7 1.5,-1.2 2.4,-1.6c0.9,-0.4 1.9,-0.6 2.9,-0.6s2,0.2 2.9,0.6c0.9,0.4 1.7,0.9 2.4,1.6c0.7,0.7 1.2,1.5 1.6,2.4c0.4,0.9 0.6,1.9 0.6,2.9c0,1 -0.2,2 -0.6,2.9c-0.4,0.9 -0.9,1.7 -1.6,2.4c-0.7,0.7 -1.5,1.2 -2.4,1.6c-0.9,0.4 -1.9,0.6 -2.9,0.6s-2,-0.2 -2.9,-0.6c-0.9,-0.4 -1.7,-0.9 -2.4,-1.6c-0.7,-0.7 -1.2,-1.5 -1.6,-2.4c-0.4,-0.8 -0.6,-1.8 -0.6,-2.9z" fill="#FFFFFF" id="svg_118"/>
  </g>
  <g id="svg_119">
   <path class="st19" d="m546,385.7c0,3.5 -1.3,5.5 -3.6,5.5c-2,0 -3.4,-1.9 -3.4,-5.3c0,-3.5 1.5,-5.4 3.6,-5.4c2.2,-0.1 3.4,1.9 3.4,5.2zm-5.6,0.2c0,2.7 0.8,4.2 2.1,4.2c1.4,0 2.1,-1.7 2.1,-4.3c0,-2.6 -0.7,-4.2 -2.1,-4.2c-1.2,-0.1 -2.1,1.4 -2.1,4.3z" fill="#FFFFFF" id="svg_120"/>
   <path class="st19" d="m553.5,381.8l-4,0l-0.4,2.7c0.2,0 0.5,-0.1 0.8,-0.1c0.8,0 1.6,0.2 2.2,0.6c0.8,0.5 1.5,1.4 1.5,2.7c0,2 -1.6,3.6 -3.9,3.6c-1.1,0 -2.1,-0.3 -2.6,-0.6l0.4,-1.1c0.4,0.3 1.3,0.6 2.2,0.6c1.3,0 2.5,-0.9 2.5,-2.3c0,-1.3 -0.9,-2.3 -3,-2.3c-0.6,0 -1.1,0.1 -1.4,0.1l0.7,-5l5,0l0,1.1z" fill="#FFFFFF" id="svg_121"/>
   <path class="st19" d="m555.7,384.6c0,-0.6 0.4,-1 1,-1c0.6,0 0.9,0.4 0.9,1c0,0.6 -0.4,1 -1,1c-0.6,0 -0.9,-0.5 -0.9,-1zm0,5.6c0,-0.6 0.4,-1 1,-1c0.6,0 0.9,0.4 0.9,1c0,0.6 -0.4,1 -1,1c-0.6,0 -0.9,-0.4 -0.9,-1z" fill="#FFFFFF" id="svg_122"/>
   <path class="st19" d="m565.1,381.8l-4,0l-0.4,2.7c0.2,0 0.5,-0.1 0.8,-0.1c0.8,0 1.6,0.2 2.2,0.6c0.8,0.5 1.5,1.4 1.5,2.7c0,2 -1.6,3.6 -3.9,3.6c-1.1,0 -2.1,-0.3 -2.6,-0.6l0.4,-1.1c0.4,0.3 1.3,0.6 2.2,0.6c1.3,0 2.5,-0.9 2.5,-2.3c0,-1.3 -0.9,-2.3 -3,-2.3c-0.6,0 -1.1,0.1 -1.4,0.1l0.7,-5l5,0l0,1.1z" fill="#FFFFFF" id="svg_123"/>
   <path class="st19" d="m567.1,391l0,-0.9l1.1,-1.1c2.7,-2.5 3.9,-3.9 3.9,-5.4c0,-1.1 -0.5,-2 -2.1,-2c-0.9,0 -1.7,0.5 -2.2,0.9l-0.4,-1c0.7,-0.6 1.7,-1.1 2.9,-1.1c2.2,0 3.2,1.5 3.2,3c0,1.9 -1.4,3.5 -3.6,5.6l-0.8,0.8l0,0l4.7,0l0,1.2l-6.7,0z" fill="#FFFFFF" id="svg_124"/>
  </g>
  <g id="svg_125">
   <g id="svg_126">
    <path class="st19" d="m423.1,381.4l-3.3,0l0,-1.2l8,0l0,1.2l-3.3,0l0,9.6l-1.4,0l0,-9.6z" fill="#FFFFFF" id="svg_127"/>
    <path class="st19" d="m434.8,387.1c0,2.9 -2,4.1 -3.9,4.1c-2.1,0 -3.7,-1.5 -3.7,-4c0,-2.6 1.7,-4.1 3.8,-4.1c2.3,0 3.8,1.6 3.8,4zm-6.2,0.1c0,1.7 1,3 2.4,3c1.3,0 2.4,-1.3 2.4,-3c0,-1.3 -0.7,-3 -2.3,-3c-1.7,0 -2.5,1.5 -2.5,3z" fill="#FFFFFF" id="svg_128"/>
    <path class="st19" d="m443.2,379.7l0,9.4c0,0.7 0,1.5 0.1,2l-1.3,0l-0.1,-1.3l0,0c-0.4,0.9 -1.4,1.5 -2.6,1.5c-1.9,0 -3.3,-1.6 -3.3,-3.9c0,-2.6 1.6,-4.2 3.5,-4.2c1.2,0 2,0.6 2.3,1.2l0,0l0,-4.6l1.4,0l0,-0.1zm-1.4,6.7c0,-0.2 0,-0.4 -0.1,-0.6c-0.2,-0.9 -1,-1.6 -2,-1.6c-1.5,0 -2.3,1.3 -2.3,3c0,1.6 0.8,2.9 2.3,2.9c0.9,0 1.8,-0.6 2.1,-1.7c0,-0.2 0.1,-0.4 0.1,-0.6l0,-1.4l-0.1,0z" fill="#FFFFFF" id="svg_129"/>
    <path class="st19" d="m449.9,391l-0.1,-1l0,0c-0.4,0.6 -1.3,1.2 -2.4,1.2c-1.6,0 -2.4,-1.1 -2.4,-2.2c0,-1.9 1.7,-2.9 4.7,-2.9l0,-0.2c0,-0.6 -0.2,-1.8 -1.8,-1.8c-0.7,0 -1.5,0.2 -2,0.6l-0.3,-0.9c0.6,-0.4 1.6,-0.7 2.5,-0.7c2.4,0 2.9,1.6 2.9,3.2l0,2.9c0,0.7 0,1.3 0.1,1.9l-1.2,0l0,-0.1zm-0.2,-3.9c-1.5,0 -3.3,0.2 -3.3,1.7c0,0.9 0.6,1.3 1.3,1.3c1,0 1.6,-0.6 1.9,-1.3c0,-0.1 0.1,-0.3 0.1,-0.4l0,-1.3z" fill="#FFFFFF" id="svg_130"/>
    <path class="st19" d="m453.7,383.3l1.7,4.6c0.2,0.5 0.4,1.1 0.5,1.6l0,0c0.1,-0.5 0.3,-1.1 0.5,-1.6l1.5,-4.5l1.5,0l-2.1,5.5c-1,2.7 -1.7,4 -2.7,4.9c-0.7,0.6 -1.4,0.8 -1.7,0.9l-0.4,-1.2c0.4,-0.1 0.8,-0.3 1.2,-0.7c0.4,-0.3 0.9,-0.8 1.2,-1.6c0.1,-0.1 0.1,-0.3 0.1,-0.3s0,-0.2 -0.1,-0.4l-2.9,-7.1l1.7,0l0,-0.1z" fill="#FFFFFF" id="svg_131"/>
   </g>
  </g>
  <polyline id="XMLID_4_" class="st20" points="413.9,390.8 409,385.9 413.9,381 " fill="none" stroke="#F6537F" stroke-width="2" stroke-linecap="round" stroke-linejoin="round" stroke-miterlimit="10"/>
  <path fill="#413E51" opacity="NaN" d="m161,384l-42,48" id="svg_132"/>
 </g>

</svg>