<svg width="1000" height="1000" xmlns="http://www.w3.org/2000/svg" xml:space="preserve" version="1.1">

 <g>
  <title>Layer 1</title>
  <g id="svg_1">
   <g id="svg_2">
    <g id="svg_3">
     <path id="svg_4" fill="#EEF2F4" d="m63.2,959.2c0,2.5 -1.2,3.7 -2.6,3.7c-1.1,0 -1.9,-0.5 -2.1,-1.4c-0.4,0.5 -1,0.8 -1.8,0.8c-1.5,0 -2.6,-1.2 -2.6,-2.8c0,-1.6 1.1,-2.8 2.6,-2.8c0.7,0 1.2,0.3 1.6,0.7l0,-0.5l1.6,0l0,3.9c0,0.8 0.3,1.4 1,1.4c0.9,0 1.7,-0.9 1.7,-3c0,-3 -2.3,-5.3 -5.4,-5.3c-3.1,0 -5.6,2.4 -5.6,5.7c0,3.3 2.5,5.7 5.9,5.7c1.1,0 2.1,-0.2 2.9,-0.4l0,0.6c-0.8,0.3 -1.7,0.4 -2.9,0.4c-3.7,0 -6.5,-2.6 -6.5,-6.2c0,-3.4 2.7,-6.2 6.2,-6.2c3.9,-0.2 6,2.9 6,5.7zm-4.9,0.3c0,-0.8 -0.6,-1.4 -1.3,-1.4c-0.8,0 -1.3,0.5 -1.3,1.4c0,0.8 0.6,1.3 1.3,1.3c0.8,0.1 1.3,-0.5 1.3,-1.3z" class="st1"/>
    </g>
    <g id="svg_5">
     <path id="svg_6" fill="#EEF2F4" d="m69.4,955.1l0,2c-1.2,-0.1 -2.6,0.5 -2.6,2.4l0,4.3l-1.9,0l0,-8.6l1.9,0l0,1.4c0.5,-1.1 1.5,-1.5 2.6,-1.5z" class="st1"/>
    </g>
    <g id="svg_7">
     <path id="svg_8" fill="#EEF2F4" d="m74.6,962.3c1,0 1.8,-0.5 2.2,-1.1l1.5,0.9c-0.8,1.2 -2.1,1.9 -3.8,1.9c-2.8,0 -4.7,-1.9 -4.7,-4.5c0,-2.5 1.8,-4.5 4.5,-4.5c2.6,0 4.3,2.1 4.3,4.5c0,0.3 0,0.5 -0.1,0.8l-6.8,0c0.4,1.3 1.5,2 2.9,2zm2.3,-3.5c-0.3,-1.5 -1.3,-2.1 -2.5,-2.1c-1.4,0 -2.3,0.8 -2.6,2.1l5.1,0z" class="st1"/>
    </g>
    <g id="svg_9">
     <path id="svg_10" fill="#EEF2F4" d="m88.9,955.2l0,8.6l-1.9,0l0,-1.2c-0.7,0.9 -1.7,1.5 -3,1.5c-2.3,0 -4.3,-2 -4.3,-4.5c0,-2.6 1.9,-4.5 4.3,-4.5c1.3,0 2.3,0.5 3,1.4l0,-1.2l1.9,0l0,-0.1zm-1.8,4.3c0,-1.6 -1.2,-2.7 -2.7,-2.7c-1.5,0 -2.7,1.1 -2.7,2.7c0,1.6 1.2,2.7 2.7,2.7c1.5,0.1 2.7,-1.1 2.7,-2.7z" class="st1"/>
    </g>
    <g id="svg_11">
     <path id="svg_12" fill="#EEF2F4" d="m91.1,951.3l1.9,0l0,12.5l-1.9,0l0,-12.5z" class="st1"/>
    </g>
    <g id="svg_13">
     <path id="svg_14" fill="#EEF2F4" d="m102.9,955.2l-3.3,8.6l-2.1,0l-3.3,-8.6l2,0l2.4,6.5l2.4,-6.5l1.9,0z" class="st1"/>
    </g>
    <g id="svg_15">
     <path id="svg_16" fill="#EEF2F4" d="m104.2,955.2l1.9,0l0,8.9c0,2.4 -1.2,3.5 -3.5,3.3l0,-1.8c1.1,0.1 1.7,-0.3 1.7,-1.5l0,-8.9l-0.1,0zm-0.2,-2.4c0,-0.7 0.5,-1.2 1.2,-1.2c0.7,0 1.2,0.5 1.2,1.2c0,0.6 -0.5,1.2 -1.2,1.2c-0.7,0 -1.2,-0.6 -1.2,-1.2z" class="st1"/>
    </g>
    <g id="svg_17">
     <path id="svg_18" fill="#EEF2F4" d="m116,955.2l-3.3,8.8c-0.8,2.2 -2.2,3.3 -4.2,3.2l0,-1.7c1.2,0.1 1.9,-0.5 2.3,-1.7l0.1,-0.2l-3.6,-8.4l2,0l2.6,6.2l2.2,-6.2l1.9,0z" class="st1"/>
    </g>
   </g>
   <g id="svg_19">
    <path id="svg_20" fill="#EEF2F4" d="m211.9,938.7c0,2.1 -1.5,3.8 -3.6,3.8l-3,0l0,-7.6l3,0c2.1,0 3.6,1.7 3.6,3.8zm-1,0c0,-1.6 -1.1,-2.9 -2.6,-2.9l-2,0l0,5.7l2,0c1.5,0.1 2.6,-1.2 2.6,-2.8z" class="st1"/>
    <path id="svg_21" fill="#EEF2F4" d="m219.5,940.8l-3.4,0l-0.6,1.7l-1.1,0l2.8,-7.6l1.1,0l2.8,7.6l-1.1,0l-0.5,-1.7zm-0.3,-0.9l-1.4,-3.8l-1.4,3.8l2.8,0z" class="st1"/>
    <path id="svg_22" fill="#EEF2F4" d="m226.4,939.4l0,3.1l-1,0l0,-3.1l-2.7,-4.5l1.1,0l2.1,3.6l2.1,-3.6l1.1,0l-2.7,4.5z" class="st1"/>
    <path id="svg_23" fill="#EEF2F4" d="m242.6,941.1l-0.9,0l0,1.4l-1,0l0,-1.4l-3.9,0l0,-0.9l2.7,-5.2l1.1,0l-2.7,5.2l2.8,0l0,-2.2l1,0l0,2.2l0.9,0l0,0.9z" class="st1"/>
    <path id="svg_24" fill="#EEF2F4" d="m247.9,934.9l0,7.6l-1,0l0,-6.5l-1.6,0.5l-0.3,-0.9l2,-0.7l0.9,0z" class="st1"/>
   </g>
   <g id="svg_25">
    <path id="svg_26" fill="#EEF2F4" d="m58.9,938.7c0,2.1 -1.5,3.8 -3.6,3.8l-3,0l0,-7.6l3,0c2.1,0 3.6,1.7 3.6,3.8zm-1,0c0,-1.6 -1.1,-2.9 -2.6,-2.9l-2,0l0,5.7l2,0c1.5,0.1 2.6,-1.2 2.6,-2.8z" class="st1"/>
    <path id="svg_27" fill="#EEF2F4" d="m67,941.6l0,1l-4.6,0l0,-7.6l4.5,0l0,1l-3.5,0l0,2.3l3.2,0l0,0.9l-3.2,0l0,2.4l3.6,0z" class="st1"/>
    <path id="svg_28" fill="#EEF2F4" d="m70,940.8l0.9,-0.5c0.3,0.8 0.9,1.4 2,1.4c1.1,0 1.6,-0.5 1.6,-1.2c0,-0.8 -0.7,-1 -1.8,-1.4c-1.2,-0.4 -2.4,-0.8 -2.4,-2.2c0,-1.4 1.1,-2.2 2.4,-2.2c1.3,0 2.2,0.7 2.6,1.7l-0.8,0.5c-0.3,-0.7 -0.8,-1.2 -1.7,-1.2c-0.8,0 -1.4,0.4 -1.4,1.1c0,0.7 0.5,1 1.6,1.3c1.3,0.4 2.6,0.8 2.6,2.3c0,1.3 -1.1,2.2 -2.6,2.2c-1.5,0.1 -2.6,-0.7 -3,-1.8z" class="st1"/>
    <path id="svg_29" fill="#EEF2F4" d="m80,934.9l0,7.6l-1,0l0,-7.6l1,0z" class="st1"/>
    <path id="svg_30" fill="#EEF2F4" d="m91.3,939.2c0,1.9 -1.4,3.5 -3.7,3.5c-2.4,0 -4,-1.8 -4,-4c0,-2.2 1.7,-4 4,-4c1.4,0 2.7,0.8 3.3,1.8l-0.9,0.5c-0.4,-0.8 -1.4,-1.4 -2.4,-1.4c-1.8,0 -3,1.3 -3,3c0,1.7 1.2,3 3,3c1.6,0 2.5,-0.9 2.7,-2l-2.8,0l0,-0.9l3.8,0l0,0.5z" class="st1"/>
    <path id="svg_31" fill="#EEF2F4" d="m100.6,934.9l0,7.6l-0.8,0l-3.9,-5.7l0,5.7l-1,0l0,-7.6l0.8,0l3.9,5.7l0,-5.7l1,0z" class="st1"/>
    <path id="svg_32" fill="#EEF2F4" d="m109.1,941.6l0,1l-4.6,0l0,-7.6l4.5,0l0,1l-3.5,0l0,2.3l3.2,0l0,0.9l-3.2,0l0,2.4l3.6,0z" class="st1"/>
    <path id="svg_33" fill="#EEF2F4" d="m119.2,938.7c0,2.1 -1.5,3.8 -3.6,3.8l-3,0l0,-7.6l3,0c2,0 3.6,1.7 3.6,3.8zm-1,0c0,-1.6 -1.1,-2.9 -2.6,-2.9l-2,0l0,5.7l2,0c1.5,0.1 2.6,-1.2 2.6,-2.8z" class="st1"/>
    <path id="svg_34" fill="#EEF2F4" d="m133.2,940.4c0,1.2 -1,2.2 -2.2,2.2l-3.3,0l0,-7.6l3,0c1.2,0 2.1,0.9 2.1,2.1c0,0.7 -0.3,1.2 -0.8,1.6c0.7,0.2 1.2,0.8 1.2,1.7zm-4.5,-4.6l0,2.3l2,0c0.6,0 1.1,-0.5 1.1,-1.2c0,-0.6 -0.5,-1.2 -1.1,-1.2l-2,0l0,0.1zm3.5,4.5c0,-0.7 -0.5,-1.2 -1.2,-1.2l-2.3,0l0,2.5l2.3,0c0.7,0 1.2,-0.6 1.2,-1.3z" class="st1"/>
    <path id="svg_35" fill="#EEF2F4" d="m139.4,939.4l0,3.1l-1,0l0,-3.1l-2.7,-4.5l1.1,0l2.1,3.6l2.1,-3.6l1.1,0l-2.7,4.5z" class="st1"/>
   </g>
   <g id="svg_36">
    <path id="svg_37" fill="#EEF2F4" d="m216.2,958.1c0,3.5 -2.5,6.2 -5.9,6.2l-4.9,0l0,-12.4l4.9,0c3.4,0 5.9,2.7 5.9,6.2zm-1.9,0c0,-2.5 -1.6,-4.2 -4,-4.2l-2.8,0l0,8.5l2.8,0c2.4,-0.1 4,-1.9 4,-4.3z" class="st1"/>
    <path id="svg_38" fill="#EEF2F4" d="m222.3,962.8c1.1,0 1.9,-0.5 2.3,-1.1l1.6,0.9c-0.8,1.2 -2.1,1.9 -3.9,1.9c-2.9,0 -4.8,-2 -4.8,-4.7c0,-2.6 1.9,-4.7 4.7,-4.7c2.6,0 4.4,2.1 4.4,4.7c0,0.3 0,0.5 -0.1,0.8l-7,0c0.3,1.5 1.4,2.2 2.8,2.2zm2.4,-3.7c-0.3,-1.5 -1.4,-2.2 -2.5,-2.2c-1.4,0 -2.4,0.8 -2.7,2.2l5.2,0z" class="st1"/>
    <path id="svg_39" fill="#EEF2F4" d="m234.4,961.8c0,1.8 -1.5,2.7 -3.5,2.7c-1.8,0 -3,-0.8 -3.6,-2.1l1.6,-1c0.3,0.8 1,1.3 2,1.3c0.8,0 1.5,-0.3 1.5,-1c0,-1.6 -4.8,-0.7 -4.8,-3.9c0,-1.7 1.4,-2.7 3.2,-2.7c1.5,0 2.7,0.7 3.3,1.8l-1.6,0.9c-0.3,-0.7 -0.9,-1 -1.7,-1c-0.7,0 -1.3,0.3 -1.3,0.9c0.2,1.8 4.9,0.8 4.9,4.1z" class="st1"/>
    <path id="svg_40" fill="#EEF2F4" d="m241.5,964.3l-3.6,-4.1l0,4.1l-1.9,0l0,-12.4l1.9,0l0,7.5l3.4,-3.9l2.3,0l-3.9,4.3l4,4.5l-2.2,0z" class="st1"/>
    <path id="svg_41" fill="#EEF2F4" d="m247.7,957.3l0,4.2c0,1.1 0.7,1.1 2.2,1l0,1.7c-2.9,0.4 -4.1,-0.5 -4.1,-2.8l0,-4.2l-1.6,0l0,-1.8l1.6,0l0,-1.9l1.9,-0.6l0,2.5l2.2,0l0,1.8l-2.2,0l0,0.1z" class="st1"/>
    <path id="svg_42" fill="#EEF2F4" d="m250.8,959.9c0,-2.6 2.1,-4.7 4.7,-4.7c2.6,0 4.7,2 4.7,4.7c0,2.6 -2.1,4.7 -4.7,4.7c-2.6,-0.1 -4.7,-2.1 -4.7,-4.7zm7.4,0c0,-1.6 -1.2,-2.8 -2.8,-2.8s-2.8,1.2 -2.8,2.8c0,1.6 1.2,2.8 2.8,2.8s2.8,-1.2 2.8,-2.8z" class="st1"/>
    <path id="svg_43" fill="#EEF2F4" d="m271.3,959.9c0,2.6 -2,4.7 -4.4,4.7c-1.4,0 -2.4,-0.6 -3.1,-1.5l0,4.8l-1.9,0l0,-12.4l1.9,0l0,1.3c0.7,-0.9 1.7,-1.5 3.1,-1.5c2.4,-0.1 4.4,2 4.4,4.6zm-1.9,0c0,-1.6 -1.2,-2.8 -2.8,-2.8c-1.6,0 -2.8,1.2 -2.8,2.8c0,1.6 1.2,2.8 2.8,2.8c1.6,0 2.8,-1.2 2.8,-2.8z" class="st1"/>
   </g>
   <g id="svg_44">
    <g id="svg_45">
     <g id="svg_46">
      <path id="svg_47" fill="#EEF2F4" d="m846.1,938.7c0,2.1 -1.5,3.8 -3.6,3.8l-3,0l0,-7.6l3,0c2.1,0 3.6,1.7 3.6,3.8zm-0.9,0c0,-1.6 -1.1,-2.9 -2.6,-2.9l-2,0l0,5.7l2,0c1.5,0.1 2.6,-1.2 2.6,-2.8z" class="st1"/>
     </g>
     <g id="svg_48">
      <path id="svg_49" fill="#EEF2F4" d="m849.3,938.7c0,-2.2 1.7,-4 3.9,-4c2.2,0 4,1.8 4,4c0,2.2 -1.7,4 -4,4c-2.2,0 -3.9,-1.8 -3.9,-4zm6.8,0c0,-1.7 -1.3,-3 -2.9,-3c-1.7,0 -2.9,1.3 -2.9,3c0,1.7 1.3,3 2.9,3c1.7,0 2.9,-1.3 2.9,-3z" class="st1"/>
     </g>
     <g id="svg_50">
      <path id="svg_51" fill="#EEF2F4" d="m859.8,934.9l1.1,0l1.7,6.3l1.9,-6.3l1,0l1.9,6.3l1.7,-6.3l1.1,0l-2.2,7.6l-1.2,0l-1.8,-6.1l-1.8,6.1l-1.2,0l-2.2,-7.6z" class="st1"/>
     </g>
     <g id="svg_52">
      <path id="svg_53" fill="#EEF2F4" d="m879.3,934.9l0,7.6l-0.8,0l-3.9,-5.7l0,5.7l-1,0l0,-7.6l0.8,0l3.9,5.7l0,-5.7l1,0z" class="st1"/>
     </g>
     <g id="svg_54">
      <path id="svg_55" fill="#EEF2F4" d="m887.5,941.6l0,1l-4.3,0l0,-7.6l1,0l0,6.7l3.3,0l0,-0.1z" class="st1"/>
     </g>
     <g id="svg_56">
      <path id="svg_57" fill="#EEF2F4" d="m889.9,938.7c0,-2.2 1.7,-4 3.9,-4c2.2,0 4,1.8 4,4c0,2.2 -1.7,4 -4,4c-2.2,0 -3.9,-1.8 -3.9,-4zm6.9,0c0,-1.7 -1.3,-3 -2.9,-3c-1.7,0 -2.9,1.3 -2.9,3c0,1.7 1.3,3 2.9,3c1.6,0 2.9,-1.3 2.9,-3z" class="st1"/>
     </g>
     <g id="svg_58">
      <path id="svg_59" fill="#EEF2F4" d="m905.4,940.8l-3.4,0l-0.6,1.7l-1.1,0l2.8,-7.6l1.1,0l2.8,7.6l-1,0l-0.6,-1.7zm-0.3,-0.9l-1.4,-3.8l-1.4,3.8l2.8,0z" class="st1"/>
     </g>
     <g id="svg_60">
      <path id="svg_61" fill="#EEF2F4" d="m916.9,938.7c0,2.1 -1.5,3.8 -3.6,3.8l-3,0l0,-7.6l3,0c2.1,0 3.6,1.7 3.6,3.8zm-1,0c0,-1.6 -1.1,-2.9 -2.6,-2.9l-2,0l0,5.7l2,0c1.6,0.1 2.6,-1.2 2.6,-2.8z" class="st1"/>
     </g>
     <g id="svg_62">
      <path id="svg_63" fill="#EEF2F4" d="m926.5,935.8l0,2.5l3.2,0l0,1l-3.2,0l0,3.2l-1,0l0,-7.6l4.4,0l0,1l-3.4,0l0,-0.1z" class="st1"/>
     </g>
     <g id="svg_64">
      <path id="svg_65" fill="#EEF2F4" d="m936.2,939.6l-1.8,0l0,2.9l-1,0l0,-7.6l3,0c1.3,0 2.4,1.1 2.4,2.4c0,1 -0.7,1.9 -1.6,2.2l1.8,3.1l-1.1,0l-1.7,-3zm-1.8,-0.9l2,0c0.8,0 1.4,-0.6 1.4,-1.4c0,-0.8 -0.6,-1.4 -1.4,-1.4l-2,0l0,2.8z" class="st1"/>
     </g>
     <g id="svg_66">
      <path id="svg_67" fill="#EEF2F4" d="m941.9,938.7c0,-2.2 1.7,-4 3.9,-4c2.2,0 4,1.8 4,4c0,2.2 -1.7,4 -4,4c-2.2,0 -3.9,-1.8 -3.9,-4zm6.9,0c0,-1.7 -1.3,-3 -2.9,-3c-1.7,0 -2.9,1.3 -2.9,3c0,1.7 1.3,3 2.9,3c1.6,0 2.9,-1.3 2.9,-3z" class="st1"/>
     </g>
     <g id="svg_68">
      <path id="svg_69" fill="#EEF2F4" d="m960.4,942.5l-1,0l0,-6l-2.5,4.2l-0.1,0l-2.5,-4.1l0,5.9l-1,0l0,-7.6l1.1,0l2.4,4l2.4,-4l1.1,0l0,7.6l0.1,0z" class="st1"/>
     </g>
    </g>
    <g id="svg_70">
     <g id="svg_71">
      <path id="svg_72" fill="#EEF2F4" d="m839.3,952.9c0,-0.7 0.5,-1.2 1.2,-1.2c0.7,0 1.2,0.5 1.2,1.2c0,0.7 -0.5,1.2 -1.2,1.2c-0.6,0 -1.2,-0.5 -1.2,-1.2zm0.3,2.5l1.9,0l0,8.9l-1.9,0l0,-8.9z" class="st1"/>
     </g>
     <g id="svg_73">
      <path id="svg_74" fill="#EEF2F4" d="m843.7,951.4l1.9,0l0,12.9l-1.9,0l0,-12.9z" class="st1"/>
     </g>
     <g id="svg_75">
      <path id="svg_76" fill="#EEF2F4" d="m847.8,951.4l1.9,0l0,12.9l-1.9,0l0,-12.9z" class="st1"/>
     </g>
     <g id="svg_77">
      <path id="svg_78" fill="#EEF2F4" d="m852,951.4l1.9,0l0,12.9l-1.9,0l0,-12.9z" class="st1"/>
     </g>
     <g id="svg_79">
      <path id="svg_80" fill="#EEF2F4" d="m864,955.4l0,8.9l-1.9,0l0,-1.1c-0.6,0.9 -1.5,1.4 -2.7,1.4c-2,0 -3.4,-1.3 -3.4,-3.6l0,-5.4l1.9,0l0,5.2c0,1.3 0.8,2.1 2,2.1c1.3,0 2.2,-0.7 2.2,-2.5l0,-4.7l1.9,0l0,-0.3z" class="st1"/>
     </g>
     <g id="svg_81">
      <path id="svg_82" fill="#EEF2F4" d="m872.6,961.8c0,1.8 -1.5,2.7 -3.5,2.7c-1.8,0 -3,-0.8 -3.6,-2.1l1.6,-1c0.3,0.8 1,1.3 2,1.3c0.8,0 1.5,-0.3 1.5,-1c0,-1.6 -4.8,-0.7 -4.8,-3.9c0,-1.7 1.4,-2.7 3.2,-2.7c1.5,0 2.7,0.7 3.3,1.8l-1.6,0.9c-0.3,-0.7 -0.9,-1 -1.7,-1c-0.7,0 -1.3,0.3 -1.3,0.9c0.2,1.8 4.9,0.8 4.9,4.1z" class="st1"/>
     </g>
     <g id="svg_83">
      <path id="svg_84" fill="#EEF2F4" d="m876.7,957.3l0,4.2c0,1.1 0.7,1.1 2.2,1l0,1.7c-2.9,0.4 -4.1,-0.5 -4.1,-2.8l0,-4.2l-1.6,0l0,-1.8l1.6,0l0,-1.9l1.9,-0.6l0,2.5l2.2,0l0,1.8l-2.2,0l0,0.1z" class="st1"/>
     </g>
     <g id="svg_85">
      <path id="svg_86" fill="#EEF2F4" d="m885.4,955.3l0,2.1c-1.3,-0.1 -2.7,0.5 -2.7,2.5l0,4.5l-1.9,0l0,-8.9l1.9,0l0,1.5c0.5,-1.3 1.5,-1.7 2.7,-1.7z" class="st1"/>
     </g>
     <g id="svg_87">
      <path id="svg_88" fill="#EEF2F4" d="m895.3,955.4l0,8.9l-1.9,0l0,-1.3c-0.7,0.9 -1.7,1.5 -3.1,1.5c-2.4,0 -4.4,-2 -4.4,-4.7c0,-2.6 2,-4.7 4.4,-4.7c1.4,0 2.4,0.6 3.1,1.5l0,-1.3l1.9,0l0,0.1zm-1.9,4.5c0,-1.6 -1.2,-2.8 -2.8,-2.8c-1.6,0 -2.8,1.2 -2.8,2.8c0,1.6 1.2,2.8 2.8,2.8c1.6,0 2.8,-1.2 2.8,-2.8z" class="st1"/>
     </g>
     <g id="svg_89">
      <path id="svg_90" fill="#EEF2F4" d="m900.3,957.3l0,4.2c0,1.1 0.7,1.1 2.2,1l0,1.7c-2.9,0.4 -4.1,-0.5 -4.1,-2.8l0,-4.2l-1.6,0l0,-1.8l1.6,0l0,-1.9l1.9,-0.6l0,2.5l2.2,0l0,1.8l-2.2,0l0,0.1z" class="st1"/>
     </g>
     <g id="svg_91">
      <path id="svg_92" fill="#EEF2F4" d="m903.9,952.9c0,-0.7 0.5,-1.2 1.2,-1.2c0.7,0 1.2,0.5 1.2,1.2c0,0.7 -0.5,1.2 -1.2,1.2c-0.6,0 -1.2,-0.5 -1.2,-1.2zm0.3,2.5l1.9,0l0,8.9l-1.9,0l0,-8.9z" class="st1"/>
     </g>
     <g id="svg_93">
      <path id="svg_94" fill="#EEF2F4" d="m907.8,959.9c0,-2.6 2.1,-4.7 4.7,-4.7c2.6,0 4.7,2 4.7,4.7c0,2.6 -2.1,4.7 -4.7,4.7c-2.6,-0.1 -4.7,-2.1 -4.7,-4.7zm7.5,0c0,-1.6 -1.2,-2.8 -2.8,-2.8c-1.6,0 -2.8,1.2 -2.8,2.8c0,1.6 1.2,2.8 2.8,2.8c1.6,0 2.8,-1.2 2.8,-2.8z" class="st1"/>
     </g>
     <g id="svg_95">
      <path id="svg_96" fill="#EEF2F4" d="m927,958.9l0,5.4l-1.9,0l0,-5.2c0,-1.3 -0.8,-2.1 -2,-2.1c-1.3,0 -2.2,0.7 -2.2,2.5l0,4.7l-1.9,0l0,-8.9l1.9,0l0,1.1c0.6,-0.9 1.5,-1.4 2.7,-1.4c1.9,0.2 3.4,1.6 3.4,3.9z" class="st1"/>
     </g>
     <g id="svg_97">
      <path id="svg_98" fill="#EEF2F4" d="m935.5,961.8c0,1.8 -1.5,2.7 -3.5,2.7c-1.8,0 -3,-0.8 -3.6,-2.1l1.6,-1c0.3,0.8 1,1.3 2,1.3c0.8,0 1.5,-0.3 1.5,-1c0,-1.6 -4.8,-0.7 -4.8,-3.9c0,-1.7 1.4,-2.7 3.2,-2.7c1.5,0 2.7,0.7 3.3,1.8l-1.6,0.9c-0.3,-0.7 -0.9,-1 -1.7,-1c-0.7,0 -1.3,0.3 -1.3,0.9c0.1,1.8 4.9,0.8 4.9,4.1z" class="st1"/>
     </g>
     <g id="svg_99">
      <path id="svg_100" fill="#EEF2F4" d="m936.8,963.2c0,-0.7 0.6,-1.3 1.3,-1.3c0.7,0 1.3,0.6 1.3,1.3c0,0.7 -0.6,1.3 -1.3,1.3c-0.7,0 -1.3,-0.6 -1.3,-1.3z" class="st1"/>
     </g>
     <g id="svg_101">
      <path id="svg_102" fill="#EEF2F4" d="m940.3,959.9c0,-2.6 2,-4.7 4.7,-4.7c1.7,0 3.2,0.9 3.9,2.3l-1.6,1c-0.4,-0.8 -1.3,-1.4 -2.3,-1.4c-1.6,0 -2.7,1.2 -2.7,2.8c0,1.6 1.2,2.8 2.7,2.8c1.1,0 1.9,-0.5 2.4,-1.4l1.6,0.9c-0.7,1.4 -2.2,2.3 -4,2.3c-2.7,0 -4.7,-2 -4.7,-4.6z" class="st1"/>
     </g>
     <g id="svg_103">
      <path id="svg_104" fill="#EEF2F4" d="m949.7,959.9c0,-2.6 2.1,-4.7 4.7,-4.7c2.6,0 4.7,2 4.7,4.7c0,2.6 -2.1,4.7 -4.7,4.7c-2.6,-0.1 -4.7,-2.1 -4.7,-4.7zm7.5,0c0,-1.6 -1.2,-2.8 -2.8,-2.8s-2.8,1.2 -2.8,2.8c0,1.6 1.2,2.8 2.8,2.8s2.8,-1.2 2.8,-2.8z" class="st1"/>
     </g>
    </g>
   </g>
  </g>
  <path fill="#1C1C1C" opacity="0.23" d="m791,663.7l-550,0c-11,0 -20,-9 -20,-20l0,0c0,-11 9,-20 20,-20l550,0c11,0 20,9 20,20l0,0c0,11 -9,20 -20,20z" class="st2" id="XMLID_3_"/>
  <path fill="#B4AAC1" d="m556.5,599l-270,0c-5.5,0 -10,-4.5 -10,-10l0,-198c0,-5.5 4.5,-10 10,-10l270,0c5.5,0 10,4.5 10,10l0,198c0,5.5 -4.5,10 -10,10z" class="st3" id="XMLID_21_"/>
  <path fill="#D3D3D1" d="m282.5,582.9l0,-191.9c0,-2.2 1.8,-4 4,-4l270,0c2.2,0 4,1.8 4,4l0,191.9c0,2.2 -1.8,4 -4,4l-270,0c-2.2,0 -4,-1.7 -4,-4z" class="st4" id="XMLID_38_"/>
  <path stroke-miterlimit="10" stroke-linejoin="round" stroke-linecap="round" stroke-width="6" stroke="#0C1740" fill="none" d="m556.5,599l-270,0c-5.5,0 -10,-4.5 -10,-10l0,-198c0,-5.5 4.5,-10 10,-10l270,0c5.5,0 10,4.5 10,10l0,198c0,5.5 -4.5,10 -10,10z" class="st5" id="XMLID_1_"/>
  <path fill="#B4AAC1" d="m294.5,551.6l0,-146c0,-4.4 3.6,-8 8,-8l238,0c4.4,0 8,3.6 8,8l0,146c0,4.4 -3.6,8 -8,8l-238,0c-4.4,0 -8,-3.6 -8,-8z" class="st3" id="XMLID_5_"/>
  <path fill="#0C1740" d="m302.5,555.6c-2.2,0 -4,-1.8 -4,-4l0,-146c0,-2.2 1.8,-4 4,-4l238,0c2.2,0 4,1.8 4,4l0,146c0,2.2 -1.8,4 -4,4l-238,0z" class="st6" id="XMLID_37_"/>
  <g opacity="0.63" class="st7" id="XMLID_64_">
   <g id="XMLID_122_">
    <path fill="#4988E2" d="m442.3,476.6c-6.8,-3.3 -13.7,-2 -20.5,-0.4c0,-6.8 0,-13.7 0,-20.5c6.8,-1.6 13.7,-2.9 20.5,0.4c0,6.8 0,13.7 0,20.5z" class="st8" id="XMLID_126_"/>
    <path fill="#4988E2" d="m442.3,500.5c-6.8,-3.3 -13.7,-2 -20.5,-0.4c0,-6.8 0,-13.7 0,-20.5c6.8,-1.6 13.7,-2.9 20.5,0.4c0,6.8 0,13.6 0,20.5z" class="st8" id="XMLID_125_"/>
    <path fill="#4988E2" d="m418.4,500.9c-6.8,1.6 -13.7,2.9 -20.5,-0.4c0,-6.8 0,-13.7 0,-20.5c6.8,3.3 13.7,2 20.5,0.4c0,6.8 0,13.6 0,20.5z" class="st8" id="XMLID_124_"/>
    <path fill="#4988E2" d="m418.4,477c-6.8,1.6 -13.7,2.9 -20.5,-0.4c0,-6.8 0,-13.7 0,-20.5c6.8,3.3 13.7,2 20.5,0.4c0,6.8 0,13.7 0,20.5z" class="st8" id="XMLID_123_"/>
   </g>
  </g>
  <path fill="#B4AAC1" d="m440.7,599l0,0l-38.5,0l0,0c0,13.2 -13,24.1 -29.9,25.1l-14.3,0.8c-7.6,0.4 -13.6,6.6 -13.6,14.1l0,0l154,0l0,0c0,-7.5 -5.9,-13.7 -13.6,-14.1l-14.3,-0.8c-16.7,-1 -29.8,-11.9 -29.8,-25.1z" class="st3" id="XMLID_22_"/>
  <path fill="#D3D3D1" d="m372.4,624.1l-14.3,0.8c-7.6,0.4 -13.6,6.6 -13.6,14.1l154,0c0,-7.5 -5.9,-13.7 -13.6,-14.1l-14.3,-0.8c-1.9,-0.1 -3.8,-0.4 -5.7,-0.7l-86.9,0c-1.8,0.3 -3.7,0.6 -5.6,0.7z" class="st4" id="XMLID_42_"/>
  <path fill="#958BA5" d="m446.7,613.5c-3.7,-4.1 -5.9,-9.1 -5.9,-14.5l-38.5,0c0,5.4 -2.2,10.4 -5.9,14.5l50.3,0z" class="st9" id="XMLID_41_"/>
  <path stroke-miterlimit="10" stroke-linejoin="round" stroke-linecap="round" stroke-width="6" stroke="#0C1740" fill="none" d="m440.7,599l0,0l-38.5,0l0,0c0,13.2 -13,24.1 -29.9,25.1l-14.3,0.8c-7.6,0.4 -13.6,6.6 -13.6,14.1l0,0l154,0l0,0c0,-7.5 -5.9,-13.7 -13.6,-14.1l-14.3,-0.8c-16.7,-1 -29.8,-11.9 -29.8,-25.1z" class="st5" id="XMLID_7_"/>
  <path fill="#364477" d="m730.9,625l-132,0c-4.4,0 -8,-3.6 -8,-8l0,-286c0,-4.4 3.6,-8 8,-8l132,0c4.4,0 8,3.6 8,8l0,286c0,4.4 -3.6,8 -8,8z" class="st10" id="XMLID_23_"/>
  <path stroke-miterlimit="10" stroke-linejoin="round" stroke-linecap="round" stroke-width="6" stroke="#0C1740" fill="none" d="m730.9,625l-132,0c-4.4,0 -8,-3.6 -8,-8l0,-286c0,-4.4 3.6,-8 8,-8l132,0c4.4,0 8,3.6 8,8l0,286c0,4.4 -3.6,8 -8,8z" class="st5" id="XMLID_4_"/>
  <path fill="#3E5080" d="m664.9,615c-35.3,0 -64,-28.7 -64,-64l0,-217c0,-0.6 0.4,-1 1,-1l126,0c0.6,0 1,0.4 1,1l0,217c0,35.3 -28.7,64 -64,64z" class="st11" id="XMLID_46_"/>
  <path fill="#364477" d="m600.9,355.5l0,182c0,35.9 28.7,65.1 64,65.1s64,-29.2 64,-65.1l0,-182l-128,0z" class="st10" id="XMLID_50_"/>
  <path stroke-miterlimit="10" stroke-linejoin="round" stroke-linecap="round" stroke-width="3" stroke="#0C1740" fill="none" d="m664.9,615c-35.3,0 -64,-28.7 -64,-64l0,-217c0,-0.6 0.4,-1 1,-1l126,0c0.6,0 1,0.4 1,1l0,217c0,35.3 -28.7,64 -64,64z" class="st12" id="XMLID_13_"/>
  <path fill="#485D8C" d="m664.9,591c-35.3,0 -64,-28.7 -64,-64l0,-193c0,-0.6 0.4,-1 1,-1l126,0c0.6,0 1,0.4 1,1l0,193c0,35.3 -28.7,64 -64,64z" class="st13" id="XMLID_44_"/>
  <path stroke-miterlimit="10" stroke-linejoin="round" stroke-linecap="round" stroke-width="3" stroke="#0C1740" fill="none" d="m664.9,591c-35.3,0 -64,-28.7 -64,-64l0,-193c0,-0.6 0.4,-1 1,-1l126,0c0.6,0 1,0.4 1,1l0,193c0,35.3 -28.7,64 -64,64z" class="st12" id="XMLID_14_"/>
  <rect fill="#263866" height="14" width="112" class="st14" y="625" x="608.9" id="XMLID_24_"/>
  <rect fill="#1B2F5B" height="7" width="112" class="st15" y="625" x="608.9" id="XMLID_2_"/>
  <rect stroke-miterlimit="10" stroke-linejoin="round" stroke-linecap="round" stroke-width="6" stroke="#0C1740" fill="none" height="14" width="112" class="st5" y="625" x="608.9" id="XMLID_6_"/>
  <path fill="#364477" d="m716.4,367.3l-103,0c-2.5,0 -4.5,-2 -4.5,-4.5l0,-16.5c0,-2.5 2,-4.5 4.5,-4.5l103,0c2.5,0 4.5,2 4.5,4.5l0,16.5c0,2.5 -2,4.5 -4.5,4.5z" class="st10" id="XMLID_53_"/>
  <path stroke-miterlimit="10" stroke-linejoin="round" stroke-linecap="round" stroke-width="2" stroke="#0C1740" fill="none" d="m716.4,367.3l-103,0c-2.5,0 -4.5,-2 -4.5,-4.5l0,-16.5c0,-2.5 2,-4.5 4.5,-4.5l103,0c2.5,0 4.5,2 4.5,4.5l0,16.5c0,2.5 -2,4.5 -4.5,4.5z" class="st16" id="XMLID_8_"/>
  <path fill="#364477" d="m716.4,404l-69.6,0c-2.5,0 -4.5,-2 -4.5,-4.5l0,-11.4c0,-2.5 2,-4.5 4.5,-4.5l69.6,0c2.5,0 4.5,2 4.5,4.5l0,11.4c0,2.5 -2,4.5 -4.5,4.5z" class="st10" id="XMLID_57_"/>
  <path stroke-miterlimit="10" stroke-linejoin="round" stroke-linecap="round" stroke-width="2" stroke="#0C1740" fill="none" d="m716.4,404l-69.6,0c-2.5,0 -4.5,-2 -4.5,-4.5l0,-11.4c0,-2.5 2,-4.5 4.5,-4.5l69.6,0c2.5,0 4.5,2 4.5,4.5l0,11.4c0,2.5 -2,4.5 -4.5,4.5z" class="st16" id="XMLID_11_"/>
  <circle fill="#5873A3" r="17.8" cy="537.6" cx="666.7" class="st17" id="XMLID_9_"/>
  <path fill="#364477" d="m719.1,460.5l-108.4,0c-1,0 -1.8,-0.8 -1.8,-1.8l0,-24.4c0,-1 0.8,-1.8 1.8,-1.8l108.4,0c1,0 1.8,0.8 1.8,1.8l0,24.4c0,1 -0.8,1.8 -1.8,1.8z" class="st10" id="XMLID_18_"/>
  <circle fill="#0C1740" r="10.3" cy="488.6" cx="664.9" class="st6" id="XMLID_12_"/>
  <circle fill="#1F2F63" r="9.5" cy="488.6" cx="664.9" class="st18" id="XMLID_52_"/>
  <path fill="#0C1740" d="m707.1,450l-18.8,0c-0.6,0 -1.1,-0.5 -1.1,-1.1l0,-4.8c0,-0.6 0.5,-1.1 1.1,-1.1l18.8,0c0.6,0 1.1,0.5 1.1,1.1l0,4.8c0,0.6 -0.5,1.1 -1.1,1.1z" class="st6" id="XMLID_20_"/>
  <path fill="#485D8C" d="m688.2,446.4l0,-2.3c0,-0.1 0,-0.1 0.1,-0.1l18.8,0c0.1,0 0.1,0 0.1,0.1l0,2.3c0,0.1 0,0.1 -0.1,0.1l-18.9,-0.1c0.1,0.1 0,0.1 0,0z" class="st13" id="XMLID_15_"/>
  <path fill="#0C1740" d="m681.4,450l-18.8,0c-0.6,0 -1.1,-0.5 -1.1,-1.1l0,-4.8c0,-0.6 0.5,-1.1 1.1,-1.1l18.8,0c0.6,0 1.1,0.5 1.1,1.1l0,4.8c0,0.6 -0.5,1.1 -1.1,1.1z" class="st6" id="XMLID_40_"/>
  <path fill="#485D8C" d="m662.5,446.4l0,-2.3c0,-0.1 0,-0.1 0.1,-0.1l18.8,0c0.1,0 0.1,0 0.1,0.1l0,2.3c0,0.1 0,0.1 -0.1,0.1l-18.9,-0.1c0,0.1 0,0.1 0,0z" class="st13" id="XMLID_16_"/>
  <circle fill="#0C1740" opacity="0.51" r="6" cy="572.8" cx="530.1" class="st19" id="XMLID_25_"/>
  <circle fill="#FFFFFF" r="5.6" cy="572.8" cx="530.1" class="st20" id="XMLID_17_"/>
  <circle fill="#0C1740" opacity="0.51" r="3" cy="572.8" cx="516.2" class="st19" id="XMLID_27_"/>
  <circle fill="#FFFFFF" r="2.8" cy="572.8" cx="516.2" class="st20" id="XMLID_39_"/>
  <g opacity="0.49" class="st21" id="XMLID_29_">
   <rect fill="#0C1740" height="11.5" width="2.9" class="st6" transform="matrix(0.7071 -0.7071 0.7071 0.7071 -284.6084 465.385)" y="570.5" x="418" id="XMLID_28_"/>
   <rect fill="#0C1740" height="2.9" width="5.7" class="st6" transform="matrix(0.7071 -0.7071 0.7071 0.7071 -280.2998 463.6003)" y="568.7" x="416.6" id="XMLID_30_"/>
   <rect fill="#0C1740" height="2.9" width="5.7" class="st6" transform="matrix(0.7071 -0.7071 0.7071 0.7071 -282.8237 469.6936)" y="574.8" x="422.7" id="XMLID_31_"/>
   <rect fill="#0C1740" height="2.9" width="5.7" class="st6" transform="matrix(0.7071 -0.7071 0.7071 0.7071 -281.5617 466.647)" y="571.8" x="419.6" id="XMLID_32_"/>
  </g>
  <g id="XMLID_26_">
   <rect fill="#485D8C" height="16" width="4" class="st13" transform="matrix(0.7071 -0.7071 0.7071 0.7071 -187.7159 627.7138)" y="532.5" x="661.9" id="XMLID_36_"/>
   <rect fill="#485D8C" height="4" width="8" class="st13" transform="matrix(0.7071 -0.7071 0.7071 0.7071 -181.7159 625.2285)" y="530" x="659.9" id="XMLID_35_"/>
   <rect fill="#485D8C" height="4" width="8" class="st13" transform="matrix(0.7071 -0.7071 0.7071 0.7071 -185.2306 633.7138)" y="538.5" x="668.3" id="XMLID_34_"/>
   <rect fill="#485D8C" height="4" width="8" class="st13" transform="matrix(0.7071 -0.7071 0.7071 0.7071 -183.4733 629.4712)" y="534.2" x="664.1" id="XMLID_33_"/>
  </g>
  <path fill="#0C1740" d="m712.8,396.8l-63.8,0c-0.7,0 -1.2,-0.6 -1.2,-1.2l0,-4.3c0,-0.7 0.6,-1.2 1.2,-1.2l63.8,0c0.7,0 1.2,0.6 1.2,1.2l0,4.3c0.1,0.7 -0.5,1.2 -1.2,1.2z" class="st6" id="XMLID_10_"/>
  <path fill="#0C1740" d="m701.2,398.9l-14.8,0c-3,0 -5.5,-2.5 -5.5,-5.5l0,0c0,-3 2.5,-5.5 5.5,-5.5l14.8,0c3,0 5.5,2.5 5.5,5.5l0,0c0,3 -2.4,5.5 -5.5,5.5z" class="st6" id="XMLID_43_"/>
  <path fill="#091438" d="m649.7,393.4l0,0c0,-0.8 0.6,-1.4 1.4,-1.4l59.5,0c0.8,0 1.4,0.6 1.4,1.4l0,0c0,0.8 -0.6,1.4 -1.4,1.4l-59.5,0c-0.7,0 -1.4,-0.6 -1.4,-1.4z" class="st22" id="XMLID_45_"/>
  <circle fill="#0C1740" r="3.5" cy="446.5" cx="650.6" class="st6" id="XMLID_51_"/>
  <circle fill="#0C1740" r="3.5" cy="446.5" cx="636.4" class="st6" id="XMLID_48_"/>
  <circle stroke-miterlimit="10" stroke-width="2" stroke="#1AC17D" fill="none" opacity="0.58" r="3.5" cy="446.5" cx="650.6" class="st23" id="XMLID_47_"/>
  <circle stroke-miterlimit="10" stroke-width="2" stroke="#F9232E" fill="none" opacity="0.58" r="3.5" cy="446.5" cx="636.4" class="st24" id="XMLID_49_"/>
  <path stroke-miterlimit="10" stroke-linejoin="round" stroke-linecap="round" stroke-width="2" stroke="#0C1740" fill="none" d="m660.7,483.6c-1.4,1.2 -2.3,3 -2.3,4.9c0,3.6 2.9,6.5 6.5,6.5s6.5,-2.9 6.5,-6.5c0,-2 -0.9,-3.7 -2.3,-4.9" class="st16" id="XMLID_56_"/>
  <line stroke-miterlimit="10" stroke-linejoin="round" stroke-linecap="round" stroke-width="2" stroke="#0C1740" fill="none" y2="488.6" x2="664.9" y1="481" x1="664.9" class="st16" id="XMLID_54_"/>
  <path fill="#0C1740" d="m715.6,358.3l-101.2,0c-0.8,0 -1.4,-0.6 -1.4,-1.4l0,-9.5c0,-0.8 0.6,-1.4 1.4,-1.4l101.2,0c0.8,0 1.4,0.6 1.4,1.4l0,9.5c0,0.8 -0.6,1.4 -1.4,1.4z" class="st6" id="XMLID_55_"/>
  <path fill="#0C1740" d="m715.4,364.2l-6.6,0c-0.4,0 -0.8,-0.4 -0.8,-0.8l0,-1.1c0,-0.4 0.4,-0.8 0.8,-0.8l6.6,0c0.4,0 0.8,0.4 0.8,0.8l0,1.1c0,0.4 -0.4,0.8 -0.8,0.8z" class="st6" id="XMLID_58_"/>
  <path fill="#2AD142" d="m703.5,364.2l0,0c-0.8,0 -1.4,-0.6 -1.4,-1.4l0,0c0,-0.8 0.6,-1.4 1.4,-1.4l0,0c0.8,0 1.4,0.6 1.4,1.4l0,0c0,0.8 -0.6,1.4 -1.4,1.4z" class="st25" id="XMLID_60_"/>
  <circle fill="#0C1740" r="2.3" cy="479.7" cx="682.1" class="st6" id="XMLID_59_"/>
  <circle fill="#1F2F63" r="1.7" cy="479.7" cx="682.1" class="st18" id="XMLID_61_"/>
  <g id="XMLID_81_">
   <path fill="#B7B7B7" d="m583,635.4l-104,0l0,-8.4c0,-2.9 2.4,-5.3 5.3,-5.3l93.4,0c2.9,0 5.3,2.4 5.3,5.3l0,8.4z" class="st26" id="XMLID_80_"/>
   <path fill="#B7B7B7" d="m413.1,635.4l-20,0l0,-8.4c0,-2.9 2.4,-5.3 5.3,-5.3l9.4,0c2.9,0 5.3,2.4 5.3,5.3l0,8.4z" class="st26" id="XMLID_79_"/>
   <path fill="#B7B7B7" d="m441.1,635.4l-20,0l0,-8.4c0,-2.9 2.4,-5.3 5.3,-5.3l9.4,0c2.9,0 5.3,2.4 5.3,5.3l0,8.4z" class="st26" id="XMLID_78_"/>
   <path fill="#B7B7B7" d="m610.9,635.4l-20,0l0,-8.4c0,-2.9 2.4,-5.3 5.3,-5.3l9.4,0c2.9,0 5.3,2.4 5.3,5.3l0,8.4z" class="st26" id="XMLID_77_"/>
   <path fill="#B7B7B7" d="m639.8,635.4l-20,0l0,-8.4c0,-2.9 2.4,-5.3 5.3,-5.3l9.4,0c2.9,0 5.3,2.4 5.3,5.3l0,8.4z" class="st26" id="XMLID_76_"/>
   <path fill="#B7B7B7" d="m667.7,635.4l-20,0l0,-8.4c0,-2.9 2.4,-5.3 5.3,-5.3l9.4,0c2.9,0 5.3,2.4 5.3,5.3l0,8.4z" class="st26" id="XMLID_75_"/>
   <path fill="#D3D3D1" d="m674.5,651.9l-287.5,0c-4.6,0 -8.3,-3.7 -8.3,-8.3l0,0c0,-4.6 3.7,-8.3 8.3,-8.3l287.5,0c4.6,0 8.3,3.7 8.3,8.3l0,0c-0.1,4.6 -3.8,8.3 -8.3,8.3z" class="st4" id="XMLID_74_"/>
   <path stroke-miterlimit="10" stroke-linejoin="round" stroke-linecap="round" stroke-width="6" stroke="#0C1740" fill="none" d="m583,635.4l-104,0l0,-8.4c0,-2.9 2.4,-5.3 5.3,-5.3l93.4,0c2.9,0 5.3,2.4 5.3,5.3l0,8.4z" class="st5" id="XMLID_72_"/>
   <path stroke-miterlimit="10" stroke-linejoin="round" stroke-linecap="round" stroke-width="6" stroke="#0C1740" fill="none" d="m413.1,635.4l-20,0l0,-8.4c0,-2.9 2.4,-5.3 5.3,-5.3l9.4,0c2.9,0 5.3,2.4 5.3,5.3l0,8.4z" class="st5" id="XMLID_71_"/>
   <path stroke-miterlimit="10" stroke-linejoin="round" stroke-linecap="round" stroke-width="6" stroke="#0C1740" fill="none" d="m441.1,635.4l-20,0l0,-8.4c0,-2.9 2.4,-5.3 5.3,-5.3l9.4,0c2.9,0 5.3,2.4 5.3,5.3l0,8.4z" class="st5" id="XMLID_69_"/>
   <path fill="#B7B7B7" d="m470.1,635.4l-20,0l0,-8.4c0,-2.9 2.4,-5.3 5.3,-5.3l9.4,0c2.9,0 5.3,2.4 5.3,5.3l0,8.4z" class="st26" id="XMLID_85_"/>
   <path stroke-miterlimit="10" stroke-linejoin="round" stroke-linecap="round" stroke-width="6" stroke="#0C1740" fill="none" d="m470.1,635.4l-20,0l0,-8.4c0,-2.9 2.4,-5.3 5.3,-5.3l9.4,0c2.9,0 5.3,2.4 5.3,5.3l0,8.4z" class="st5" id="XMLID_84_"/>
   <path stroke-miterlimit="10" stroke-linejoin="round" stroke-linecap="round" stroke-width="6" stroke="#0C1740" fill="none" d="m610.9,635.4l-20,0l0,-8.4c0,-2.9 2.4,-5.3 5.3,-5.3l9.4,0c2.9,0 5.3,2.4 5.3,5.3l0,8.4z" class="st5" id="XMLID_68_"/>
   <path stroke-miterlimit="10" stroke-linejoin="round" stroke-linecap="round" stroke-width="6" stroke="#0C1740" fill="none" d="m639.8,635.4l-20,0l0,-8.4c0,-2.9 2.4,-5.3 5.3,-5.3l9.4,0c2.9,0 5.3,2.4 5.3,5.3l0,8.4z" class="st5" id="XMLID_67_"/>
   <path stroke-miterlimit="10" stroke-linejoin="round" stroke-linecap="round" stroke-width="6" stroke="#0C1740" fill="none" d="m667.7,635.4l-20,0l0,-8.4c0,-2.9 2.4,-5.3 5.3,-5.3l9.4,0c2.9,0 5.3,2.4 5.3,5.3l0,8.4z" class="st5" id="XMLID_66_"/>
   <path stroke-miterlimit="10" stroke-linejoin="round" stroke-linecap="round" stroke-width="6" stroke="#0C1740" fill="none" d="m674.5,651.9l-287.5,0c-4.6,0 -8.3,-3.7 -8.3,-8.3l0,0c0,-4.6 3.7,-8.3 8.3,-8.3l287.5,0c4.6,0 8.3,3.7 8.3,8.3l0,0c-0.1,4.6 -3.8,8.3 -8.3,8.3z" class="st5" id="XMLID_62_"/>
   <path fill="#D3D3D1" d="m696.5,651.9c0,-12.1 9.8,-21.9 21.9,-21.9s21.9,9.8 21.9,21.9l-43.8,0z" class="st4" id="XMLID_73_"/>
   <path stroke-miterlimit="10" stroke-linejoin="round" stroke-linecap="round" stroke-width="6" stroke="#0C1740" fill="none" d="m696.5,651.9c0,-12.1 9.8,-21.9 21.9,-21.9s21.9,9.8 21.9,21.9l-43.8,0z" class="st5" id="XMLID_70_"/>
   <line stroke-miterlimit="10" stroke-linejoin="round" stroke-linecap="round" stroke-width="6" stroke="#0C1740" fill="none" y2="638.7" x2="718.5" y1="632.1" x1="718.5" class="st5" id="XMLID_83_"/>
  </g>
  <polygon fill="#192859" opacity="0.72" points="377.7,555.6 456.1,401.6 418.3,401.6 339.9,555.6 " class="st27" id="XMLID_89_"/>
  <polygon fill="#192859" opacity="0.72" points="424.6,555.6 503.1,401.6 484.2,401.6 405.8,555.6 " class="st27" id="XMLID_88_"/>
  <g id="XMLID_87_">
   <path fill="#67C18B" d="m620.7,476c-1.4,-0.7 -2.9,-0.4 -4.3,-0.1c0,-1.4 0,-2.9 0,-4.3c1.4,-0.3 2.9,-0.6 4.3,0.1c0,1.4 0,2.8 0,4.3z" class="st28" id="XMLID_94_"/>
   <path fill="#E5E56A" d="m620.7,481c-1.4,-0.7 -2.9,-0.4 -4.3,-0.1c0,-1.4 0,-2.9 0,-4.3c1.4,-0.3 2.9,-0.6 4.3,0.1c0,1.4 0,2.9 0,4.3z" class="st29" id="XMLID_93_"/>
   <path fill="#4988E2" d="m615.6,481.1c-1.4,0.3 -2.9,0.6 -4.3,-0.1c0,-1.4 0,-2.9 0,-4.3c1.4,0.7 2.9,0.4 4.3,0.1c0,1.4 0,2.9 0,4.3z" class="st8" id="XMLID_92_"/>
   <path fill="#E87060" d="m615.6,476.1c-1.4,0.3 -2.9,0.6 -4.3,-0.1c0,-1.4 0,-2.9 0,-4.3c1.4,0.7 2.9,0.4 4.3,0.1c0,1.4 0,2.8 0,4.3z" class="st30" id="XMLID_91_"/>
  </g>
  <line stroke-miterlimit="10" stroke-linejoin="round" stroke-linecap="round" stroke-width="2" stroke="#0C1740" fill="none" opacity="0.28" y2="474.5" x2="635.6" y1="474.5" x1="623.7" class="st31" id="XMLID_95_"/>
  <line stroke-miterlimit="10" stroke-linejoin="round" stroke-linecap="round" stroke-width="2" stroke="#0C1740" fill="none" opacity="0.28" y2="478.1" x2="632.9" y1="478.1" x1="623.7" class="st31" id="XMLID_96_"/>
 </g>
</svg>