<svg width="1000" height="1000" xmlns="http://www.w3.org/2000/svg" xmlns:xlink="http://www.w3.org/1999/xlink" version="1.1" xml:space="preserve">
 <g>
  <title>Layer 1</title>
  <ellipse id="XMLID_1_" class="st7" cx="500" cy="660.7" rx="325" ry="29" fill="#493B3B"/>
  <path id="XMLID_89_" class="st8" d="m403.5,384.6l-84,0l0,-14c0,-8.8 7.2,-16 16,-16l52,0c8.8,0 16,7.2 16,16l0,14z" fill="#C1A7A7"/>
  <path id="XMLID_2_" class="st9" d="m403.5,384.6l-84,0l0,-14c0,-8.8 7.2,-16 16,-16l52,0c8.8,0 16,7.2 16,16l0,14z" fill="none" stroke="#493B3B" stroke-width="6" stroke-linecap="round" stroke-linejoin="round" stroke-miterlimit="10"/>
  <g id="XMLID_190_">
   <g id="XMLID_217_">
    <line id="XMLID_218_" class="st10" x1="398.8" y1="357.9" x2="398.8" y2="384.6" fill="none" stroke="#493B3B" stroke-width="4" stroke-linecap="round" stroke-linejoin="round" stroke-miterlimit="10"/>
   </g>
   <g id="XMLID_214_">
    <line id="XMLID_215_" class="st10" x1="389.8" y1="357.9" x2="389.8" y2="384.6" fill="none" stroke="#493B3B" stroke-width="4" stroke-linecap="round" stroke-linejoin="round" stroke-miterlimit="10"/>
   </g>
   <g id="XMLID_211_">
    <line id="XMLID_212_" class="st10" x1="380.8" y1="357.9" x2="380.8" y2="384.6" fill="none" stroke="#493B3B" stroke-width="4" stroke-linecap="round" stroke-linejoin="round" stroke-miterlimit="10"/>
   </g>
   <g id="XMLID_208_">
    <line id="XMLID_209_" class="st10" x1="371.8" y1="357.9" x2="371.8" y2="384.6" fill="none" stroke="#493B3B" stroke-width="4" stroke-linecap="round" stroke-linejoin="round" stroke-miterlimit="10"/>
   </g>
   <g id="XMLID_205_">
    <line id="XMLID_206_" class="st10" x1="362.8" y1="357.9" x2="362.8" y2="384.6" fill="none" stroke="#493B3B" stroke-width="4" stroke-linecap="round" stroke-linejoin="round" stroke-miterlimit="10"/>
   </g>
   <g id="XMLID_202_">
    <line id="XMLID_203_" class="st10" x1="353.8" y1="357.9" x2="353.8" y2="384.6" fill="none" stroke="#493B3B" stroke-width="4" stroke-linecap="round" stroke-linejoin="round" stroke-miterlimit="10"/>
   </g>
   <g id="XMLID_199_">
    <line id="XMLID_200_" class="st10" x1="344.8" y1="357.9" x2="344.8" y2="384.6" fill="none" stroke="#493B3B" stroke-width="4" stroke-linecap="round" stroke-linejoin="round" stroke-miterlimit="10"/>
   </g>
   <g id="XMLID_196_">
    <line id="XMLID_197_" class="st10" x1="335.8" y1="357.9" x2="335.8" y2="384.6" fill="none" stroke="#493B3B" stroke-width="4" stroke-linecap="round" stroke-linejoin="round" stroke-miterlimit="10"/>
   </g>
   <g id="XMLID_193_">
    <line id="XMLID_194_" class="st10" x1="326.8" y1="357.9" x2="326.8" y2="384.6" fill="none" stroke="#493B3B" stroke-width="4" stroke-linecap="round" stroke-linejoin="round" stroke-miterlimit="10"/>
   </g>
  </g>
  <path id="XMLID_53_" class="st11" d="m744.9,348.7l-322,0c-8.9,0 -17.1,4.3 -22.5,11.3c-11.3,15 -29.3,24.7 -49.5,24.7l-118,0l0,252c0,13.3 10.7,24 24,24l488,0c13.3,0 24,-10.7 24,-24l0,-264c0,-13.3 -10.8,-24 -24,-24z" fill="#E2A86D"/>
  <rect id="XMLID_80_" x="232.9" y="428.4" class="st12" width="29" height="204.1" fill="#D6975F"/>
  <rect id="XMLID_111_" x="739.9" y="428.4" class="st12" width="29" height="204.1" fill="#D6975F"/>
  <g id="svg_15">
   <defs>
    <path id="XMLID_3_" d="m744.9,348.7l-322,0c-8.9,0 -17.1,4.3 -22.5,11.3c-11.3,15 -29.3,24.7 -49.5,24.7l-118,0l0,252c0,13.3 10.7,24 24,24l488,0c13.3,0 24,-10.7 24,-24l0,-264c0,-13.3 -10.8,-24 -24,-24z"/>
   </defs>
   <clipPath id="XMLID_7_">
    <use xlink:href="#XMLID_3_" id="svg_16"/>
   </clipPath>
   <g id="XMLID_69_" class="st13" clip-path="url(#XMLID_7_)">
    <g id="XMLID_336_">
     <g id="XMLID_358_">
      <path id="XMLID_359_" class="st14" d="m280.3,407.8c56,33.1 81.8,97.6 64.5,153c-20.4,65.5 -90.4,84.5 -94.5,85.5" fill="none" stroke="#CC894C" stroke-width="6" stroke-linecap="round" stroke-linejoin="round" stroke-miterlimit="10"/>
     </g>
     <path id="XMLID_357_" class="st14" d="m300.2,575.8c-24,26 -68.3,36.4 -108.4,16.5" fill="none" stroke="#CC894C" stroke-width="6" stroke-linecap="round" stroke-linejoin="round" stroke-miterlimit="10"/>
     <path id="XMLID_356_" class="st14" d="m205.3,436.3c60.7,5.1 106,40.7 112.5,82.5c0.3,2.2 3.1,21.6 -5.4,41.7" fill="none" stroke="#CC894C" stroke-width="6" stroke-linecap="round" stroke-linejoin="round" stroke-miterlimit="10"/>
     <path id="XMLID_355_" class="st14" d="m194.8,496.3c24,-17 46.4,-18.8 67.2,-8.7c14.6,7.2 32.7,25 30.6,38.7c-3.6,24 -44.6,52.2 -79.9,51" fill="none" stroke="#CC894C" stroke-width="6" stroke-linecap="round" stroke-linejoin="round" stroke-miterlimit="10"/>
     <path id="XMLID_354_" class="st14" d="m250.3,498.4c2.8,2.2 18,10.8 14.6,29.7c-1.1,6.2 -16.8,28.1 -43.1,23.7" fill="none" stroke="#CC894C" stroke-width="6" stroke-linecap="round" stroke-linejoin="round" stroke-miterlimit="10"/>
     <path id="XMLID_353_" class="st14" d="m206.8,521.8c13.7,-10.1 34.4,-19.7 43.5,-4.4" fill="none" stroke="#CC894C" stroke-width="6" stroke-linecap="round" stroke-linejoin="round" stroke-miterlimit="10"/>
     <path id="XMLID_352_" class="st14" d="m206.8,631.3c9.8,0.8 66.9,4.4 103.5,-36c9.5,-10.5 15.6,-21.7 19.5,-31.5" fill="none" stroke="#CC894C" stroke-width="6" stroke-linecap="round" stroke-linejoin="round" stroke-miterlimit="10"/>
     <path id="XMLID_351_" class="st14" d="m337.3,407.8c7.1,16.7 25.7,53.2 64.5,70.5c58.4,26.1 140.3,-1.2 192,-73.5" fill="none" stroke="#CC894C" stroke-width="6" stroke-linecap="round" stroke-linejoin="round" stroke-miterlimit="10"/>
     <path id="XMLID_350_" class="st14" d="m385.3,409.3c0.7,5.4 3.6,22.2 18,36c19.4,18.6 44.1,16.8 48,16.5" fill="none" stroke="#CC894C" stroke-width="6" stroke-linecap="round" stroke-linejoin="round" stroke-miterlimit="10"/>
     <path id="XMLID_349_" class="st14" d="m397.1,594.3c-14,-9.1 -35,-23.9 -35,-66.1c0,-13.9 4.3,-21.7 7.6,-23.5c11.5,-6.2 48.3,35.1 95.1,47.1c36.4,9.4 96.9,-13.2 182.6,-85.7" fill="none" stroke="#CC894C" stroke-width="6" stroke-linecap="round" stroke-linejoin="round" stroke-miterlimit="10"/>
     <path id="XMLID_348_" class="st14" d="m676.2,415.3c-31.4,4 -93.9,17.1 -133.5,67.5c-2.2,2.7 -26,33.3 -19.5,40.5c4.3,4.7 36.9,-46.2 98.6,-68.9c14.9,-5.5 27.9,-8 36.9,-9.3" fill="none" stroke="#CC894C" stroke-width="6" stroke-linecap="round" stroke-linejoin="round" stroke-miterlimit="10"/>
     <path id="XMLID_347_" class="st14" d="m301.3,674.8c7.3,-35.2 29.4,-59 52.5,-60c0.8,0 20,-0.6 28.5,12c10.2,15.2 1.7,45 -27,69" fill="none" stroke="#CC894C" stroke-width="6" stroke-linecap="round" stroke-linejoin="round" stroke-miterlimit="10"/>
     <path id="XMLID_346_" class="st14" d="m350.1,597.8c27.3,-2.8 51.7,11 64.3,32.9c16.1,27.7 13.4,61.2 -15.7,83.1" fill="none" stroke="#CC894C" stroke-width="6" stroke-linecap="round" stroke-linejoin="round" stroke-miterlimit="10"/>
     <path id="XMLID_345_" class="st14" d="m674.1,473.3c-4.3,4.9 -26,21.3 -34.5,26.1c-44.2,25 -50.3,11.6 -94,61.1c-23.6,26.7 -44.1,91.9 -79.4,136.8" fill="none" stroke="#CC894C" stroke-width="6" stroke-linecap="round" stroke-linejoin="round" stroke-miterlimit="10"/>
     <path id="XMLID_344_" class="st14" d="m721.6,376.6c-0.8,26.2 -14.7,54.9 -35.2,81.7" fill="none" stroke="#CC894C" stroke-width="6" stroke-linecap="round" stroke-linejoin="round" stroke-miterlimit="10"/>
     <path id="XMLID_343_" class="st14" d="m796.2,437.8c-9.3,1.3 -63.9,10.1 -94.5,58.5c-3.9,6.1 -16.9,27.3 -18,55.5c-1.9,48.7 32.9,97 87,124.5" fill="none" stroke="#CC894C" stroke-width="6" stroke-linecap="round" stroke-linejoin="round" stroke-miterlimit="10"/>
     <path id="XMLID_342_" class="st14" d="m724,583.9c8.8,31.1 40.5,56.4 79.7,65.5" fill="none" stroke="#CC894C" stroke-width="6" stroke-linecap="round" stroke-linejoin="round" stroke-miterlimit="10"/>
     <path id="XMLID_341_" class="st14" d="m797.7,494.8c-32.2,6 -65.5,26.5 -73.4,53.3c-1.7,5.7 -2.6,11.4 -2.7,17" fill="none" stroke="#CC894C" stroke-width="6" stroke-linecap="round" stroke-linejoin="round" stroke-miterlimit="10"/>
     <path id="XMLID_340_" class="st14" d="m569.7,697.3c12.5,-71.9 52.6,-107.4 74.2,-121.6c22.2,-14.5 46.2,-8.5 24.7,31.6c-15.2,28.4 0.9,69 -33,94.5" fill="none" stroke="#CC894C" stroke-width="6" stroke-linecap="round" stroke-linejoin="round" stroke-miterlimit="10"/>
     <path id="XMLID_339_" class="st14" d="m808.2,526.3c-37.2,5.5 -58.8,25.5 -57,39c1.5,11.1 19.2,20.5 40.5,24" fill="none" stroke="#CC894C" stroke-width="6" stroke-linecap="round" stroke-linejoin="round" stroke-miterlimit="10"/>
     <path id="XMLID_338_" class="st14" d="m652.2,548.8c4.4,-17.4 15.9,-52.5 46.5,-85.5c34,-36.7 72.7,-50.5 90,-55.5" fill="none" stroke="#CC894C" stroke-width="6" stroke-linecap="round" stroke-linejoin="round" stroke-miterlimit="10"/>
     <path id="XMLID_337_" class="st14" d="m624.7,636.4c-1.9,-18 5.7,-31.8 15.3,-34c1.7,-0.4 12.2,-1.3 12.2,12.4" fill="none" stroke="#CC894C" stroke-width="6" stroke-linecap="round" stroke-linejoin="round" stroke-miterlimit="10"/>
    </g>
   </g>
  </g>
  <g id="XMLID_120_">
   <path id="XMLID_117_" class="st15" d="m390.1,615.9l50.3,-22.2l-19.4,-43.9l-50.3,22.2c-12.1,5.4 -17.6,19.5 -12.3,31.6l0,0c5.4,12.2 19.6,17.6 31.7,12.3z" fill="#E5D6D6"/>
   <path id="XMLID_106_" class="st9" d="m390.1,615.9l50.3,-22.2l-19.4,-43.9l-50.3,22.2c-12.1,5.4 -17.6,19.5 -12.3,31.6l0,0c5.4,12.2 19.6,17.6 31.7,12.3z" fill="none" stroke="#493B3B" stroke-width="6" stroke-linecap="round" stroke-linejoin="round" stroke-miterlimit="10"/>
   <circle id="XMLID_119_" class="st16" cx="380.4" cy="593.9" r="14.4" fill="#EFE6E6"/>
   <circle id="XMLID_110_" class="st10" cx="380.4" cy="593.9" r="14.4" fill="none" stroke="#493B3B" stroke-width="4" stroke-linecap="round" stroke-linejoin="round" stroke-miterlimit="10"/>
  </g>
  <path id="XMLID_55_" class="st15" d="m232.9,632.5l0,4.1c0,13.3 10.7,24 24,24l488,0c13.3,0 24,-10.7 24,-24l0,-4.1l-536,0z" fill="#E5D6D6"/>
  <path id="XMLID_147_" class="st17" d="m500.9,431.3c-62.7,0 -113.5,51 -113.5,113.8c0,8 0.8,15.8 2.4,23.4l-19.1,8.4c-12.1,5.4 -17.6,19.5 -12.3,31.6l0,0c5.4,12.1 19.5,17.6 31.6,12.3l19.2,-8.5c20.6,28.3 54,46.6 91.6,46.6c62.7,0 113.5,-51 113.5,-113.8c0.1,-62.8 -50.7,-113.8 -113.4,-113.8z" opacity="0.2" fill="#2D2D2D" stroke="#2D2D2D" stroke-width="8" stroke-linecap="round" stroke-linejoin="round" stroke-miterlimit="10" enable-background="new"/>
  <path id="XMLID_153_" class="st18" d="m744.9,660.7l-5,0l0,-28.1l29,0l0,4.1c0,13.2 -10.8,24 -24,24z" fill="#DBC8C8"/>
  <path id="XMLID_133_" class="st18" d="m256.9,660.7l5,0l0,-28.1l-29,0l0,4.1c0,13.2 10.7,24 24,24z" fill="#DBC8C8"/>
  <path id="XMLID_54_" class="st15" d="m744.9,348.4l-322,0c-8.9,0 -17.2,4.3 -22.5,11.4c-11.3,15.1 -29.3,24.8 -49.5,24.8l-118,0l0,43.8l536,0l0,-55.9c0,-13.3 -10.8,-24.1 -24,-24.1z" fill="#E5D6D6"/>
  <rect id="XMLID_4_" x="232.9" y="385.6" class="st18" width="29" height="42.8" fill="#DBC8C8"/>
  <path id="XMLID_166_" class="st8" d="m600.1,412.6l-335,0c-1.8,0 -3.3,-1.5 -3.3,-3.3l0,0c0,-1.8 1.5,-3.3 3.3,-3.3l335,0c1.8,0 3.3,1.5 3.3,3.3l0,0c0,1.8 -1.5,3.3 -3.3,3.3z" fill="#C1A7A7"/>
  <path id="XMLID_142_" class="st18" d="m744.8,348.4l-5,0l0,80l29,0l0,-56c0,-13.2 -10.7,-24 -24,-24z" fill="#DBC8C8"/>
  <ellipse id="XMLID_22_" class="st15" cx="500.9" cy="528.2" rx="113.5" ry="113.8" fill="#E5D6D6"/>
  <circle id="XMLID_90_" class="st19" cx="500.9" cy="528.2" r="91" fill="#845B5B"/>
  <path id="XMLID_126_" class="st20" d="m500.9,457.2c46.8,0 85.5,35.5 90.4,81c0.4,-3.3 0.6,-6.6 0.6,-10c0,-50.2 -40.8,-91 -91,-91s-91,40.8 -91,91c0,3.4 0.2,6.7 0.6,10c4.9,-45.5 43.6,-81 90.4,-81z" fill="#704848"/>
  <path id="XMLID_52_" class="st9" d="m744.9,348.7l-322,0c-8.9,0 -17.1,4.3 -22.5,11.3c-11.3,15 -29.3,24.7 -49.5,24.7l-118,0l0,252c0,13.3 10.7,24 24,24l488,0c13.3,0 24,-10.7 24,-24l0,-264c0,-13.3 -10.8,-24 -24,-24z" fill="none" stroke="#493B3B" stroke-width="6" stroke-linecap="round" stroke-linejoin="round" stroke-miterlimit="10"/>
  <circle id="XMLID_24_" class="st21" cx="500.9" cy="528.2" r="102.5" fill="none" stroke="#493B3B" stroke-width="3" stroke-linecap="round" stroke-linejoin="round" stroke-miterlimit="10"/>
  <circle id="XMLID_25_" class="st22" cx="500.9" cy="528.2" r="91" fill="none" stroke="#493B3B" stroke-width="8" stroke-linecap="round" stroke-linejoin="round" stroke-miterlimit="10"/>
  <circle id="XMLID_82_" class="st23" cx="500.9" cy="528.2" r="62" fill="#B57F7F"/>
  <path id="XMLID_91_" class="st24" d="m543.6,528.2c30,0 46.5,35 27.3,58c-16.7,20.1 -41.9,33 -70,33c-28.1,0 -53.3,-12.8 -70,-33c-19.2,-23.1 -2.6,-58 27.3,-58l85.4,0z" opacity="0.34" fill="#FFFFFF" enable-background="new"/>
  <path id="XMLID_108_" class="st25" d="m500.9,486.2c30.8,0 56.4,22.6 61.2,52c0.5,-3.3 0.8,-6.6 0.8,-10c0,-34.2 -27.8,-62 -62,-62s-62,27.8 -62,62c0,3.4 0.3,6.7 0.8,10c4.8,-29.5 30.4,-52 61.2,-52z" fill="#AD6D6D"/>
  <circle id="XMLID_27_" class="st9" cx="500.9" cy="528.2" r="62" fill="none" stroke="#493B3B" stroke-width="6" stroke-linecap="round" stroke-linejoin="round" stroke-miterlimit="10"/>
  <ellipse id="XMLID_84_" transform="matrix(0.1602 -0.9871 0.9871 0.1602 -100.7149 938.0239)" class="st26" cx="500.9" cy="528.2" rx="37" ry="37" fill="#4C3535"/>
  <ellipse id="XMLID_37_" transform="matrix(0.1602 -0.9871 0.9871 0.1602 -100.7149 938.0239)" class="st21" cx="500.9" cy="528.2" rx="37" ry="37" fill="none" stroke="#493B3B" stroke-width="3" stroke-linecap="round" stroke-linejoin="round" stroke-miterlimit="10"/>
  <ellipse id="XMLID_85_" transform="matrix(0.1602 -0.9871 0.9871 0.1602 -100.7149 938.0239)" class="st27" cx="500.9" cy="528.2" rx="23.5" ry="23.5" fill="#3F2E2E"/>
  <path id="XMLID_150_" class="st28" d="m308.3,384.6l-52.3,0l0,-10c0,-3.3 2.7,-6 6,-6l40.3,0c3.3,0 6,2.7 6,6l0,10z" fill="#6A4949"/>
  <path id="XMLID_20_" class="st9" d="m308.3,384.6l-52.3,0l0,-10c0,-3.3 2.7,-6 6,-6l40.3,0c3.3,0 6,2.7 6,6l0,10z" fill="none" stroke="#493B3B" stroke-width="6" stroke-linecap="round" stroke-linejoin="round" stroke-miterlimit="10"/>
  <rect id="XMLID_29_" x="264.2" y="356.7" class="st9" width="36" height="11.9" fill="none" stroke="#493B3B" stroke-width="6" stroke-linecap="round" stroke-linejoin="round" stroke-miterlimit="10"/>
  <rect id="XMLID_115_" x="264.2" y="356.7" class="st7" width="36" height="11.9" fill="#493B3B"/>
  <ellipse id="XMLID_79_" class="st22" cx="500.9" cy="528.2" rx="113.5" ry="113.8" fill="none" stroke="#493B3B" stroke-width="8" stroke-linecap="round" stroke-linejoin="round" stroke-miterlimit="10"/>
  <path id="XMLID_98_" class="st29" d="m500.9,504.7c-13,0 -23.5,10.5 -23.5,23.5c0,0.1 0,0.1 0,0.2c3.1,-2.6 7.7,-4 13.8,-3.5c6.1,0.5 7.2,2.4 14,4.4c6,1.7 13.7,1.1 19.2,-1.6c-0.3,-12.8 -10.7,-23 -23.5,-23z" opacity="0.38" fill="#FFFFFF" enable-background="new"/>
  <circle id="XMLID_26_" class="st21" cx="500.9" cy="528.2" r="76" fill="none" stroke="#493B3B" stroke-width="3" stroke-linecap="round" stroke-linejoin="round" stroke-miterlimit="10"/>
  <circle id="XMLID_86_" class="st22" cx="500.9" cy="528.2" r="91" fill="none" stroke="#493B3B" stroke-width="8" stroke-linecap="round" stroke-linejoin="round" stroke-miterlimit="10"/>
  <path id="XMLID_114_" class="st30" d="m714.4,420.4l-85.7,0c-6.5,0 -11.8,-5.3 -11.8,-11.8l0,-34.2c0,-6.5 5.3,-11.8 11.8,-11.8l85.7,0c6.5,0 11.8,5.3 11.8,11.8l0,34.2c0,6.5 -5.3,11.8 -11.8,11.8z" fill="#443636"/>
  <path id="XMLID_151_" class="st10" d="m714.4,420.4l-85.7,0c-6.5,0 -11.8,-5.3 -11.8,-11.8l0,-34.2c0,-6.5 5.3,-11.8 11.8,-11.8l85.7,0c6.5,0 11.8,5.3 11.8,11.8l0,34.2c0,6.5 -5.3,11.8 -11.8,11.8z" fill="none" stroke="#493B3B" stroke-width="4" stroke-linecap="round" stroke-linejoin="round" stroke-miterlimit="10"/>
  <path id="XMLID_149_" class="st19" d="m706.9,414.4l-70.7,0c-5.5,0 -10,-4.5 -10,-10l0,-25.8c0,-5.5 4.5,-10 10,-10l70.7,0c5.5,0 10,4.5 10,10l0,25.8c0,5.6 -4.5,10 -10,10z" fill="#845B5B"/>
  <path id="XMLID_395_" class="st29" d="m689.6,414.4l27.2,-37.2c-0.7,-4.8 -4.8,-8.6 -9.9,-8.6l-3.2,0l-33.4,45.8l19.3,0l0,0z" opacity="0.38" fill="#FFFFFF" enable-background="new"/>
  <polygon id="XMLID_394_" class="st29" points="663,414.4 696.4,368.6 690.5,368.6 657.1,414.4 " opacity="0.38" fill="#FFFFFF" enable-background="new"/>
 </g>
</svg>