<svg width="1000" height="1000" xmlns="http://www.w3.org/2000/svg" version="1.1" xml:space="preserve">
 <g>
  <title>Layer 1</title>
  <g id="XMLID_34_">
   <path id="XMLID_223_" class="st2" d="m789.5,666.3l-620.3,0c-5,0 -9,-4 -9,-9l0,0c0,-5 4,-9 9,-9l620.3,0c5,0 9,4 9,9l0,0c0,5 -4,9 -9,9z" fill="#C9C9C9"/>
   <g id="XMLID_19_">
    <g id="XMLID_163_">
     <path id="XMLID_178_" class="st3" d="m285.9,573.3c-9.6,0 -17.3,-7.8 -17.3,-17.3s7.8,-17.3 17.3,-17.3l98,0l0,34.7l-98,0l0,-0.1z" fill="#CECECE"/>
     <path id="XMLID_162_" class="st4" d="m389.6,579.3l-103.7,0c-12.9,0 -23.3,-10.5 -23.3,-23.3l0,0c0,-12.9 10.5,-23.3 23.3,-23.3l103.7,0l0,46.6z" fill="#FFFFFF"/>
     <line id="XMLID_164_" class="st5" x1="279.5" y1="550.6" x2="383.9" y2="550.6" fill="none" stroke="#1F3969" stroke-width="4" stroke-linecap="round" stroke-linejoin="round" stroke-miterlimit="10"/>
     <line id="XMLID_173_" class="st5" x1="279.5" y1="561.2" x2="383.9" y2="561.2" fill="none" stroke="#1F3969" stroke-width="4" stroke-linecap="round" stroke-linejoin="round" stroke-miterlimit="10"/>
     <path id="XMLID_179_" class="st5" d="m285.9,573.3c-9.6,0 -17.3,-7.8 -17.3,-17.3s7.8,-17.3 17.3,-17.3l98,0l0,34.7l-98,0l0,-0.1z" fill="none" stroke="#1F3969" stroke-width="4" stroke-linecap="round" stroke-linejoin="round" stroke-miterlimit="10"/>
     <path id="XMLID_161_" class="st6" d="m285.9,573.3c-9.6,0 -17.3,-7.8 -17.3,-17.3s7.8,-17.3 17.3,-17.3l99.7,0l4,-6l-103.7,0c-12.9,0 -23.3,10.5 -23.3,23.3l0,0c0,12.9 10.5,23.3 23.3,23.3l103.7,0l-4,-6l-99.7,0z" fill="#FF3E3E"/>
     <path id="XMLID_182_" class="st5" d="m285.9,573.3c-9.6,0 -17.3,-7.8 -17.3,-17.3s7.8,-17.3 17.3,-17.3l99.7,0l4,-6l-103.7,0c-12.9,0 -23.3,10.5 -23.3,23.3l0,0c0,12.9 10.5,23.3 23.3,23.3l103.7,0l-4,-6l-99.7,0z" fill="none" stroke="#1F3969" stroke-width="4" stroke-linecap="round" stroke-linejoin="round" stroke-miterlimit="10"/>
     <rect id="XMLID_224_" x="348.9" y="532.6" class="st7" width="18.4" height="46.7" opacity="0.28" fill="#1F3969" stroke="#1F3969" stroke-width="4" stroke-linecap="round" stroke-linejoin="round" stroke-miterlimit="10"/>
    </g>
    <g id="XMLID_160_">
     <path id="XMLID_157_" class="st8" d="m378.9,617.8l-189.9,0c-3.7,0 -6.8,-3 -6.8,-6.8l0,-25c0,-3.7 3,-6.8 6.8,-6.8l189.9,0c3.7,0 6.8,3 6.8,6.8l0,25c0,3.8 -3,6.8 -6.8,6.8z" fill="#50B56F"/>
     <g id="svg_109">
      <path class="st4" d="m240.3,599.8l-2.6,0l0,5.5l-1.7,0l0,-13.3l4.3,0c3.1,0 4.6,1.7 4.6,3.9c0,2 -1.3,3.9 -4.6,3.9zm0,-1.5c2,0 2.8,-0.9 2.8,-2.4c0,-1.5 -0.8,-2.5 -2.8,-2.5l-2.6,0l0,4.9l2.6,0z" fill="#FFFFFF" id="svg_110"/>
      <path class="st4" d="m249.7,592l1.9,0l3.3,6.7l3.3,-6.7l1.9,0l-4.3,8.3l0,5l-1.7,0l0,-5l-4.4,-8.3z" fill="#FFFFFF" id="svg_111"/>
      <path class="st4" d="m264.9,592l9,0l0,1.4l-3.6,0l0,11.9l-1.7,0l0,-11.9l-3.6,0l0,-1.4l-0.1,0z" fill="#FFFFFF" id="svg_112"/>
      <path class="st4" d="m288.4,599.3l-6.8,0l0,6l-1.7,0l0,-13.3l1.7,0l0,5.8l6.8,0l0,-5.8l1.7,0l0,13.3l-1.7,0l0,-6z" fill="#FFFFFF" id="svg_113"/>
      <path class="st4" d="m302.9,605.4c-3.7,0 -6.7,-2.8 -6.7,-6.8c0,-4 2.9,-6.8 6.7,-6.8c3.8,0 6.7,2.8 6.7,6.8c-0.1,4 -3,6.8 -6.7,6.8zm0,-1.5c2.8,0 4.9,-2 4.9,-5.3c0,-3.3 -2.1,-5.3 -4.9,-5.3s-4.9,2 -4.9,5.3c0,3.3 2.1,5.3 4.9,5.3z" fill="#FFFFFF" id="svg_114"/>
      <path class="st4" d="m326.1,592l0,13.3l-1.7,0l-7,-10.6l0,10.6l-1.7,0l0,-13.3l1.7,0l7,10.5l0,-10.5l1.7,0z" fill="#FFFFFF" id="svg_115"/>
     </g>
     <path id="XMLID_146_" class="st5" d="m378.9,617.8l-189.9,0c-3.7,0 -6.8,-3 -6.8,-6.8l0,-25c0,-3.7 3,-6.8 6.8,-6.8l189.9,0c3.7,0 6.8,3 6.8,6.8l0,25c0,3.8 -3,6.8 -6.8,6.8z" fill="none" stroke="#1F3969" stroke-width="4" stroke-linecap="round" stroke-linejoin="round" stroke-miterlimit="10"/>
    </g>
    <path id="XMLID_246_" class="st7" d="m378.9,579.3l-30,0l0,15c0,9.4 7.6,17.1 17.1,17.1l19.7,0c0,-0.1 0,-0.2 0,-0.3l0,-25c0,-3.8 -3,-6.8 -6.8,-6.8z" opacity="0.28" fill="#1F3969" stroke="#1F3969" stroke-width="4" stroke-linecap="round" stroke-linejoin="round" stroke-miterlimit="10"/>
    <path id="XMLID_35_" class="st3" d="m432.4,625.6l-220,0c1.3,3.2 2,7.2 2,11.4c0,4.2 -0.7,8.1 -2,11.4l219.9,0c-1.3,-3.2 -2,-7.2 -2,-11.4c0.1,-4.3 0.8,-8.2 2.1,-11.4z" fill="#CECECE"/>
    <rect id="XMLID_156_" x="206.5" y="619.5" class="st9" width="231.9" height="6" fill="#5F5AFF"/>
    <rect id="XMLID_32_" x="206.5" y="619.5" class="st5" width="231.9" height="6" fill="none" stroke="#1F3969" stroke-width="4" stroke-linecap="round" stroke-linejoin="round" stroke-miterlimit="10"/>
    <rect id="XMLID_147_" x="206.5" y="648.3" class="st10" width="231.9" height="6" fill="#F6F9FD"/>
    <rect id="XMLID_39_" x="206.5" y="648.3" class="st9" width="231.9" height="6" fill="#5F5AFF"/>
    <rect id="XMLID_37_" x="206.5" y="648.3" class="st5" width="231.9" height="6" fill="none" stroke="#1F3969" stroke-width="4" stroke-linecap="round" stroke-linejoin="round" stroke-miterlimit="10"/>
    <path id="XMLID_69_" class="st11" d="m553.6,633l-3,-33.7l-49.4,0l-3,33.7c-0.7,7.8 -5.4,15.3 -12.8,21.3l0,0.1l81,0l0,-0.1c-7.4,-6 -12.1,-13.5 -12.8,-21.3z" fill="#BFCFE2"/>
    <polygon id="XMLID_33_" class="st7" points="501.2,599.3 499.4,619.5 552.4,619.5 550.6,599.3   " opacity="0.28" fill="#1F3969" stroke="#1F3969" stroke-width="4" stroke-linecap="round" stroke-linejoin="round" stroke-miterlimit="10"/>
    <path id="XMLID_10_" class="st5" d="m553.6,633l-3,-33.7l-49.4,0l-3,33.7c-0.7,7.8 -5.4,15.3 -12.8,21.3l0,0.1l81,0l0,-0.1c-7.4,-6 -12.1,-13.5 -12.8,-21.3z" fill="none" stroke="#1F3969" stroke-width="4" stroke-linecap="round" stroke-linejoin="round" stroke-miterlimit="10"/>
    <path id="XMLID_13_" class="st4" d="m683.9,604.3l-316,0c-6.6,0 -12,-5.4 -12,-12l0,-206c0,-6.6 5.4,-12 12,-12l316,0c6.6,0 12,5.4 12,12l0,206c0,6.7 -5.4,12 -12,12z" fill="#FFFFFF"/>
    <path id="XMLID_63_" class="st11" d="m683.9,604.3l-316,0c-6.6,0 -12,-5.4 -12,-12l0,-206c0,-6.6 5.4,-12 12,-12l316,0c6.6,0 12,5.4 12,12l0,206c0,6.7 -5.4,12 -12,12z" fill="#BFCFE2"/>
    <path id="XMLID_4_" class="st5" d="m683.9,604.3l-316,0c-6.6,0 -12,-5.4 -12,-12l0,-206c0,-6.6 5.4,-12 12,-12l316,0c6.6,0 12,5.4 12,12l0,206c0,6.7 -5.4,12 -12,12z" fill="none" stroke="#1F3969" stroke-width="4" stroke-linecap="round" stroke-linejoin="round" stroke-miterlimit="10"/>
    <rect id="XMLID_68_" x="438.6" y="325.6" transform="matrix(-1.836970e-16 1 -1 -1.836970e-16 1004.5556 -47.2719)" class="st10" width="174.6" height="306" fill="#F6F9FD"/>
    <path id="XMLID_197_" class="st7" d="m383.9,374.3l0,138.6c0,4.4 3.6,8 8,8l189.1,0c4.4,0 8,-3.6 8,-8l0,-138.6l-205.1,0z" opacity="0.28" fill="#1F3969" stroke="#1F3969" stroke-width="4" stroke-linecap="round" stroke-linejoin="round" stroke-miterlimit="10"/>
    <rect id="XMLID_11_" x="438.6" y="325.6" transform="matrix(-1.836970e-16 1 -1 -1.836970e-16 1004.5556 -47.2719)" class="st5" width="174.6" height="306" fill="none" stroke="#1F3969" stroke-width="4" stroke-linecap="round" stroke-linejoin="round" stroke-miterlimit="10"/>
    <line id="XMLID_9_" class="st5" x1="512.5" y1="585" x2="539.4" y2="585" fill="none" stroke="#1F3969" stroke-width="4" stroke-linecap="round" stroke-linejoin="round" stroke-miterlimit="10"/>
    <path id="XMLID_15_" class="st1" d="m590,509.9l-189.1,0c-4.4,0 -8,-3.6 -8,-8l0,-148.2c0,-4.4 3.6,-8 8,-8l189.1,0c4.4,0 8,3.6 8,8l0,148.3c0,4.4 -3.6,7.9 -8,7.9z" fill="#2D425E"/>
    <path id="XMLID_17_" class="st5" d="m598,365.1l-205.1,0l0,-11.5c0,-4.4 3.6,-8 8,-8l189.1,0c4.4,0 8,3.6 8,8l0,11.5z" fill="none" stroke="#1F3969" stroke-width="4" stroke-linecap="round" stroke-linejoin="round" stroke-miterlimit="10"/>
    <path id="XMLID_23_" class="st12" d="m598,368.9l-205.1,0l0,-15.3c0,-4.4 3.6,-8 8,-8l189.1,0c4.4,0 8,3.6 8,8l0,15.3z" fill="#D0DDF0"/>
    <path id="XMLID_18_" class="st5" d="m598,368.9l-205.1,0l0,-15.3c0,-4.4 3.6,-8 8,-8l189.1,0c4.4,0 8,3.6 8,8l0,15.3z" fill="none" stroke="#1F3969" stroke-width="4" stroke-linecap="round" stroke-linejoin="round" stroke-miterlimit="10"/>
    <path id="XMLID_20_" class="st5" d="m598,368.9l-205.1,0l0,-15.3c0,-4.4 3.6,-8 8,-8l189.1,0c4.4,0 8,3.6 8,8l0,15.3z" fill="none" stroke="#1F3969" stroke-width="4" stroke-linecap="round" stroke-linejoin="round" stroke-miterlimit="10"/>
    <path id="XMLID_12_" class="st5" d="m590,509.9l-189.1,0c-4.4,0 -8,-3.6 -8,-8l0,-148.2c0,-4.4 3.6,-8 8,-8l189.1,0c4.4,0 8,3.6 8,8l0,148.3c0,4.4 -3.6,7.9 -8,7.9z" fill="none" stroke="#1F3969" stroke-width="4" stroke-linecap="round" stroke-linejoin="round" stroke-miterlimit="10"/>
    <g id="XMLID_72_">
     <path id="XMLID_7_" class="st7" d="m688.7,545.3l-116,0c-4.4,0 -8,-3.6 -8,-8l0,-122.9c0,-4.4 3.6,-8 8,-8l116,0c4.4,0 8,3.6 8,8l0,122.9c0,4.5 -3.6,8 -8,8z" opacity="0.28" fill="#1F3969" stroke="#1F3969" stroke-width="4" stroke-linecap="round" stroke-linejoin="round" stroke-miterlimit="10"/>
     <path id="XMLID_16_" class="st13" d="m696.7,538.3l-116,0c-4.4,0 -8,-3.6 -8,-8l0,-122.9c0,-4.4 3.6,-8 8,-8l116,0c4.4,0 8,3.6 8,8l0,122.9c0,4.5 -3.6,8 -8,8z" fill="#2AA1FF"/>
     <path id="XMLID_14_" class="st5" d="m696.7,538.3l-116,0c-4.4,0 -8,-3.6 -8,-8l0,-122.9c0,-4.4 3.6,-8 8,-8l116,0c4.4,0 8,3.6 8,8l0,122.9c0,4.5 -3.6,8 -8,8z" fill="none" stroke="#1F3969" stroke-width="4" stroke-linecap="round" stroke-linejoin="round" stroke-miterlimit="10"/>
     <path id="XMLID_75_" class="st14" d="m679.4,437.5l-81.6,0c-2.9,0 -5.2,-2.3 -5.2,-5.2l0,-7.8c0,-2.9 2.3,-5.2 5.2,-5.2l81.6,0c2.9,0 5.2,2.3 5.2,5.2l0,7.8c0,2.9 -2.3,5.2 -5.2,5.2z" opacity="0.34" fill="none" stroke="#FFFFFF" stroke-width="2" stroke-linecap="round" stroke-linejoin="round" stroke-miterlimit="10"/>
     <g id="XMLID_143_" class="st15" opacity="0.34">
      <path id="XMLID_78_" class="st16" d="m643.6,466.8l-45.6,0c-2.9,0 -5.2,-2.3 -5.2,-5.2l0,-7.8c0,-2.9 2.3,-5.2 5.2,-5.2l45.6,0c2.9,0 5.2,2.3 5.2,5.2l0,7.8c-0.1,2.9 -2.4,5.2 -5.2,5.2z" fill="none" stroke="#FFFFFF" stroke-width="2" stroke-linecap="round" stroke-linejoin="round" stroke-miterlimit="10"/>
      <path id="XMLID_79_" class="st16" d="m679.5,466.8l-17.7,0c-2.9,0 -5.2,-2.3 -5.2,-5.2l0,-7.8c0,-2.9 2.3,-5.2 5.2,-5.2l17.7,0c2.9,0 5.2,2.3 5.2,5.2l0,7.8c0,2.9 -2.3,5.2 -5.2,5.2z" fill="none" stroke="#FFFFFF" stroke-width="2" stroke-linecap="round" stroke-linejoin="round" stroke-miterlimit="10"/>
     </g>
     <g id="XMLID_76_">
      <line id="XMLID_135_" class="st16" x1="592.7" y1="497.2" x2="684.6" y2="497.2" fill="none" stroke="#FFFFFF" stroke-width="2" stroke-linecap="round" stroke-linejoin="round" stroke-miterlimit="10"/>
      <line id="XMLID_136_" class="st16" x1="592.7" y1="508" x2="684.6" y2="508" fill="none" stroke="#FFFFFF" stroke-width="2" stroke-linecap="round" stroke-linejoin="round" stroke-miterlimit="10"/>
      <line id="XMLID_138_" class="st16" x1="592.7" y1="518.8" x2="648.7" y2="518.8" fill="none" stroke="#FFFFFF" stroke-width="2" stroke-linecap="round" stroke-linejoin="round" stroke-miterlimit="10"/>
     </g>
    </g>
    <circle id="XMLID_24_" class="st17" cx="413" cy="357.3" r="4" fill="#1F3969"/>
    <circle id="XMLID_28_" class="st17" cx="426.9" cy="357.3" r="4" fill="#1F3969"/>
    <circle id="XMLID_38_" class="st17" cx="440.8" cy="357.3" r="4" fill="#1F3969"/>
    <g id="XMLID_61_">
     <line id="XMLID_54_" class="st18" x1="510.7" y1="387.4" x2="523.7" y2="387.4" fill="none" stroke="#FFFFFF" stroke-width="4" stroke-linecap="round" stroke-linejoin="round" stroke-miterlimit="10"/>
     <line id="XMLID_66_" class="st19" x1="444.8" y1="387.4" x2="501.1" y2="387.4" fill="none" stroke="#7BFFA0" stroke-width="4" stroke-linecap="round" stroke-linejoin="round" stroke-miterlimit="10"/>
     <line id="XMLID_29_" class="st20" x1="417" y1="387.4" x2="436.8" y2="387.4" fill="none" stroke="#9169FF" stroke-width="4" stroke-linecap="round" stroke-linejoin="round" stroke-miterlimit="10"/>
    </g>
    <g id="XMLID_42_">
     <line id="XMLID_62_" class="st20" x1="442.8" y1="485.9" x2="485.8" y2="485.9" fill="none" stroke="#9169FF" stroke-width="4" stroke-linecap="round" stroke-linejoin="round" stroke-miterlimit="10"/>
     <line id="XMLID_30_" class="st19" x1="417" y1="485.9" x2="430.9" y2="485.9" fill="none" stroke="#7BFFA0" stroke-width="4" stroke-linecap="round" stroke-linejoin="round" stroke-miterlimit="10"/>
    </g>
    <g id="XMLID_27_">
     <line id="XMLID_60_" class="st18" x1="501.1" y1="399.7" x2="509.2" y2="399.7" fill="none" stroke="#FFFFFF" stroke-width="4" stroke-linecap="round" stroke-linejoin="round" stroke-miterlimit="10"/>
     <line id="XMLID_45_" class="st20" x1="464.3" y1="399.7" x2="491.5" y2="399.7" fill="none" stroke="#9169FF" stroke-width="4" stroke-linecap="round" stroke-linejoin="round" stroke-miterlimit="10"/>
     <line id="XMLID_47_" class="st21" x1="426.9" y1="399.7" x2="454.6" y2="399.7" fill="none" stroke="#FFC47D" stroke-width="4" stroke-linecap="round" stroke-linejoin="round" stroke-miterlimit="10"/>
    </g>
    <g id="XMLID_49_">
     <line id="XMLID_59_" class="st18" x1="469.8" y1="412" x2="493.7" y2="412" fill="none" stroke="#FFFFFF" stroke-width="4" stroke-linecap="round" stroke-linejoin="round" stroke-miterlimit="10"/>
     <line id="XMLID_50_" class="st22" x1="439.8" y1="412" x2="462.3" y2="412" fill="none" stroke="#FF5757" stroke-width="4" stroke-linecap="round" stroke-linejoin="round" stroke-miterlimit="10"/>
    </g>
    <g id="XMLID_65_">
     <line id="XMLID_58_" class="st18" x1="473" y1="424.3" x2="477.9" y2="424.3" fill="none" stroke="#FFFFFF" stroke-width="4" stroke-linecap="round" stroke-linejoin="round" stroke-miterlimit="10"/>
     <line id="XMLID_70_" class="st20" x1="453.2" y1="424.3" x2="464.3" y2="424.3" fill="none" stroke="#9169FF" stroke-width="4" stroke-linecap="round" stroke-linejoin="round" stroke-miterlimit="10"/>
     <line id="XMLID_67_" class="st19" x1="426.9" y1="424.3" x2="444.8" y2="424.3" fill="none" stroke="#7BFFA0" stroke-width="4" stroke-linecap="round" stroke-linejoin="round" stroke-miterlimit="10"/>
    </g>
    <g id="XMLID_73_">
     <line id="XMLID_77_" class="st21" x1="465.3" y1="436.7" x2="497.2" y2="436.7" fill="none" stroke="#FFC47D" stroke-width="4" stroke-linecap="round" stroke-linejoin="round" stroke-miterlimit="10"/>
     <line id="XMLID_74_" class="st22" x1="426.9" y1="436.7" x2="455.5" y2="436.7" fill="none" stroke="#FF5757" stroke-width="4" stroke-linecap="round" stroke-linejoin="round" stroke-miterlimit="10"/>
    </g>
    <g id="XMLID_80_">
     <line id="XMLID_64_" class="st20" x1="502.2" y1="449" x2="519.5" y2="449" fill="none" stroke="#9169FF" stroke-width="4" stroke-linecap="round" stroke-linejoin="round" stroke-miterlimit="10"/>
     <line id="XMLID_84_" class="st22" x1="465.3" y1="449" x2="493" y2="449" fill="none" stroke="#FF5757" stroke-width="4" stroke-linecap="round" stroke-linejoin="round" stroke-miterlimit="10"/>
     <line id="XMLID_81_" class="st19" x1="439.8" y1="449" x2="455.5" y2="449" fill="none" stroke="#7BFFA0" stroke-width="4" stroke-linecap="round" stroke-linejoin="round" stroke-miterlimit="10"/>
    </g>
    <g id="XMLID_87_">
     <line id="XMLID_95_" class="st18" x1="477.9" y1="461.3" x2="493" y2="461.3" fill="none" stroke="#FFFFFF" stroke-width="4" stroke-linecap="round" stroke-linejoin="round" stroke-miterlimit="10"/>
     <line id="XMLID_90_" class="st20" x1="439.8" y1="461.3" x2="467.5" y2="461.3" fill="none" stroke="#9169FF" stroke-width="4" stroke-linecap="round" stroke-linejoin="round" stroke-miterlimit="10"/>
    </g>
    <g id="XMLID_98_">
     <line id="XMLID_71_" class="st18" x1="517.2" y1="473.6" x2="534.5" y2="473.6" fill="none" stroke="#FFFFFF" stroke-width="4" stroke-linecap="round" stroke-linejoin="round" stroke-miterlimit="10"/>
     <line id="XMLID_102_" class="st21" x1="464.3" y1="473.6" x2="507.8" y2="473.6" fill="none" stroke="#FFC47D" stroke-width="4" stroke-linecap="round" stroke-linejoin="round" stroke-miterlimit="10"/>
     <line id="XMLID_99_" class="st18" x1="426.9" y1="473.6" x2="454.6" y2="473.6" fill="none" stroke="#FFFFFF" stroke-width="4" stroke-linecap="round" stroke-linejoin="round" stroke-miterlimit="10"/>
    </g>
    <line id="XMLID_145_" class="st5" x1="214.9" y1="632.5" x2="430.4" y2="632.5" fill="none" stroke="#1F3969" stroke-width="4" stroke-linecap="round" stroke-linejoin="round" stroke-miterlimit="10"/>
    <line id="XMLID_151_" class="st5" x1="214.9" y1="640.5" x2="430.4" y2="640.5" fill="none" stroke="#1F3969" stroke-width="4" stroke-linecap="round" stroke-linejoin="round" stroke-miterlimit="10"/>
    <path id="XMLID_158_" class="st5" d="m432.4,625.6l-220,0c1.3,3.2 2,7.2 2,11.4c0,4.2 -0.7,8.1 -2,11.4l219.9,0c-1.3,-3.2 -2,-7.2 -2,-11.4c0.1,-4.3 0.8,-8.2 2.1,-11.4z" fill="none" stroke="#1F3969" stroke-width="4" stroke-linecap="round" stroke-linejoin="round" stroke-miterlimit="10"/>
   </g>
   <g id="XMLID_222_">
    <g id="XMLID_174_">
     <rect id="XMLID_177_" x="722.8" y="544.4" transform="matrix(0.9932 -0.1166 0.1166 0.9932 -62.746 88.7942)" class="st23" width="9.8" height="72.6" fill="#FFA364"/>
     <rect id="XMLID_31_" x="719" y="544.7" transform="matrix(0.9932 -0.1166 0.1166 0.9932 -58.9937 88.1297)" class="st13" width="9.8" height="7.4" fill="#2AA1FF"/>
     <rect id="XMLID_217_" x="719" y="544.7" transform="matrix(0.9932 -0.1166 0.1166 0.9932 -58.9937 88.1297)" class="st5" width="9.8" height="7.4" fill="none" stroke="#1F3969" stroke-width="4" stroke-linecap="round" stroke-linejoin="round" stroke-miterlimit="10"/>
     <rect id="XMLID_22_" x="722.8" y="544.4" transform="matrix(0.9932 -0.1166 0.1166 0.9932 -62.746 88.7942)" class="st5" width="9.8" height="72.6" fill="none" stroke="#1F3969" stroke-width="4" stroke-linecap="round" stroke-linejoin="round" stroke-miterlimit="10"/>
    </g>
    <g id="XMLID_189_">
     <rect id="XMLID_218_" x="741.4" y="558.1" transform="matrix(0.9941 0.1081 -0.1081 0.9941 68.6015 -77.1711)" class="st24" width="9.8" height="72.6" fill="#FF5252"/>
     <rect id="XMLID_214_" x="741.4" y="558.1" transform="matrix(0.9941 0.1081 -0.1081 0.9941 68.6015 -77.1711)" class="st5" width="9.8" height="72.6" fill="none" stroke="#1F3969" stroke-width="4" stroke-linecap="round" stroke-linejoin="round" stroke-miterlimit="10"/>
     <rect id="XMLID_220_" x="745" y="558.3" transform="matrix(0.9941 0.1081 -0.1081 0.9941 65.1167 -77.742)" class="st1" width="9.8" height="7.4" fill="#2D425E"/>
     <rect id="XMLID_211_" x="745" y="558.3" transform="matrix(0.9941 0.1081 -0.1081 0.9941 65.1167 -77.742)" class="st5" width="9.8" height="7.4" fill="none" stroke="#1F3969" stroke-width="4" stroke-linecap="round" stroke-linejoin="round" stroke-miterlimit="10"/>
    </g>
    <polygon id="XMLID_26_" class="st25" points="761.1,654.6 721.8,654.6 715.4,594.4 767.5,594.4   " fill="#6567C3"/>
    <polygon id="XMLID_233_" class="st25" points="715.4,594.4 715.5,595.5 755.2,595.5 748.9,654.6 761.1,654.6 767.5,594.4   " fill="#6567C3"/>
    <polygon id="XMLID_21_" class="st5" points="761.1,654.6 721.8,654.6 715.4,594.4 767.5,594.4   " fill="none" stroke="#1F3969" stroke-width="4" stroke-linecap="round" stroke-linejoin="round" stroke-miterlimit="10"/>
   </g>
  </g>
 </g>

</svg>